<?xml version="1.0" encoding="UTF-8" standalone="no"?>
<svg
   width="862"
   height="1248"
   viewBox="0 0 862 1248"
   version="1.1"
   id="svg24"
   sodipodi:docname="male.svg"
   xmlns:inkscape="http://www.inkscape.org/namespaces/inkscape"
   xmlns:sodipodi="http://sodipodi.sourceforge.net/DTD/sodipodi-0.dtd"
   xmlns="http://www.w3.org/2000/svg"
   xmlns:svg="http://www.w3.org/2000/svg">
  <defs
     id="defs24" />
  <sodipodi:namedview
     id="namedview24"
     pagecolor="#505050"
     bordercolor="#eeeeee"
     borderopacity="1"
     inkscape:showpageshadow="0"
     inkscape:pageopacity="0"
     inkscape:pagecheckerboard="0"
     inkscape:deskcolor="#505050"
     showgrid="false">
    <inkscape:page
       x="0"
       y="0"
       width="862"
       height="1248"
       id="page2"
       margin="0"
       bleed="0" />
  </sodipodi:namedview>
  <path
     d="m 0,624 v 624 H 431 862 V 624 0 H 431 0 Z M 446.3,75.1 c 3.2,0.5 8.5,2.3 11.8,3.9 5.3,2.5 7.9,4.7 15.3,13 0.8,0.8 2.5,2.4 4,3.5 5.9,4.5 9.6,16.4 9.6,31.5 0,5.2 -0.6,12.1 -1.4,15.2 -1.2,5.4 -1.2,5.9 0.7,7.5 3.4,3.2 3.8,5.9 2.1,15.1 -2.1,11.4 -5,18.9 -8,20.8 -1.7,1.2 -2.4,2.6 -2.4,4.8 0,1.7 -1.2,5.8 -2.5,9.1 -2.3,5.4 -2.5,7.4 -2.5,20.7 0,8.1 0.4,15.8 1,17.2 1,2.8 7.2,7 13.4,9.2 3.8,1.4 27.1,10.9 34.4,14.1 7.1,3.1 20.4,7.3 27.9,8.8 22.6,4.5 28.4,6.8 37.7,15.5 13.2,12.2 20.6,29.7 25.3,59.6 2.7,17.8 2.8,18.2 2.8,68.4 l 0.1,50.5 2.8,10 c 4.4,16.1 4.6,36.5 0.6,60.5 -0.5,3 -1.4,12.5 -2,21 -0.6,8.5 -2,21.6 -3,29 -1.1,7.4 -2.7,19.6 -3.5,27 -0.9,7.4 -2.2,17.3 -3,22 -0.7,4.7 -1.7,11.4 -2,15 -0.4,3.6 -2,12.2 -3.5,19.2 -1.6,6.9 -3.2,15.7 -3.6,19.5 -0.8,8.2 -3.1,13.9 -10.3,25.6 -6.3,10.1 -11.3,15.1 -17,16.8 -5,1.5 -7.1,0.1 -7.1,-4.6 0,-3.3 2.1,-6.1 8.3,-11.2 1.5,-1.3 2.7,-3 2.7,-3.8 0,-0.9 0.8,-3.2 1.9,-5.3 2.3,-4.7 3.4,-9.2 2.2,-9.2 -0.5,0 -3.5,3.6 -6.6,8 -3.1,4.4 -6,8.2 -6.5,8.5 -1.9,1.2 -6,-0.8 -6.6,-3 -0.3,-1.3 0,-6.3 0.6,-11.2 0.7,-4.8 1.6,-17.8 2,-28.8 0.9,-22.6 1.9,-26.7 8.8,-38.2 2.7,-4.4 4.2,-8.1 4.2,-10.2 0,-5.5 -6.2,-27.6 -17.1,-61 -11.3,-34.5 -11.3,-34.6 -11.4,-63.1 -0.1,-19.8 -0.4,-25.8 -1.9,-31.5 -2.4,-9.7 -4.3,-20.2 -5.7,-32 -0.7,-5.5 -1.5,-10.4 -1.9,-10.8 -0.5,-0.5 -1.1,4.4 -1.5,11 -0.4,6.5 -1.8,18.3 -3.2,26.3 -3.5,20.7 -3.3,26.6 1.1,43.3 6.3,23.4 6.7,26.3 7.6,56.7 0.7,23 1.3,31.5 3.4,44 8.2,49.2 11.6,89.4 11.6,136 0,56.5 -5.8,135.4 -14.1,190.1 -2.6,17.7 -3,23.6 -3.9,59 -0.5,21.7 -1.4,43 -2,47.4 -5.5,44.7 -8.7,87.6 -8.6,115 0.1,21.9 0.7,22.7 27.1,36.8 7.1,3.8 16.1,9 20,11.5 5.4,3.5 8.3,4.6 12.9,5.2 6.6,0.8 9.3,2.9 7.5,6.1 -0.5,1 -2,2.1 -3.2,2.4 -1.2,0.3 -27.2,0.4 -57.7,0.3 l -55.5,-0.3 -3.6,-2.3 c -7.8,-4.8 -8.7,-14 -2.9,-28.5 2.8,-7 3,-8.4 3,-20.1 0,-9 0.4,-13.7 1.5,-16.3 3,-7.2 1.9,-14.6 -6,-39.8 -16.7,-53.2 -20.6,-78.3 -17.5,-112 0.6,-6.1 3.3,-24.5 6.1,-41 7.8,-46.7 7.4,-42.9 5.9,-51.9 -0.7,-4.5 -3.3,-14 -5.7,-21.1 -9,-26.8 -17.1,-59.3 -20.8,-83.5 -1.6,-10.8 -2.4,-27.4 -2.8,-63 -0.2,-19.6 -0.3,-20.5 -2.2,-20.5 -1.9,0 -2,1 -2.6,27.3 -0.7,27.3 -1.1,34.6 -3,52.2 -2,17.8 -9.6,51.2 -17.5,76.2 -11.5,36.8 -11.6,37.4 -8,56.4 8.7,47.5 11,65.9 11,89.4 -0.1,17.7 -0.4,22.5 -2.7,35 -2.7,14.8 -8.2,35.4 -16.3,60.5 -5.5,17 -6.8,29.4 -3.9,37.1 1.4,3.7 1.6,6.2 1,14.3 -0.7,9.5 -0.6,10.1 2.9,20.2 4.8,13.9 5,21.3 0.6,26.2 -1.9,2.2 -4.5,3.8 -7.2,4.5 -4,1 -36,1.4 -93.4,1.3 -18.4,-0.1 -20.4,-0.3 -22.5,-2 -3.2,-2.6 -1.6,-5.3 3.7,-6.5 2.1,-0.5 5.5,-1.3 7.5,-1.7 1.9,-0.5 7.3,-3.2 12,-6 4.6,-2.9 12.7,-7.5 17.9,-10.2 15.8,-8.3 20.2,-11.6 23,-17.2 2.5,-4.9 2.5,-5.3 2.4,-28.5 -0.1,-12.9 -0.7,-29.1 -1.3,-36 -2.2,-23.6 -4.2,-43.5 -5.1,-50 -1.3,-9.4 -2.9,-37 -4,-71.5 -1.1,-32.8 -1.6,-39.1 -6,-69.5 -6.1,-42 -9.8,-93.9 -10.8,-149 -1.3,-68.1 1.6,-108.2 12.3,-172.1 2.1,-12.1 2.5,-18.1 2.5,-34.5 0,-21.7 1.3,-33.2 5.5,-47.9 6.6,-23.6 7.1,-30.9 3,-51 -1.6,-7.8 -2.9,-18.7 -3.4,-27.2 -0.4,-7.8 -0.9,-14.5 -1.2,-14.8 -0.3,-0.3 -1.3,5.7 -2.3,13.2 -0.9,7.6 -2.8,19 -4.2,25.3 -2.2,10 -2.7,15.1 -3.4,39.5 -0.9,32.6 -0.9,32.4 -13,68.5 -7.6,22.6 -12.6,39.5 -14.9,50.9 -1.3,6.4 -0.2,11.6 3.4,16 6.6,7.8 9.2,20.8 9.6,47.1 0.1,11.3 0.2,23.4 0.3,27 0.1,6 -0.1,6.5 -2.1,6.8 -2.4,0.4 -5.1,-2 -9.3,-8.3 -1.4,-2 -3.8,-5.1 -5.3,-6.8 l -2.9,-3.2 0.6,3.4 c 1.3,7.3 5.7,15 10.7,18.6 5.2,3.7 7.1,8.4 5,12.4 -1.6,2.9 -4.6,2.6 -10.7,-0.9 -5.4,-3 -8.6,-6.6 -15,-16.5 -5.9,-9.2 -7.3,-13 -8.4,-22.8 -0.6,-5 -1.9,-12.5 -3,-16.7 -1,-4.1 -2.6,-13.1 -3.5,-20 -0.9,-6.8 -1.8,-12.7 -2,-13 -0.2,-0.3 -0.8,-5 -1.4,-10.5 -0.7,-5.5 -2,-15.9 -3.1,-23 -1,-7.2 -2.4,-18.6 -3,-25.5 -0.6,-6.9 -2.3,-23.1 -3.7,-36 -1.9,-16.7 -2.7,-28.7 -2.7,-41.5 0.1,-16.7 0.3,-18.7 2.9,-28 l 2.8,-10 0.2,-52 c 0.3,-56 0.8,-63.8 6,-84.8 3.8,-15.5 10.2,-29.5 17.3,-37.7 4.3,-5.1 12.8,-11.5 17.9,-13.5 4.6,-1.8 24,-6.5 26.9,-6.5 2.1,0 21.4,-6.1 27.4,-8.7 19,-8.1 28.3,-12 34.1,-14.3 3.1,-1.1 7.1,-3.4 9,-4.9 l 3.4,-2.9 v -16.8 c 0,-13.3 -0.3,-17.7 -1.6,-20.9 -0.9,-2.2 -2,-6 -2.4,-8.5 -0.5,-3.2 -1.8,-5.7 -4.4,-8.5 -2.9,-3.2 -4,-5.5 -5,-10.5 -0.7,-3.6 -1.7,-7.8 -2.2,-9.4 -1.5,-4.7 -1.1,-10.7 0.9,-12.9 1.5,-1.7 1.7,-3.8 1.3,-17.7 -0.3,-15.4 -0.2,-16 2.3,-21.4 1.4,-3 2.6,-6.3 2.6,-7.3 0.1,-9.6 17,-24.5 32.7,-28.8 5.9,-1.6 21,-1.9 28.6,-0.4 z"
     id="path1"
     inkscape:label="mask"
     style="display:inline;stroke-width:0.1" />
  <!-- Traced line-art (potrace) -->
  <!-- Colour blobs -->
</svg>
