<?xml version="1.0" encoding="UTF-8" standalone="no"?>
<svg
   width="862"
   height="1248"
   viewBox="0 0 862 1248"
   version="1.1"
   id="svg30"
   xmlns="http://www.w3.org/2000/svg"
   xmlns:svg="http://www.w3.org/2000/svg">
  <defs
     id="defs30" />
  <g
     id="g31"
     style="display:inline;mix-blend-mode:normal"
     transform="matrix(0.1,0,0,-0.1,0,1248)">
    <path
       d="m 5344,8427 c -1,-109 -32,-307 -74,-476 -38,-154 -75,-460 -57,-478 4,-3 7,-17 7,-30 0,-13 7,-34 15,-46 30,-47 146,-365 180,-497 26,-103 45,-250 45,-357 0,-37 6,-99 14,-138 44,-213 67,-477 67,-767 0,-168 2,-208 13,-208 22,0 38,24 24,38 -8,8 -8,15 -1,24 15,18 26,123 28,268 3,137 20,223 60,292 58,102 67,128 60,177 -3,25 -30,118 -60,206 -123,367 -152,477 -174,670 -13,109 -14,268 -1,393 10,108 5,164 -44,487 -68,445 -84,535 -98,535 -2,0 -3,-42 -4,-93 z"
       id="path10" />
    <path
       d="M 0,6240 V 0 h 4310 4310 v 6240 6240 H 4310 0 Z m 4526,5451 c 96,-21 203,-71 278,-131 161,-130 248,-334 245,-571 0,-52 2,-119 5,-149 6,-49 2,-66 -37,-160 -38,-92 -49,-108 -81,-125 -20,-11 -39,-29 -42,-40 -21,-73 -62,-157 -97,-199 l -41,-48 18,-47 c 16,-40 36,-103 67,-207 5,-17 9,-55 9,-86 0,-64 3,-68 110,-126 166,-89 479,-205 632,-232 66,-12 109,-34 162,-85 56,-55 88,-123 116,-253 27,-125 38,-295 44,-727 7,-439 22,-583 86,-830 51,-195 64,-489 43,-965 -12,-269 -23,-411 -63,-815 -6,-55 -15,-165 -20,-245 -14,-200 -18,-219 -50,-265 -16,-22 -43,-66 -59,-97 -44,-85 -80,-128 -106,-128 -12,0 -38,-11 -58,-24 -35,-24 -36,-24 -52,-6 -15,17 -16,56 -2,100 1,2 -22,5 -50,6 l -53,2 v -44 c 0,-109 -67,-696 -110,-954 -27,-167 -101,-535 -134,-668 -35,-142 -39,-218 -30,-532 17,-586 11,-801 -35,-1130 -47,-339 -59,-462 -73,-751 l -11,-245 23,-47 c 13,-25 42,-61 64,-79 44,-36 104,-78 111,-78 2,0 19,-10 37,-22 39,-27 181,-98 253,-127 28,-11 76,-31 109,-45 32,-14 77,-26 100,-26 61,0 87,-37 51,-74 -14,-13 -84,-14 -593,-10 -317,3 -591,7 -608,10 -31,4 -72,40 -93,81 -15,30 -14,109 3,146 28,64 59,178 58,220 0,23 0,67 -1,97 -1,30 4,73 12,95 9,24 13,64 10,100 -13,208 -27,327 -53,450 -15,77 -44,214 -63,305 -49,238 -56,282 -67,410 -25,298 -1,628 80,1080 38,208 41,240 30,350 -17,182 -48,491 -59,585 -6,50 -22,187 -36,305 -14,118 -34,298 -45,400 -11,102 -25,228 -31,280 -14,120 -16,137 -18,179 -2,69 -11,21 -26,-150 -8,-95 -22,-228 -30,-294 -8,-66 -19,-156 -25,-200 -5,-44 -14,-123 -20,-175 -21,-197 -41,-376 -46,-405 -2,-16 -14,-131 -26,-255 -27,-278 -29,-433 -5,-565 9,-55 22,-134 28,-175 6,-41 15,-97 20,-125 43,-240 60,-713 34,-910 -17,-124 -72,-416 -99,-520 -67,-262 -96,-586 -63,-702 11,-38 12,-63 5,-100 -13,-69 4,-154 57,-278 24,-56 16,-147 -17,-182 -48,-51 -34,-50 -670,-56 -625,-5 -612,-6 -620,38 -4,23 55,56 88,48 20,-4 80,16 169,57 22,10 63,29 90,41 86,39 227,120 301,175 111,81 115,93 109,344 -6,220 -28,455 -80,845 -40,299 -47,570 -27,1065 11,270 2,413 -36,565 -27,111 -61,276 -111,550 -25,135 -56,338 -71,465 -6,52 -17,147 -25,210 -29,231 -35,298 -35,361 v 65 l -60,2 -60,2 16,-25 c 16,-24 14,-55 -5,-83 -7,-11 -24,-6 -88,23 -77,36 -80,40 -114,103 -19,36 -50,90 -70,119 -35,50 -37,58 -43,160 -12,175 -34,448 -50,603 -14,130 -45,533 -44,570 0,8 -3,110 -7,225 -12,333 10,588 69,792 48,168 65,366 86,1013 14,465 53,630 175,755 44,46 59,54 111,65 32,6 93,21 134,32 41,11 89,24 105,28 17,4 52,17 79,28 27,12 54,22 60,22 7,0 31,9 55,21 23,11 75,35 116,54 84,38 216,113 228,129 4,6 10,23 14,39 8,40 27,47 21,8 -2,-17 -3,-31 0,-31 2,0 23,14 47,31 40,29 44,37 51,85 3,29 5,89 3,133 -3,66 -8,84 -25,102 l -22,21 -7,-58 c -4,-33 -15,-84 -26,-114 l -18,-55 3,45 c 2,25 10,80 17,123 11,73 11,79 -8,100 -12,12 -32,44 -45,71 -14,27 -27,45 -30,40 -7,-12 18,-234 33,-299 6,-27 17,-60 25,-72 18,-28 18,-73 1,-73 -15,0 -84,80 -96,112 -8,22 -23,135 -26,208 -11,214 -18,263 -42,284 -36,31 -60,75 -84,152 -22,71 -25,106 -14,184 4,25 2,63 -3,86 -17,75 21,264 69,346 16,27 29,51 29,54 0,16 72,98 132,151 90,79 167,119 276,142 114,25 170,25 278,2 z"
       id="path1"
       style="display:inline;fill:#000000" />
    <path
       d="m 3431,8420 c -7,-52 -24,-158 -37,-235 -57,-333 -85,-559 -80,-630 17,-211 18,-344 2,-466 -17,-133 -67,-342 -111,-469 -83,-240 -117,-351 -121,-400 -5,-51 -2,-60 36,-125 59,-99 80,-180 81,-317 1,-176 12,-267 40,-313 l 24,-40 7,265 c 7,310 19,456 52,658 14,81 27,201 30,267 5,111 32,292 55,375 6,19 17,60 25,90 30,112 110,325 127,335 5,4 9,19 9,35 0,16 4,31 8,34 10,6 -3,173 -22,280 -8,45 -31,167 -50,271 -20,105 -42,255 -49,335 l -13,145 z"
       id="path11" />
  </g>
  <!-- Traced line-art (potrace) -->
  <!-- Colour blobs -->
</svg>
