<?xml version="1.0" encoding="UTF-8" standalone="no"?>
<svg
   width="862"
   height="1248"
   viewBox="0 0 862 1248"
   version="1.1"
   id="svg47"
   sodipodi:docname="female.svg"
   xml:space="preserve"
   xmlns:inkscape="http://www.inkscape.org/namespaces/inkscape"
   xmlns:sodipodi="http://sodipodi.sourceforge.net/DTD/sodipodi-0.dtd"
   xmlns="http://www.w3.org/2000/svg"
   xmlns:svg="http://www.w3.org/2000/svg"><defs
     id="defs47" /><sodipodi:namedview
     id="namedview47"
     pagecolor="#505050"
     bordercolor="#eeeeee"
     borderopacity="1"
     inkscape:showpageshadow="0"
     inkscape:pageopacity="0"
     inkscape:pagecheckerboard="0"
     inkscape:deskcolor="#505050"><inkscape:page
       x="0"
       y="0"
       width="862"
       height="1248"
       id="page2"
       margin="0"
       bleed="0" /></sodipodi:namedview><!-- Traced line-art (potrace) --><!-- Measurements --><!-- measurement_calf_left --><rect
     width="862"
     height="1248"
     fill="#ffffff"
     id="rect1"
     inkscape:label="background"
     x="0.49118078"
     y="1.2558291"
     style="display:inline" /><g
     id="g31"
     style="display:inline;mix-blend-mode:normal"
     inkscape:label="mask"
     transform="matrix(0.1,0,0,-0.1,0.49118079,1249.2558)"><path
       d="m 5344,8427 c -1,-109 -32,-307 -74,-476 -38,-154 -75,-460 -57,-478 4,-3 7,-17 7,-30 0,-13 7,-34 15,-46 30,-47 146,-365 180,-497 26,-103 45,-250 45,-357 0,-37 6,-99 14,-138 44,-213 67,-477 67,-767 0,-168 2,-208 13,-208 22,0 38,24 24,38 -8,8 -8,15 -1,24 15,18 26,123 28,268 3,137 20,223 60,292 58,102 67,128 60,177 -3,25 -30,118 -60,206 -123,367 -152,477 -174,670 -13,109 -14,268 -1,393 10,108 5,164 -44,487 -68,445 -84,535 -98,535 -2,0 -3,-42 -4,-93 z"
       id="path10"
       inkscape:label="mask_right_of_torso" /><path
       d="M 0,6240 V 0 h 4310 4310 v 6240 6240 H 4310 0 Z m 4526,5451 c 96,-21 203,-71 278,-131 161,-130 248,-334 245,-571 0,-52 2,-119 5,-149 6,-49 2,-66 -37,-160 -38,-92 -49,-108 -81,-125 -20,-11 -39,-29 -42,-40 -21,-73 -62,-157 -97,-199 l -41,-48 18,-47 c 16,-40 36,-103 67,-207 5,-17 9,-55 9,-86 0,-64 3,-68 110,-126 166,-89 479,-205 632,-232 66,-12 109,-34 162,-85 56,-55 88,-123 116,-253 27,-125 38,-295 44,-727 7,-439 22,-583 86,-830 51,-195 64,-489 43,-965 -12,-269 -23,-411 -63,-815 -6,-55 -15,-165 -20,-245 -14,-200 -18,-219 -50,-265 -16,-22 -43,-66 -59,-97 -44,-85 -80,-128 -106,-128 -12,0 -38,-11 -58,-24 -35,-24 -36,-24 -52,-6 -15,17 -16,56 -2,100 1,2 -22,5 -50,6 l -53,2 v -44 c 0,-109 -67,-696 -110,-954 -27,-167 -101,-535 -134,-668 -35,-142 -39,-218 -30,-532 17,-586 11,-801 -35,-1130 -47,-339 -59,-462 -73,-751 l -11,-245 23,-47 c 13,-25 42,-61 64,-79 44,-36 104,-78 111,-78 2,0 19,-10 37,-22 39,-27 181,-98 253,-127 28,-11 76,-31 109,-45 32,-14 77,-26 100,-26 61,0 87,-37 51,-74 -14,-13 -84,-14 -593,-10 -317,3 -591,7 -608,10 -31,4 -72,40 -93,81 -15,30 -14,109 3,146 28,64 59,178 58,220 0,23 0,67 -1,97 -1,30 4,73 12,95 9,24 13,64 10,100 -13,208 -27,327 -53,450 -15,77 -44,214 -63,305 -49,238 -56,282 -67,410 -25,298 -1,628 80,1080 38,208 41,240 30,350 -17,182 -48,491 -59,585 -6,50 -22,187 -36,305 -14,118 -34,298 -45,400 -11,102 -25,228 -31,280 -14,120 -16,137 -18,179 -2,69 -11,21 -26,-150 -8,-95 -22,-228 -30,-294 -8,-66 -19,-156 -25,-200 -5,-44 -14,-123 -20,-175 -21,-197 -41,-376 -46,-405 -2,-16 -14,-131 -26,-255 -27,-278 -29,-433 -5,-565 9,-55 22,-134 28,-175 6,-41 15,-97 20,-125 43,-240 60,-713 34,-910 -17,-124 -72,-416 -99,-520 -67,-262 -96,-586 -63,-702 11,-38 12,-63 5,-100 -13,-69 4,-154 57,-278 24,-56 16,-147 -17,-182 -48,-51 -34,-50 -670,-56 -625,-5 -612,-6 -620,38 -4,23 55,56 88,48 20,-4 80,16 169,57 22,10 63,29 90,41 86,39 227,120 301,175 111,81 115,93 109,344 -6,220 -28,455 -80,845 -40,299 -47,570 -27,1065 11,270 2,413 -36,565 -27,111 -61,276 -111,550 -25,135 -56,338 -71,465 -6,52 -17,147 -25,210 -29,231 -35,298 -35,361 v 65 l -60,2 -60,2 16,-25 c 16,-24 14,-55 -5,-83 -7,-11 -24,-6 -88,23 -77,36 -80,40 -114,103 -19,36 -50,90 -70,119 -35,50 -37,58 -43,160 -12,175 -34,448 -50,603 -14,130 -45,533 -44,570 0,8 -3,110 -7,225 -12,333 10,588 69,792 48,168 65,366 86,1013 14,465 53,630 175,755 44,46 59,54 111,65 32,6 93,21 134,32 41,11 89,24 105,28 17,4 52,17 79,28 27,12 54,22 60,22 7,0 31,9 55,21 23,11 75,35 116,54 84,38 216,113 228,129 4,6 10,23 14,39 8,40 27,47 21,8 -2,-17 -3,-31 0,-31 2,0 23,14 47,31 40,29 44,37 51,85 3,29 5,89 3,133 -3,66 -8,84 -25,102 l -22,21 -7,-58 c -4,-33 -15,-84 -26,-114 l -18,-55 3,45 c 2,25 10,80 17,123 11,73 11,79 -8,100 -12,12 -32,44 -45,71 -14,27 -27,45 -30,40 -7,-12 18,-234 33,-299 6,-27 17,-60 25,-72 18,-28 18,-73 1,-73 -15,0 -84,80 -96,112 -8,22 -23,135 -26,208 -11,214 -18,263 -42,284 -36,31 -60,75 -84,152 -22,71 -25,106 -14,184 4,25 2,63 -3,86 -17,75 21,264 69,346 16,27 29,51 29,54 0,16 72,98 132,151 90,79 167,119 276,142 114,25 170,25 278,2 z"
       id="path1"
       style="display:inline;fill:#000000"
       inkscape:label="mask_bg" /><path
       d="m 3431,8420 c -7,-52 -24,-158 -37,-235 -57,-333 -85,-559 -80,-630 17,-211 18,-344 2,-466 -17,-133 -67,-342 -111,-469 -83,-240 -117,-351 -121,-400 -5,-51 -2,-60 36,-125 59,-99 80,-180 81,-317 1,-176 12,-267 40,-313 l 24,-40 7,265 c 7,310 19,456 52,658 14,81 27,201 30,267 5,111 32,292 55,375 6,19 17,60 25,90 30,112 110,325 127,335 5,4 9,19 9,35 0,16 4,31 8,34 10,6 -3,173 -22,280 -8,45 -31,167 -50,271 -20,105 -42,255 -49,335 l -13,145 z"
       id="path11"
       inkscape:label="mask_left_of_torso" /></g><g
     transform="matrix(0.1,0,0,-0.1,0.49118079,1249.2558)"
     fill="#000000"
     stroke="none"
     id="g30"
     inkscape:label="body"
     style="display:inline"><g
       id="g32"
       inkscape:label="head"
       style="display:inline"><path
         d="m 4244,11661 c -172,-37 -325,-161 -406,-331 -46,-94 -92,-280 -74,-297 11,-11 60,19 71,45 12,27 25,29 25,3 0,-28 -57,-73 -82,-65 -16,5 -19,2 -15,-13 3,-10 8,-35 12,-55 5,-30 10,-38 27,-38 12,0 29,-7 39,-16 16,-14 18,-14 23,3 8,28 9,202 1,266 -10,74 10,78 24,5 23,-115 24,-130 12,-138 -19,-11 -23,-170 -11,-435 11,-249 18,-309 45,-366 l 15,-34 -6,30 c -4,24 -23,432 -26,575 -1,19 6,89 15,155 9,66 19,180 23,254 6,111 10,137 25,152 19,19 19,18 18,-23 -1,-33 -3,-37 -8,-19 -3,13 -7,-59 -7,-161 -1,-112 -6,-198 -13,-220 -7,-22 -13,-120 -14,-259 l -2,-224 35,-60 c 63,-106 171,-200 316,-274 102,-52 163,-40 307,58 73,50 125,100 180,172 37,49 87,195 97,283 12,106 16,124 28,139 9,10 8,17 0,25 -8,8 -11,36 -10,74 4,84 -23,220 -52,262 -51,76 -89,116 -138,147 l -53,34 -219,1 c -159,0 -221,4 -224,12 -2,7 7,12 22,12 23,0 21,4 -27,53 -31,30 -57,68 -64,89 -15,51 3,60 23,12 9,-20 41,-63 71,-96 l 56,-58 h 104 c 56,0 103,3 103,8 0,4 17,17 38,30 20,13 52,43 71,68 18,24 40,44 48,44 23,0 -43,-87 -90,-118 l -41,-27 70,-6 c 64,-5 70,-4 87,18 10,13 25,23 33,23 21,0 17,-10 -11,-32 l -26,-20 43,-27 c 42,-27 92,-78 133,-135 17,-23 30,-29 72,-33 59,-6 62,-23 4,-23 h -38 l 9,-47 c 5,-27 11,-72 15,-101 l 6,-53 41,3 41,3 3,105 c 4,125 -12,196 -71,318 -80,165 -241,289 -421,326 -98,20 -179,19 -282,-3 z m -188,-248 c 40,-57 65,-73 110,-73 60,0 55,-16 -8,-30 -29,-6 -77,-24 -106,-40 -41,-22 -53,-25 -50,-13 2,9 26,28 53,42 63,33 63,33 45,39 -24,8 -80,69 -80,86 0,24 15,19 36,-11 z m 939,-353 c 4,-6 -7,-10 -24,-10 -17,0 -31,5 -31,10 0,6 11,10 24,10 14,0 28,-4 31,-10 z m -1149,-81 c 8,-14 -11,-33 -25,-25 -11,7 -4,36 9,36 5,0 12,-5 16,-11 z"
         id="path2" /><path
         d="m 3778,10889 c -25,-14 -23,-73 6,-163 24,-72 63,-146 79,-146 4,0 7,25 7,56 0,47 -3,57 -19,61 -17,4 -19,12 -14,58 5,48 3,56 -21,80 -30,30 -32,35 -12,35 23,0 39,-29 52,-93 7,-37 12,-50 13,-32 1,57 -17,119 -39,137 -25,21 -29,21 -52,7 z"
         id="path3" /><path
         d="m 4941,10848 c 1,-41 1,-42 11,-15 5,15 16,27 24,27 8,0 17,1 21,3 3,1 8,-4 11,-10 2,-8 -5,-13 -17,-13 -27,0 -30,-8 -32,-85 -1,-59 -4,-66 -19,-62 -15,4 -19,-4 -25,-42 -3,-25 -9,-54 -12,-64 -4,-15 0,-18 18,-15 41,6 124,225 111,293 -4,22 -9,25 -48,25 h -44 z"
         id="path4" /><path
         d="m 4702,10218 c -16,-16 -15,-33 9,-134 11,-48 19,-98 16,-110 -2,-13 -1,-27 2,-32 8,-11 84,-62 93,-62 19,0 -11,168 -51,280 l -19,55 4,-60 c 5,-71 -11,-50 -21,28 -6,49 -13,55 -33,35 z"
         id="path5" /><path
         d="m 3907,10178 c 3,-24 12,-56 19,-72 8,-16 14,-36 15,-45 0,-12 2,-11 8,4 7,17 8,17 15,-8 3,-15 10,-27 15,-27 5,0 2,18 -6,40 -9,22 -19,37 -23,35 -4,-3 -13,22 -20,55 -15,69 -31,81 -23,18 z"
         id="path6" /><path
         d="m 4690,10011 c 0,-17 5,-31 10,-31 6,0 10,11 10,24 0,14 -4,28 -10,31 -6,4 -10,-7 -10,-24 z"
         id="path8" /></g><g
       id="g34"
       inkscape:label="bottom_half"
       style="display:inline"><path
         d="m 4398,6642 c -560,-1 -1018,-5 -1019,-10 -12,-99 3,-162 44,-183 12,-7 27,-19 33,-27 6,-8 16,-12 21,-9 6,4 16,0 23,-8 7,-8 20,-15 29,-15 9,-1 32,-14 51,-30 19,-17 38,-30 43,-30 5,0 16,-7 25,-17 18,-17 207,-143 216,-143 3,0 37,-21 77,-47 39,-27 84,-57 101,-67 20,-13 26,-21 18,-26 -8,-5 -5,-12 11,-24 13,-9 27,-16 31,-16 4,0 30,-16 57,-35 26,-19 52,-35 56,-35 4,0 21,-10 38,-22 31,-23 54,-36 110,-65 25,-13 34,-13 76,1 51,16 213,119 220,139 6,18 39,39 170,108 18,10 41,25 50,33 38,34 127,89 144,88 9,0 17,5 17,11 0,13 72,67 88,67 5,0 12,7 16,15 3,8 13,15 23,16 10,0 30,8 44,17 26,17 169,120 200,144 22,18 35,137 17,158 -11,13 -136,15 -1030,12 z m -279,-628 c 3,-16 1,-17 -13,-5 -19,16 -21,34 -3,29 6,-3 14,-13 16,-24 z"
         id="path12"
         inkscape:label="underwear" /><g
         id="g4"
         inkscape:label="right"><path
           d="m 3145,496 c -18,-13 -18,-15 -2,-40 10,-15 27,-26 40,-26 12,0 32,-3 45,-6 26,-8 31,16 6,37 -8,7 -13,21 -11,31 4,15 -1,18 -27,18 -18,0 -41,-6 -51,-14 z"
           id="path25"
           inkscape:label="right_toe_4" /><path
           d="m 3073,481 c -13,-11 -23,-21 -23,-24 0,-8 82,-38 88,-32 3,2 -3,14 -13,25 -9,10 -15,26 -12,35 9,21 -13,19 -40,-4 z"
           id="path26"
           inkscape:label="right_toe_3" /><path
           d="m 2988,472 c -10,-2 -18,-7 -18,-11 0,-14 34,-38 63,-45 15,-3 27,-4 27,0 0,15 -57,59 -72,56 z"
           id="path27"
           inkscape:label="right_toe_2" /><path
           d="m 2932,444 c 1,-9 9,-19 16,-22 9,-3 13,2 10,14 -1,9 -9,19 -16,22 -9,3 -13,-2 -10,-14 z"
           id="path30"
           style="display:inline"
           inkscape:label="right_toe_1" /><path
           d="m 3366,6428 c -40,-196 -76,-598 -76,-857 0,-173 25,-537 54,-791 24,-199 72,-547 81,-580 2,-8 20,-103 40,-210 20,-107 54,-274 77,-370 l 41,-175 1,-255 c 1,-140 -3,-374 -8,-520 -10,-288 -4,-387 40,-740 14,-107 34,-274 45,-370 23,-203 40,-629 27,-679 -13,-47 -75,-110 -176,-177 -89,-60 -228,-132 -294,-153 -21,-7 -38,-15 -38,-17 0,-3 47,-2 105,2 76,5 105,4 105,-5 0,-7 -19,-11 -51,-11 -85,0 -110,-26 -66,-68 26,-25 93,-30 130,-11 16,9 22,9 25,0 3,-8 95,-11 333,-11 280,0 335,2 369,16 79,32 90,107 36,255 -41,115 -49,163 -36,226 8,38 7,59 -5,98 -8,28 -15,88 -15,138 0,167 15,264 121,762 96,454 96,728 -1,1375 -57,374 -55,336 -26,635 25,265 91,858 120,1085 8,63 19,174 26,245 6,72 16,147 21,169 6,21 13,112 16,202 l 6,163 -29,7 c -16,3 -58,25 -94,47 -69,43 -94,59 -288,183 -68,44 -142,89 -165,102 -23,13 -67,45 -97,71 -61,53 -210,158 -237,168 -10,4 -36,21 -59,40 -49,39 -52,40 -58,11 z m 574,-2826 c 0,-14 -47,-73 -87,-110 -45,-41 -172,-132 -185,-132 -20,0 1,21 98,98 56,44 114,96 129,116 26,34 45,46 45,28 z m 78,-2687 c 44,-64 42,-98 -3,-49 -36,41 -57,83 -50,101 7,19 4,22 53,-52 z"
           id="path14"
           inkscape:label="right_leg"
           style="display:inline" /></g><g
         id="g5"
         inkscape:label="left"
         style="display:inline"><path
           d="m 5773,445 -28,-25 35,7 c 19,3 38,11 42,17 23,34 -11,35 -49,1 z"
           id="path28"
           inkscape:label="left_toe_2" /><path
           d="m 5846,454 c -13,-33 -4,-42 22,-26 7,5 10,16 6,25 -8,21 -20,22 -28,1 z"
           id="path29"
           inkscape:label="left_toe_1" /><path
           d="m 5340,6388 c -52,-38 -117,-85 -145,-104 -27,-19 -70,-50 -95,-69 -44,-33 -243,-160 -281,-180 -10,-5 -19,-13 -19,-17 0,-4 -15,-15 -32,-24 -18,-9 -55,-31 -83,-49 -153,-100 -199,-127 -233,-138 l -37,-12 3,-75 c 4,-96 19,-267 32,-350 5,-36 15,-121 21,-190 6,-69 15,-156 19,-195 28,-243 60,-509 69,-565 5,-36 12,-101 16,-145 3,-44 15,-156 25,-250 31,-271 35,-405 16,-515 -84,-487 -121,-827 -111,-1015 14,-250 45,-457 105,-705 51,-211 78,-392 87,-577 5,-112 3,-146 -7,-158 -10,-12 -13,-48 -12,-133 1,-106 -1,-123 -29,-201 -60,-168 -57,-228 13,-271 31,-19 50,-20 385,-20 272,0 352,3 356,13 4,9 7,9 18,-1 7,-6 31,-12 54,-12 34,0 47,6 75,35 18,19 31,37 28,41 -3,3 -40,8 -82,11 -42,3 -76,10 -76,14 0,5 30,9 68,9 61,0 83,-7 121,-36 2,-2 -11,-18 -28,-36 l -32,-33 46,-3 c 31,-2 55,2 72,14 24,15 26,15 20,0 -9,-23 38,-21 69,3 l 25,19 -32,16 c -23,11 -36,13 -45,5 -16,-13 -75,16 -68,34 3,8 -23,22 -73,41 -43,16 -89,36 -103,44 -14,9 -45,27 -70,40 -117,62 -207,133 -249,197 -26,40 -26,42 -23,200 4,228 13,359 36,540 3,17 9,80 16,140 6,61 17,155 25,210 39,266 52,502 42,725 -5,96 -9,312 -10,480 0,246 2,317 15,365 17,68 86,386 116,545 46,236 88,535 128,920 48,454 40,973 -21,1337 -13,80 -25,146 -27,148 -2,1 -46,-29 -98,-67 z M 4907,3585 c 15,-20 71,-70 123,-112 52,-42 99,-80 104,-85 5,-4 7,-11 3,-14 -16,-16 -200,127 -246,191 -17,24 -31,46 -31,49 0,16 22,2 47,-29 z M 4843,964 c 15,-15 -54,-114 -80,-114 -19,0 -17,5 22,56 19,25 35,50 35,55 0,10 14,12 23,3 z"
           id="path13"
           inkscape:label="left_leg"
           style="display:inline" /></g></g><g
       id="g33"
       inkscape:label="top_half"
       style="display:inline"><g
         id="g1"
         inkscape:label="floating_fingers"
         style="display:inline"><g
           id="g2"
           inkscape:label="left"
           style="display:inline"><path
             d="m 5540,5344 c 0,-9 5,-14 12,-12 18,6 21,28 4,28 -9,0 -16,-7 -16,-16 z"
             id="path24"
             inkscape:label="left_finger_2" /><path
             d="m 5553,5413 c -18,-7 -16,-30 3,-37 27,-11 35,-7 32,16 -3,23 -15,30 -35,21 z"
             id="path23"
             inkscape:label="left_finger_1"
             style="display:inline" /><path
             d="m 5728,5423 c -25,-27 -49,-59 -52,-70 -4,-12 -18,-29 -32,-38 -23,-15 -27,-15 -43,-1 -15,14 -19,14 -39,0 -12,-8 -22,-24 -22,-35 0,-17 7,-19 65,-19 48,0 67,4 71,15 3,8 14,17 24,20 19,6 84,147 78,167 -2,5 -24,-12 -50,-39 z"
             id="path21"
             inkscape:label="left_finger_3_bottom"
             style="display:inline" /><path
             d="m 5752,5544 c -28,-29 -62,-89 -62,-109 0,-27 84,48 100,91 12,30 13,54 3,53 -5,0 -23,-16 -41,-35 z"
             id="path19"
             inkscape:label="left_finger_3_mid"
             style="display:inline" /><path
             d="m 5763,5685 c -19,-48 -43,-125 -43,-137 0,-6 16,5 36,26 35,36 35,38 27,89 l -8,52 z"
             id="path17"
             inkscape:label="left_finger_3_top"
             style="display:inline" /></g><g
           id="g3"
           inkscape:label="right"
           style="display:inline"><path
             d="m 3210,5423 c 0,-5 15,-33 33,-63 l 32,-55 3,34 c 3,26 -3,40 -24,62 -27,28 -44,37 -44,22 z"
             id="path22"
             inkscape:label="right_finger_1"
             style="display:inline" /><path
             d="m 3010,5489 c 0,-24 95,-200 115,-213 16,-11 47,-16 90,-16 h 66 l -17,30 c -16,27 -22,29 -55,24 -31,-5 -39,-2 -55,19 -26,36 -144,163 -144,156 z"
             id="path20"
             inkscape:label="right_finger_2_bottom"
             style="display:inline" /><path
             d="m 3010,5566 c 0,-25 11,-48 40,-84 58,-75 80,-83 58,-22 -10,29 -85,140 -94,140 -2,0 -4,-15 -4,-34 z"
             id="path18"
             inkscape:label="right_finger_2_mid"
             style="display:inline" /><path
             d="m 3017,5688 c -5,-37 2,-58 38,-107 l 25,-34 v 31 c 0,17 -4,33 -9,36 -5,3 -14,28 -21,56 -14,58 -26,64 -33,18 z"
             id="path16"
             inkscape:label="right_finger_2_top"
             style="display:inline" /></g></g><path
         d="m 3730,8791 c -77,-25 -115,-46 -188,-105 l -64,-51 6,-180 c 3,-100 13,-226 23,-284 l 18,-105 310,1 c 171,1 353,-1 405,-5 85,-7 69,-8 -140,-14 -129,-4 -310,-6 -402,-5 -93,1 -168,1 -168,0 0,-1 13,-69 29,-150 44,-225 55,-339 41,-409 -12,-56 -55,-177 -70,-199 -4,-5 -11,-26 -15,-45 -4,-19 -10,-39 -14,-45 -31,-46 -131,-485 -118,-519 3,-8 264,-10 1027,-8 l 1022,2 -7,43 c -27,172 -72,322 -163,552 -64,161 -82,228 -82,303 0,68 48,339 74,425 8,26 14,47 13,47 -1,0 -174,1 -384,2 -210,0 -387,4 -393,8 -21,13 165,19 472,15 l 306,-5 12,53 c 23,107 50,325 50,409 0,103 -10,119 -117,190 -143,94 -255,116 -426,84 -91,-17 -276,-75 -329,-102 -40,-21 -110,-20 -142,1 -14,9 -31,15 -38,12 -7,-2 -24,2 -38,9 -38,21 -217,72 -290,84 -92,14 -157,12 -220,-9 z m 418,-603 c -2,-7 -39,-30 -81,-50 -85,-41 -210,-64 -289,-52 -63,9 -158,35 -158,44 0,4 -9,10 -21,13 -12,3 -18,10 -15,15 3,6 32,-1 68,-17 57,-24 74,-26 188,-25 h 125 l 85,41 c 94,46 103,49 98,31 z m 598,-32 c 187,-82 341,-71 496,36 24,17 36,1 12,-17 -10,-8 -46,-31 -80,-50 -114,-65 -300,-59 -454,16 -44,21 -80,43 -80,50 0,6 6,9 13,6 6,-3 49,-21 93,-41 z m -112,-65 c 13,-20 -488,-21 -508,0 -6,5 85,9 246,9 141,0 259,-4 262,-9 z m -244,-524 c 0,-259 -4,-312 -21,-301 -10,6 -13,533 -3,558 18,46 24,-21 24,-257 z m 18,-525 c 2,-49 0,-62 -12,-62 -10,0 -15,16 -18,58 -5,63 -2,75 15,69 7,-2 13,-30 15,-65 z"
         id="path9"
         inkscape:label="chest_torso"
         style="display:inline" /><path
         d="m 4128,10205 c -3,-3 -1,-25 4,-49 6,-28 6,-77 0,-131 -11,-93 -9,-91 -88,-140 -317,-196 -489,-268 -849,-354 -28,-7 -63,-24 -78,-39 -135,-128 -180,-360 -192,-972 -7,-405 -28,-631 -71,-788 -38,-137 -45,-175 -59,-312 -23,-230 -17,-671 14,-1015 6,-60 21,-231 36,-380 14,-148 29,-341 34,-427 9,-150 11,-159 39,-200 16,-24 39,-61 50,-84 11,-22 28,-46 36,-53 9,-8 16,-21 16,-30 1,-20 111,-76 134,-68 19,7 13,29 -21,75 -18,23 -30,31 -43,27 -14,-5 -20,1 -25,27 -4,18 -23,67 -43,108 l -35,74 7,126 c 7,152 16,199 33,179 19,-24 74,-170 83,-224 17,-99 38,-175 54,-200 27,-41 69,-28 46,15 -12,22 -16,69 -29,345 -10,198 -23,259 -69,335 -51,84 -64,123 -57,175 6,52 65,243 116,377 32,87 82,272 105,393 21,108 30,389 15,493 -11,84 -3,224 19,337 5,28 17,102 25,165 9,63 22,149 30,190 33,167 67,346 71,370 1,14 8,50 14,80 6,30 12,70 13,89 1,19 8,36 16,39 11,4 13,-4 8,-35 -4,-22 -4,-43 0,-46 3,-4 28,13 54,38 51,48 120,84 209,110 75,21 172,13 325,-27 82,-21 141,-40 168,-54 16,-8 36,-14 45,-14 9,0 30,-7 46,-15 35,-18 78,-12 154,21 29,13 70,28 90,34 332,97 477,87 663,-47 27,-19 54,-44 60,-54 15,-29 32,-23 26,9 -20,90 -20,95 -6,90 8,-3 19,-33 27,-74 7,-38 26,-134 42,-214 28,-137 55,-300 80,-470 5,-41 19,-131 30,-200 21,-129 24,-256 12,-371 -4,-37 -5,-134 -1,-216 11,-244 46,-396 179,-778 80,-231 83,-271 27,-355 -62,-91 -76,-149 -88,-355 -5,-93 -12,-223 -15,-287 -4,-75 -3,-118 3,-118 21,0 45,41 53,92 18,107 31,155 72,261 46,118 59,124 65,30 13,-203 2,-297 -46,-377 -10,-17 -16,-38 -14,-48 3,-11 -5,-18 -26,-23 -17,-4 -40,-18 -51,-32 -20,-26 -36,-70 -28,-78 2,-2 31,6 63,20 57,23 113,78 115,111 0,6 22,45 49,85 54,83 50,62 70,344 14,203 41,495 46,515 3,8 14,175 26,370 16,267 19,405 15,557 -8,236 -29,450 -50,510 -16,45 -51,210 -60,283 -18,139 -26,301 -31,605 -8,491 -25,668 -76,799 -46,115 -107,162 -264,201 -136,34 -300,87 -383,126 -35,16 -66,29 -69,29 -6,0 -164,79 -213,107 -207,118 -203,113 -208,257 l -4,114 -63,-44 c -78,-55 -131,-74 -204,-74 -46,0 -69,7 -131,41 -41,22 -89,54 -106,70 -17,16 -33,27 -36,24 z m 49,-633 c 69,-9 123,-32 123,-52 0,-15 -26,-12 -39,4 -18,22 -237,41 -474,41 -182,0 -215,2 -200,13 14,11 70,12 268,8 138,-3 282,-9 322,-14 z m 1042,3 c 7,-7 -61,-10 -202,-10 -254,-1 -427,-17 -476,-46 -39,-23 -52,-18 -26,11 39,43 167,59 467,57 136,-1 231,-6 237,-12 z M 2978,7648 c 38,-57 92,-173 92,-199 0,-11 5,-29 11,-41 6,-11 8,-22 5,-25 -10,-11 -36,19 -36,42 0,13 -26,74 -57,137 -32,62 -59,116 -61,121 -2,4 1,7 7,7 5,0 23,-19 39,-42 z m 2892,37 c 0,-5 -62,-140 -90,-195 -10,-19 -23,-54 -29,-77 -11,-40 -31,-59 -31,-30 0,59 114,307 141,307 5,0 9,-2 9,-5 z M 3230,7585 c 0,-8 -4,-15 -9,-15 -6,0 -22,-11 -37,-25 -50,-47 -61,-28 -12,22 34,35 58,43 58,18 z m 2373,4 c 28,-15 67,-50 67,-61 0,-16 -30,-7 -56,17 -15,14 -31,25 -35,25 -5,0 -9,7 -9,15 0,18 5,18 33,4 z"
         id="path7"
         inkscape:label="shoulders_arms_hands_neck"
         style="display:inline" /></g></g><!-- measurement_calf_right --><!-- measurement_mid_thigh_left --><!-- measurement_mid_thigh_right --><!-- measurement_waist --><!-- measurement_bicep_left --><!-- measurement_bicep_right --><!-- measurement_chest --><!-- measurement_neck --><g
     id="g47"
     inkscape:label="measurement_points"
     style="display:none"><circle
       cx="491.5"
       cy="1012"
       r="11.5"
       fill="#bd0100"
       opacity="0.9"
       id="circle39"
       inkscape:label="measurement_calf_left" /><circle
       cx="389.29999"
       cy="1012.3"
       r="11.5"
       fill="#bd0100"
       opacity="0.9"
       id="circle40"
       inkscape:label="measurement_calf_right" /><circle
       cx="498.29999"
       cy="778.90002"
       r="11.5"
       fill="#bd0100"
       opacity="0.9"
       id="circle41"
       inkscape:label="measurement_mid_thigh_left" /><circle
       cx="382.10001"
       cy="778.70001"
       r="11.5"
       fill="#bd0100"
       opacity="0.9"
       id="circle42"
       inkscape:label="measurement_mid_thigh_right" /><circle
       cx="358.70001"
       cy="501.70001"
       r="11.5"
       fill="#bd0100"
       opacity="0.9"
       id="circle43"
       inkscape:label="measurement_waist" /><circle
       cx="565"
       cy="421"
       r="11.5"
       fill="#bd0100"
       opacity="0.9"
       id="circle44"
       inkscape:label="measurement_bicep_left" /><circle
       cx="314.60001"
       cy="421"
       r="11.5"
       fill="#bd0100"
       opacity="0.9"
       id="circle45"
       inkscape:label="measurement_bicep_right" /><circle
       cx="489.29999"
       cy="386.70001"
       r="11.5"
       fill="#bd0100"
       opacity="0.9"
       id="circle46"
       inkscape:label="measurement_chest" /><circle
       cx="420.29999"
       cy="260"
       r="11.5"
       fill="#bd0100"
       opacity="0.9"
       id="circle47"
       inkscape:label="measurement_neck" /></g></svg>
