<?xml version="1.0" encoding="UTF-8" standalone="no"?>
<svg
   width="862"
   height="1248"
   viewBox="0 0 862 1248"
   version="1.1"
   id="svg76"
   sodipodi:docname="female_skinfold2.svg"
   xml:space="preserve"
   xmlns:inkscape="http://www.inkscape.org/namespaces/inkscape"
   xmlns:sodipodi="http://sodipodi.sourceforge.net/DTD/sodipodi-0.dtd"
   xmlns="http://www.w3.org/2000/svg"
   xmlns:svg="http://www.w3.org/2000/svg"><defs
     id="defs76" /><sodipodi:namedview
     id="namedview76"
     pagecolor="#505050"
     bordercolor="#eeeeee"
     borderopacity="1"
     inkscape:showpageshadow="0"
     inkscape:pageopacity="0"
     inkscape:pagecheckerboard="0"
     inkscape:deskcolor="#505050"><inkscape:page
       x="0"
       y="0"
       width="862"
       height="1248"
       id="page2"
       margin="0"
       bleed="0" /></sodipodi:namedview><rect
     width="862"
     height="1248"
     fill="#ffffff"
     id="rect1"
     inkscape:label="background"
     x="0"
     y="0" /><g
     id="g77"
     inkscape:label="mask"
     style="display:inline"><path
       d="m 3420,8525 c -1,-5 -1,-37 0,-70 1,-60 -26,-253 -55,-395 -9,-41 -17,-82 -19,-90 -1,-8 -5,-22 -8,-30 -3,-8 -11,-46 -17,-85 -6,-38 -18,-110 -27,-160 -27,-151 -19,-203 62,-410 136,-344 158,-433 174,-700 4,-77 18,-192 29,-255 33,-175 53,-431 55,-672 l 1,-218 h 23 c 13,0 22,6 22,15 0,8 -5,15 -10,15 -6,0 -3,14 6,32 13,24 17,69 20,197 6,224 31,331 97,414 18,24 22,41 21,100 0,60 -10,100 -57,237 -122,360 -146,453 -172,660 -18,138 -19,224 -3,396 12,142 15,114 -52,549 -45,298 -71,449 -81,465 -4,8 -9,11 -9,5 z"
       id="path13"
       inkscape:label="mask_right_of_torso"
       transform="matrix(0.1,0,0,-0.1,0,1248)" /><path
       d="M 0,6240 V 0 h 4310 4310 v 6240 6240 H 4310 0 Z m 2592,5461 c 65,-13 117,-31 173,-61 104,-56 119,-68 188,-147 112,-130 169,-298 167,-488 -1,-55 2,-124 6,-154 5,-45 2,-65 -22,-125 -44,-114 -66,-150 -101,-166 -18,-8 -33,-18 -33,-22 0,-3 -14,-44 -32,-89 -20,-53 -45,-98 -70,-125 -21,-23 -38,-45 -38,-49 0,-5 12,-38 26,-74 37,-91 64,-204 64,-266 0,-41 5,-56 23,-72 24,-23 158,-92 240,-124 29,-11 66,-27 82,-34 87,-41 243,-90 408,-131 75,-18 102,-33 156,-86 48,-47 80,-112 104,-209 36,-145 45,-266 52,-729 7,-418 25,-630 65,-781 57,-212 71,-338 75,-684 3,-254 -11,-543 -45,-890 -20,-200 -25,-263 -54,-610 l -12,-150 -47,-69 c -26,-37 -47,-72 -47,-77 0,-5 -16,-34 -36,-63 -28,-42 -43,-55 -69,-60 -18,-4 -45,-16 -60,-28 l -27,-21 -21,21 c -19,20 -20,25 -8,57 7,19 10,38 8,42 -3,5 -28,6 -56,5 l -51,-4 v -61 c -1,-120 -62,-659 -101,-892 -27,-164 -76,-427 -94,-500 -40,-170 -65,-287 -74,-352 -14,-92 -13,-293 2,-663 16,-363 6,-527 -57,-992 -30,-214 -48,-393 -52,-498 -1,-41 -5,-139 -9,-218 -5,-128 -4,-147 14,-187 11,-25 32,-57 48,-71 27,-26 139,-103 193,-133 68,-38 176,-91 185,-91 6,0 28,-9 50,-20 100,-48 161,-70 199,-70 23,0 47,-5 54,-12 18,-18 14,-56 -6,-67 -11,-6 -236,-8 -608,-4 -643,6 -621,4 -667,64 -36,49 -33,102 13,238 39,118 41,128 35,205 -5,62 -3,92 9,128 14,41 15,68 6,210 -12,195 -32,322 -91,563 -19,80 -51,253 -70,385 -38,249 -29,623 20,925 6,39 23,140 37,225 55,332 57,227 -21,975 -21,202 -43,394 -60,520 -19,144 -31,251 -51,470 -9,99 -19,193 -23,209 -4,18 -15,-59 -30,-215 -12,-134 -29,-293 -37,-354 -7,-60 -25,-218 -39,-350 -14,-132 -32,-285 -40,-340 -8,-55 -24,-223 -36,-373 -21,-260 -21,-277 -5,-360 40,-216 90,-604 105,-830 12,-188 -7,-511 -38,-632 -5,-19 -17,-73 -26,-120 -9,-47 -27,-132 -40,-190 -82,-360 -105,-594 -70,-727 13,-48 14,-68 4,-120 -12,-60 -11,-64 26,-170 30,-85 39,-123 39,-180 1,-63 -2,-75 -24,-98 -50,-54 -34,-52 -667,-58 -552,-5 -593,-4 -607,12 -21,23 -20,50 2,57 9,3 25,10 35,15 10,6 27,7 37,4 11,-3 40,3 66,14 26,12 51,21 56,21 6,0 72,30 147,67 209,103 340,191 381,258 18,29 20,49 20,187 0,169 -12,345 -35,533 -94,754 -97,796 -75,1389 13,348 7,460 -34,623 -24,93 -70,323 -115,568 -19,101 -57,371 -97,685 -8,69 -18,187 -21,263 l -6,137 h -48 c -26,0 -56,3 -66,7 -17,7 -17,6 0,-20 21,-32 21,-65 2,-91 -14,-18 -16,-18 -33,-3 -9,9 -44,26 -76,38 -45,17 -62,30 -73,53 -27,58 -58,112 -89,157 -34,48 -41,80 -49,234 -5,85 -37,448 -51,580 -50,457 -57,1156 -15,1375 11,58 29,137 41,175 38,131 59,344 70,702 13,447 18,531 40,681 29,195 65,284 147,370 54,55 63,60 123,72 36,6 76,15 90,20 14,4 54,15 90,25 36,9 92,27 125,40 33,13 71,27 85,31 38,10 279,129 332,163 36,23 50,39 59,70 14,48 34,56 24,10 -8,-35 -6,-35 47,1 43,29 48,49 48,192 0,89 -2,99 -25,125 l -24,28 -1,-38 c 0,-21 -9,-75 -21,-120 -11,-44 -18,-90 -15,-101 3,-12 1,-27 -3,-35 -14,-23 -97,74 -111,129 -14,54 -41,414 -40,523 1,68 -1,77 -17,77 -16,0 -18,8 -15,59 3,53 1,60 -22,79 -29,23 -33,32 -11,32 23,0 45,-42 54,-106 l 9,-59 v 50 c 0,75 -10,106 -40,128 -27,20 -28,20 -48,2 -11,-10 -20,-29 -20,-42 0,-32 21,-116 31,-128 5,-5 9,-16 9,-25 0,-9 14,-38 31,-64 29,-46 33,-66 10,-51 -42,26 -108,212 -96,274 7,40 7,55 4,191 -5,187 57,337 196,475 101,100 184,146 315,174 121,25 147,25 262,2 z m 3700,-6 c 173,-36 349,-175 426,-337 64,-134 72,-172 72,-349 0,-160 -4,-183 -45,-243 -10,-16 -20,-36 -20,-45 -1,-9 -2,-33 -3,-53 -2,-35 -16,-58 -48,-76 -11,-6 -19,-43 -29,-132 -7,-69 -11,-129 -8,-134 3,-5 7,-56 9,-114 3,-81 11,-130 35,-211 50,-171 50,-170 -8,-125 -53,41 -67,89 -94,334 -6,52 -12,96 -14,98 -2,2 -16,-7 -31,-21 l -27,-25 21,-49 c 19,-46 52,-190 66,-293 4,-25 10,-50 14,-56 12,-18 325,-167 377,-180 17,-4 35,-10 40,-14 15,-11 128,-46 225,-70 171,-42 191,-50 243,-98 56,-53 91,-122 113,-222 37,-171 44,-265 54,-726 6,-258 15,-505 20,-549 12,-101 44,-271 60,-309 70,-181 79,-840 19,-1410 -11,-105 -22,-225 -24,-266 -2,-41 -9,-118 -14,-170 -6,-52 -16,-167 -22,-254 -11,-158 -16,-179 -55,-226 -11,-14 -42,-61 -68,-106 -45,-77 -51,-82 -113,-109 -58,-25 -66,-26 -80,-13 -13,13 -13,26 -4,79 5,35 13,75 17,88 6,22 5,22 -15,11 -13,-6 -30,-9 -38,-5 -14,5 -15,21 -8,133 4,70 9,192 10,272 4,194 37,324 103,402 22,27 32,88 21,138 -6,25 -28,95 -49,155 -148,420 -211,722 -196,950 4,55 9,138 12,185 4,64 -2,141 -26,315 -17,127 -33,237 -36,246 -7,24 -55,285 -63,344 -9,63 -18,42 -25,-60 -7,-103 -22,-212 -41,-300 -71,-336 -95,-470 -95,-540 0,-49 41,-179 108,-340 27,-66 51,-131 54,-145 3,-14 17,-65 31,-115 39,-137 59,-268 61,-385 1,-64 12,-159 28,-245 15,-77 31,-203 37,-281 16,-201 13,-725 -4,-954 -15,-205 -58,-590 -75,-675 -5,-27 -17,-97 -25,-155 -28,-181 -57,-329 -116,-595 -66,-299 -68,-357 -39,-925 14,-258 3,-454 -47,-830 -48,-372 -64,-541 -70,-760 -6,-223 -5,-238 15,-282 34,-78 218,-201 457,-303 17,-7 56,-25 89,-39 32,-14 72,-26 90,-27 48,-2 94,-18 100,-36 4,-9 0,-26 -9,-39 l -15,-24 -598,6 c -562,6 -599,8 -628,25 -42,25 -63,59 -70,113 -5,36 1,65 35,159 39,108 41,122 40,214 -1,54 4,111 10,126 7,19 9,79 6,180 -6,175 -10,202 -59,432 -92,423 -120,599 -132,805 -11,197 32,632 101,1005 28,157 28,199 -4,545 -18,184 -36,360 -42,390 -8,47 -50,405 -65,565 -5,52 -31,278 -38,330 -3,17 -8,67 -12,113 -4,45 -10,82 -15,82 -9,0 -14,-34 -29,-205 -12,-128 -28,-287 -35,-345 -12,-90 -68,-595 -85,-760 -11,-102 -25,-239 -32,-305 -18,-167 -15,-301 10,-425 11,-58 26,-145 32,-194 6,-50 13,-93 15,-96 2,-4 14,-101 27,-216 42,-387 28,-648 -53,-1034 -22,-107 -49,-238 -59,-290 -10,-52 -21,-102 -24,-110 -9,-25 -36,-298 -36,-366 0,-34 5,-75 11,-91 7,-16 11,-76 11,-138 -1,-103 1,-116 36,-210 55,-153 48,-227 -29,-274 -27,-16 -77,-18 -630,-25 -454,-5 -604,-4 -615,5 -37,30 3,79 65,79 47,0 294,105 430,182 20,12 45,26 56,32 12,6 53,35 92,64 107,79 107,80 99,351 -4,124 -9,244 -11,266 -11,128 -47,452 -50,465 -5,17 -27,223 -46,425 -8,86 -10,209 -5,370 20,726 20,706 1,815 -9,57 -21,114 -26,127 -19,50 -122,572 -144,728 -8,61 -22,155 -30,209 -18,122 -50,412 -66,601 -7,77 -12,291 -12,475 -1,347 15,577 50,735 9,39 19,133 23,210 8,154 49,412 82,515 31,99 48,150 70,205 11,28 33,91 49,140 28,84 30,98 25,200 -2,61 -11,148 -20,195 -9,47 -24,132 -35,190 -11,58 -26,143 -35,190 -9,47 -19,143 -22,214 -4,72 -10,121 -14,110 -9,-24 -61,-338 -97,-584 -24,-168 -27,-214 -28,-510 -1,-289 -3,-337 -23,-435 -29,-150 -60,-259 -133,-465 -33,-96 -66,-193 -71,-215 -17,-65 -13,-129 10,-166 81,-129 99,-216 107,-504 3,-121 8,-233 11,-250 6,-38 -7,-57 -40,-58 -27,-2 -35,-24 -16,-43 11,-11 21,-109 13,-130 -8,-21 -32,-17 -103,19 -59,29 -68,38 -107,107 -23,41 -47,76 -53,78 -5,2 -10,11 -10,19 0,9 -11,30 -23,47 -21,28 -25,45 -30,171 -7,136 -11,192 -42,510 -41,430 -48,559 -49,910 -1,392 8,522 48,675 67,255 79,384 96,975 5,187 14,367 19,400 5,33 15,93 21,133 16,111 68,233 125,298 52,58 77,70 215,102 106,25 225,59 248,71 28,15 105,48 132,56 29,9 168,78 252,124 57,32 57,32 63,89 4,31 18,109 31,172 13,63 24,120 24,127 0,6 -22,37 -49,67 -52,60 -84,134 -99,228 -7,44 -15,63 -35,79 -15,11 -27,30 -27,42 -1,35 -24,107 -54,172 -26,53 -27,63 -16,93 10,28 10,36 0,42 -19,12 -16,159 5,255 31,141 134,298 258,390 65,48 169,92 257,109 93,17 159,15 272,-9 z"
       id="path1"
       style="display:inline"
       inkscape:label="mask_bg"
       transform="matrix(0.1,0,0,-0.1,0,1248)" /><path
       d="m 1510,8482 c 0,-16 -4,-53 -10,-83 -22,-119 -70,-423 -91,-569 -24,-171 -25,-217 -14,-460 6,-132 4,-190 -9,-290 -19,-139 -82,-397 -117,-475 -22,-52 -108,-329 -114,-370 -8,-51 3,-87 48,-153 49,-73 67,-158 72,-332 5,-177 12,-239 28,-259 7,-8 17,-26 24,-40 9,-22 12,-3 12,109 2,312 43,771 80,896 5,18 8,63 7,100 -3,85 24,304 53,419 32,133 60.0343,203.1487 95,306 37.9022,111.489 63.9209,210.7506 65.511,259 0.4941,14.9919 8.489,133 -49.511,445 -48,264 -77,495 -64,516 3,5 0,9 -5,9 -6,0 -11,-13 -11,-28 z"
       id="path14"
       sodipodi:nodetypes="sccccccccccccccssccss"
       inkscape:label="mask_right_of_torso"
       transform="matrix(0.1,0,0,-0.1,0,1248)" /></g><!-- Traced line-art (potrace) --><g
     transform="matrix(0.1,0,0,-0.1,0,1248)"
     fill="#000000"
     stroke="none"
     id="g62"
     inkscape:label="body"><g
       id="g79"
       inkscape:label="front_view"
       style="display:inline"><g
         id="g90"
         inkscape:label="bottom_half"
         style="display:inline"><path
           d="m 1440,6453 c 0,-5 -9,-62 -19,-128 -64,-403 -70,-906 -17,-1435 25,-241 73,-589 106,-755 11,-55 31,-163 45,-240 15,-77 42,-205 61,-285 31,-126 36,-167 41,-315 3,-93 0,-316 -7,-494 -17,-412 -11,-506 86,-1256 22,-174 37,-636 21,-673 -16,-38 -53,-81 -102,-117 -22,-16 -42,-32 -45,-36 -23,-26 -250,-144 -322,-168 -21,-7 -38,-15 -38,-18 0,-3 47,-2 105,2 75,5 105,4 105,-4 0,-7 -20,-11 -51,-11 -86,0 -113,-30 -63,-69 30,-23 112,-29 132,-9 8,8 15,8 26,-1 11,-9 99,-11 353,-9 333,3 338,3 370,26 38,27 57,77 47,129 -4,21 -22,79 -40,130 -31,86 -33,100 -31,205 1,80 -2,120 -12,137 -28,49 10,424 66,646 14,59 37,168 66,315 8,41 20,116 27,165 6,50 15,111 19,136 15,91 4,456 -18,634 -39,317 -78,582 -88,598 -16,26 12,420 57,792 5,44 17,150 26,235 18,172 28,256 43,375 5,44 15,123 20,175 6,52 21,192 34,310 27,247 25,362 -7,368 -17,4 -229,132 -334,203 -23,16 -45,29 -48,29 -3,0 -38,22 -77,48 -40,27 -95,63 -123,81 -28,17 -60,41 -70,52 -10,12 -35,32 -54,46 -19,13 -53,37 -75,53 -22,17 -58,40 -80,51 -22,12 -59,37 -82,55 -42,35 -53,40 -53,27 z m 566,-2861 c -16,-49 -255,-249 -265,-221 -1,6 -1,11 0,13 42,27 206,166 230,195 36,42 45,45 35,13 z m 60,-2634 c 4,-13 20,-39 35,-59 46,-58 35,-83 -13,-31 -32,34 -61,89 -53,102 10,17 23,11 31,-12 z"
           id="path17"
           sodipodi:nodetypes="scccccccccccsscsscsscccccccccccccccccccscccccccscccccccccc"
           inkscape:label="right_leg" /><path
           d="m 3425,6404 c -38,-30 -100,-75 -138,-102 -37,-26 -82,-57 -100,-70 -17,-12 -41,-30 -51,-39 -10,-8 -46,-31 -80,-51 -69,-40 -170,-108 -200,-134 -11,-10 -25,-18 -30,-18 -6,0 -33,-16 -60,-35 -27,-19 -53,-35 -58,-35 -4,0 -29,-15 -55,-34 -52,-36 -91,-58 -139,-77 -35,-14 -33,10 -14,-239 6,-74 15,-157 20,-185 5,-27 14,-108 21,-180 15,-179 53,-508 73,-655 11,-76 64,-577 86,-818 6,-62 8,-117 6,-121 -3,-5 -12,-51 -20,-102 -9,-52 -27,-166 -41,-254 -52,-327 -59,-398 -59,-685 -1,-184 3,-302 12,-355 21,-127 61,-331 87,-440 13,-55 27,-118 31,-140 4,-22 8,-47 10,-55 37,-191 45,-394 27,-665 -8,-119 -14,-153 -41,-224 -36,-95 -41,-158 -15,-202 34,-57 48,-59 427,-59 317,0 387,5 324,25 -14,4 -18,8 -11,11 7,3 26,-4 42,-15 46,-33 102,-28 140,11 17,17 31,35 31,39 0,9 -54,19 -106,19 -23,0 -46,5 -49,10 -11,17 121,12 160,-7 l 35,-17 -37,-38 -37,-38 h 56 c 37,0 60,5 68,15 7,8 17,15 22,15 6,0 5,-7 -2,-15 -19,-23 36,-20 67,4 l 24,20 -32,16 c -26,14 -33,14 -40,4 -11,-18 -81,14 -74,34 4,8 -8,18 -32,26 -64,22 -245,115 -303,156 -102,71 -126,93 -154,146 -28,50 -29,57 -27,178 3,182 17,376 46,621 91,763 89,721 70,1220 -8,229 -13,440 -10,470 10,110 16,146 35,225 82,353 130,608 171,910 96,718 114,1182 64,1640 -20,185 -47,338 -60,341 -5,2 -41,-22 -80,-52 z M 2985,3580 c 11,-17 68,-70 127,-117 59,-48 106,-88 104,-91 -23,-22 -276,196 -276,237 0,18 24,2 45,-29 z M 2920,965 c 0,-15 -40,-82 -58,-98 -32,-29 -48,-10 -19,22 13,14 32,38 42,54 15,24 35,36 35,22 z"
           id="path20"
           sodipodi:nodetypes="ccccccssscccccccccccccsccccscsccsscccccscscccccccccccccccccccccscsccss"
           inkscape:label="left_leg" /><g
           id="g86"
           inkscape:label="floating_toes"><g
             id="g94"
             inkscape:label="left"><path
               d="m 3864,461 c -48,-29 -53,-45 -13,-36 41,9 52,18 47,39 -3,14 -6,14 -34,-3 z"
               id="path37"
               inkscape:label="left_toe_2" /><path
               d="m 3915,450 c -8,-26 -1,-35 20,-26 18,7 17,37 -2,43 -6,2 -14,-5 -18,-17 z"
               id="path38"
               inkscape:label="left_toe_1" /></g><g
             id="g95"
             inkscape:label="right"
             style="display:inline"><path
               d="m 1243,508 c -26,-7 -33,-14 -33,-33 0,-28 18,-40 78,-49 47,-7 50,-4 23,30 -11,13 -17,32 -14,42 5,21 -6,23 -54,10 z"
               id="path34"
               inkscape:label="right_toe_4"
               style="display:inline" /><path
               d="m 1152,485 -34,-23 24,-15 c 30,-19 68,-31 68,-20 0,4 -7,16 -14,26 -8,10 -12,27 -9,37 7,25 6,24 -35,-5 z"
               id="path35"
               inkscape:label="right_toe_3"
               style="display:inline" /><path
               d="m 1058,473 c -24,-6 -22,-20 5,-37 24,-16 77,-31 77,-23 0,6 -60,68 -63,66 -1,-1 -10,-3 -19,-6 z"
               id="path36"
               inkscape:label="right_toe_2"
               style="display:inline" /><path
               d="m 1004,444 c 3,-9 6,-18 6,-20 0,-2 6,-4 14,-4 9,0 12,7 9,20 -3,11 -12,20 -20,20 -10,0 -13,-6 -9,-16 z"
               id="path39"
               inkscape:label="right_toe_1"
               style="display:inline" /></g></g><g
           id="g91"
           inkscape:label="underware"><path
             d="m 1870,6180 c 14,-11 30,-20 35,-20 6,0 -1,9 -15,20 -14,11 -29,20 -35,20 -5,0 1,-9 15,-20 z"
             id="path23"
             inkscape:label="underware_artifact_2" /><path
             d="m 1940,6142 c 0,-11 130,-95 137,-88 3,2 -15,17 -39,32 -23,15 -55,35 -70,46 -16,11 -28,15 -28,10 z"
             id="path24"
             inkscape:label="underware_artifact_1" /><path
             d="m 1450,6572 v -78 l 46,-42 c 26,-23 51,-39 56,-36 5,3 16,0 24,-7 9,-7 22,-14 28,-15 7,-1 25,-13 41,-28 15,-14 33,-26 39,-26 6,0 31,-18 56,-40 25,-22 51,-40 58,-40 6,0 12,-4 12,-10 0,-5 5,-10 11,-10 6,0 30,-13 54,-30 24,-16 47,-30 51,-30 4,0 46,-26 93,-57 47,-32 94,-61 104,-65 10,-4 15,-13 12,-19 -5,-8 -10,-8 -18,0 -6,6 -16,11 -21,11 -6,0 6,-11 26,-25 20,-14 40,-25 43,-25 4,0 25,-13 48,-29 74,-51 154,-101 161,-101 5,0 19,-9 33,-20 39,-31 97,-26 163,13 105,62 160,100 160,111 0,22 186,131 194,113 3,-7 5,-6 5,3 1,8 25,31 54,50 28,19 62,43 74,53 14,12 29,17 42,12 15,-5 19,-3 16,8 -4,8 10,24 37,42 24,16 53,38 66,49 12,11 22,14 22,8 0,-6 26,7 58,29 230,162 214,144 210,232 l -3,72 -1027,3 -1028,2 z"
             id="path16"
             inkscape:label="underware_main" /></g></g><g
         id="g89"
         inkscape:label="top_half"><path
           d="m 2206,10145 c 7,-95 -8,-194 -33,-213 -75,-56 -343,-212 -364,-212 -4,0 -41,-15 -81,-34 -95,-44 -171,-72 -233,-87 -27,-7 -54,-15 -60,-19 -5,-4 -37,-12 -70,-19 -163,-34 -174,-41 -232,-131 -86,-133 -117,-314 -128,-745 -13,-544 -37,-809 -89,-981 -51,-170 -71,-421 -63,-774 7,-270 11,-328 57,-835 17,-176 35,-396 40,-489 10,-152 13,-171 34,-200 13,-17 38,-57 56,-88 17,-32 36,-58 41,-58 5,0 9,-11 9,-25 0,-15 6,-25 14,-25 8,0 34,-11 57,-25 51,-29 67,-31 75,-10 10,24 -42,95 -69,95 -18,0 -25,10 -41,60 -10,32 -29,79 -42,104 -18,35 -24,61 -24,112 0,91 21,245 34,241 15,-5 85,-188 86,-223 0,-17 7,-51 15,-74 8,-23 15,-54 15,-69 0,-37 54,-100 71,-84 9,9 9,18 0,40 -6,16 -14,62 -16,103 -20,382 -26,450 -39,492 -13,41 -40,94 -56,108 -3,3 -14,25 -25,50 -32,71 -27,102 52,340 14,41 29,84 33,95 57,135 111,358 136,556 14,118 15,154 4,301 -11,148 -10,244 6,358 25,185 37,262 59,378 14,75 44,238 66,362 48,263 46,253 59,245 6,-4 8,-15 5,-25 -12,-37 -14,-60 -5,-60 4,0 28,18 52,40 53,49 136,93 208,110 96,23 299,-5 460,-65 25,-9 59,-20 75,-25 17,-4 45,-14 62,-21 37,-15 44,-13 209,45 315,112 518,101 689,-38 27,-23 58,-50 68,-61 18,-20 18,-19 13,20 -3,22 -8,50 -12,63 -4,16 -2,22 9,22 10,0 18,-19 26,-67 7,-38 24,-122 38,-188 14,-66 29,-142 33,-170 5,-27 18,-111 30,-185 12,-74 25,-166 30,-205 5,-38 16,-110 24,-160 19,-111 21,-182 11,-405 -14,-311 22,-503 176,-935 45,-127 69,-215 69,-253 0,-15 -11,-48 -24,-72 -87,-159 -94,-186 -106,-395 -5,-93 -13,-220 -16,-281 -5,-74 -3,-113 4,-118 17,-10 52,44 52,81 0,18 7,50 15,70 8,19 15,46 15,60 0,25 56,181 71,198 5,5 9,18 9,28 0,16 3,17 15,7 8,-7 14,-26 14,-44 -1,-17 2,-74 6,-126 7,-83 5,-104 -14,-168 -13,-41 -31,-87 -41,-104 -10,-16 -15,-39 -12,-50 3,-13 0,-19 -9,-16 -26,5 -76,-34 -88,-69 -18,-47 -4,-57 44,-33 22,11 44,20 51,20 16,0 55,53 88,120 15,30 35,64 45,75 40,45 49,88 61,280 13,209 18,269 48,580 44,439 54,884 27,1181 -15,172 -17,185 -46,282 -19,64 -52,256 -64,367 -3,33 -10,265 -15,515 -9,487 -22,624 -72,758 -39,107 -132,193 -222,205 -54,8 -258,68 -341,100 -91,36 -239,99 -250,107 -5,4 -41,24 -80,44 -113,59 -207,119 -226,146 -14,19 -20,51 -23,135 -3,61 -6,111 -6,112 0,2 -21,-13 -46,-32 -127,-98 -228,-112 -343,-49 -84,45 -90,50 -122,80 l -30,29 z m -22,-561 c 140,-15 186,-30 186,-59 0,-20 -5,-19 -38,4 -37,27 -301,49 -524,44 -93,-2 -168,-1 -168,2 0,28 331,34 544,9 z m 1100,-1 c 14,-8 -42,-11 -203,-11 -252,-1 -408,-16 -463,-43 -40,-20 -50,-13 -20,13 25,23 83,37 192,47 125,12 470,8 494,-6 z M 1053,7648 c 43,-68 84,-155 90,-193 3,-16 8,-38 13,-49 5,-14 3,-17 -7,-14 -7,2 -24,34 -36,71 -13,36 -44,105 -69,152 -50,94 -44,115 9,33 z m 2887,40 c 0,-7 -9,-26 -20,-43 -11,-16 -20,-38 -20,-47 0,-10 -4,-18 -9,-18 -5,0 -12,-14 -16,-31 -4,-17 -15,-46 -25,-63 -10,-17 -23,-50 -30,-73 -6,-24 -15,-43 -20,-43 -13,0 -13,4 7,74 9,34 22,68 30,77 7,8 13,21 13,29 0,7 17,44 37,81 35,65 53,84 53,57 z M 1269,7560 c -31,-27 -59,-38 -59,-25 0,9 43,50 65,63 34,19 30,-8 -6,-38 z m 2432,17 c 32,-21 51,-57 32,-57 -5,0 -25,14 -43,30 -18,17 -37,30 -42,30 -4,0 -8,5 -8,10 0,17 25,11 61,-13 z"
           id="path6"
           sodipodi:nodetypes="ccsccccccccccccsssccsccsccsscccccccccccccccsccccccccccscscsccccsccccscscsccccccccsscccccccccccccccsccccccsccsccccccccccccscscsssscsccscscscccscssc"
           inkscape:label="shoulders_arms_hands_neck" /><path
           d="m 1820,8806 c -63,-18 -127,-53 -205,-111 l -67,-50 6,-180 c 4,-99 15,-227 24,-285 l 18,-105 315,-1 c 436,-1 489,-2 489,-14 0,-7 -131,-10 -400,-8 -395,3 -399,3 -395,-17 28,-132 56,-291 66,-382 6.9309,-106.3603 -3.4265,-207.6976 -49.4284,-303.5716 C 1613.3586,7332.3244 1596,7269 1576,7213 c -48,-132 -81,-261 -106,-409 -11,-66 -20,-122 -20,-126 0,-5 462,-8 1026,-8 h 1027 l -7,63 c -15,128 -68,307 -159,532 -80,196 -87,232 -77,347 11,120 41,283 76,416 l 6,22 -418,1 c -295,1 -407,4 -379,11 22,5 211,10 420,11 l 380,2 7,40 c 26,133 48,314 48,402 0,93 -2,104 -24,131 -33,38 -147,113 -216,141 -134,54 -329,30 -597,-73 -104,-41 -116,-42 -157,-21 -17,9 -41,18 -55,20 -15,3 -79,23 -145,45 -109,37 -238,61 -311,59 -16,0 -50,-7 -75,-13 z m 389,-627 c -13,-10 -28,-19 -33,-19 -4,0 -31,-11 -58,-25 -122,-61 -360,-53 -448,15 -25,19 -25,20 -3,20 12,0 25,-4 28,-10 3,-5 14,-10 23,-10 9,0 29,-6 43,-14 41,-21 122,-27 212,-16 78,9 124,25 207,70 41,22 62,15 29,-11 z m 611,-18 c 93,-40 149,-53 225,-52 96,1 164,20 229,63 32,21 61,36 64,33 11,-11 -33,-45 -102,-79 -67,-33 -80,-36 -167,-37 -52,-1 -116,4 -143,10 -90,21 -221,85 -210,102 4,6 10,6 17,1 7,-6 46,-24 87,-41 z m -116,-60 c 8,-13 -276,-24 -404,-16 -60,4 -107,11 -104,16 7,12 501,12 508,0 z m -244,-540 c 0,-176 -4,-282 -10,-286 -7,-4 -10,92 -10,279 0,184 4,286 10,286 6,0 10,-100 10,-279 z m 20,-518 c 0,-47 -3,-64 -12,-61 -8,3 -14,29 -16,71 -2,57 -1,66 13,61 11,-5 15,-22 15,-71 z"
           id="path11"
           sodipodi:nodetypes="cccccccscccsccsscccccccccccscccccccccsccscscccccccsccccccccccscsssscccs"
           inkscape:label="chest_torso" /><g
           id="g87"
           inkscape:label="floating_fingers"><g
             id="g93"
             inkscape:label="right"
             style="display:inline"><path
               d="m 1099,5728 c -4,-12 -9,-57 -9,-76 0,-31 63,-108 69,-84 2,9 -4,30 -12,47 -9,16 -21,49 -27,73 -9,35 -17,51 -21,40 z"
               id="path25"
               inkscape:label="right_finger_2_top" /><path
               d="m 1080,5575 c 0,-36 22,-74 69,-120 43,-41 47,-40 32,11 -9,33 -80,134 -93,134 -4,0 -8,-11 -8,-25 z"
               id="path27"
               inkscape:label="right_finger_2_mid" /><path
               d="m 1080,5495 c 0,-19 89,-191 108,-208 15,-13 41,-20 97,-23 l 76,-4 -22,31 c -18,26 -26,30 -51,25 -33,-6 -35,-5 -146,119 -34,38 -62,65 -62,60 z"
               id="path29"
               inkscape:label="right_finger_2_bottom" /><path
               d="m 1290,5418 c 0,-17 50,-98 60,-98 21,0 8,49 -20,79 -33,34 -40,37 -40,19 z"
               id="path31"
               inkscape:label="right_finger_1" /></g><g
             id="g92"
             inkscape:label="left"><path
               d="m 3614,5408 c -7,-10 20,-38 38,-38 4,0 8,11 8,25 0,18 -5,25 -19,25 -11,0 -23,-5 -27,-12 z"
               id="path32"
               inkscape:label="left_finger_1" /><path
               d="m 3610,5350 c 0,-23 13,-26 29,-6 9,11 8,15 -5,20 -23,9 -24,8 -24,-14 z"
               id="path33"
               inkscape:label="left_finger_2" /><path
               d="m 3804,5426 c -27,-30 -59,-68 -72,-85 -24,-32 -57,-41 -65,-18 -7,21 -58,-13 -55,-37 3,-18 11,-21 63,-24 42,-2 62,1 70,11 5,7 20,19 32,25 13,8 32,41 52,93 17,45 30,84 28,86 -2,2 -26,-21 -53,-51 z"
               id="path30"
               inkscape:label="left_finger_3_bottom" /><path
               d="m 3828,5552 c -31,-33 -68,-95 -68,-117 0,-27 97,65 106,101 13,50 0,56 -38,16 z"
               id="path28"
               inkscape:label="left_finger_3_mid" /><path
               d="m 3833,5685 c -19,-47 -43,-125 -43,-137 0,-7 16,6 36,27 35,39 36,41 27,90 l -8,50 z"
               id="path26"
               inkscape:label="left_finger_3_top" /></g></g></g><g
         id="g88"
         inkscape:label="head"
         style="display:inline"><path
           d="m 2370,11683 c -208,-36 -369,-156 -462,-344 -28,-58 -50,-119 -57,-159 -5,-36 -13,-82 -17,-102 -5,-32 -4,-38 10,-38 29,0 56,20 68,48 l 12,27 4,-24 c 5,-31 -43,-72 -74,-65 -20,5 -21,3 -13,-38 4,-24 8,-49 9,-55 0,-7 11,-13 24,-13 14,0 31,-7 40,-15 8,-8 17,-15 20,-15 3,0 6,39 6,86 0,61 3,83 11,78 9,-5 10,1 5,22 -11,44 -19,160 -11,152 20,-19 45,-205 26,-194 -34,22 -10,-669 28,-779 18,-54 20,-56 16,-20 -3,22 -9,166 -15,320 -8,227 -7,303 5,400 8,66 17,184 21,263 4,78 10,142 14,142 15,0 21,-205 10,-325 -16,-181 -25,-337 -25,-460 0,-109 1,-112 35,-169 65,-107 168,-199 303,-270 90,-47 147,-49 232,-5 111,56 229,159 288,249 23,36 77,205 77,240 0,51 24,160 35,160 6,0 17,19 25,43 11,31 21,43 39,45 16,3 22,-1 19,-10 -3,-7 -10,-13 -17,-13 -21,0 -31,-29 -31,-94 0,-52 -2,-61 -13,-52 -8,6 -12,25 -10,43 3,32 3,32 -6,5 -15,-43 -25,-177 -14,-177 19,0 42,36 76,120 42,102 51,140 42,180 -6,28 -10,30 -51,30 h -44 v -44 c 0,-25 -5,-48 -10,-51 -11,-7 -31,35 -23,48 9,16 3,161 -7,171 -6,6 -10,24 -10,41 0,58 -98,185 -179,233 l -46,27 h -215 c -133,0 -217,4 -220,10 -3,6 5,11 18,13 21,3 19,7 -27,52 -47,47 -78,106 -68,133 3,6 12,-6 22,-27 9,-22 42,-65 72,-98 l 56,-58 h 98 c 93,0 100,1 145,32 26,17 60,51 77,75 17,23 37,43 44,43 9,0 11,-5 6,-12 -5,-7 -19,-30 -31,-50 -13,-20 -39,-46 -59,-58 -19,-11 -33,-23 -30,-27 4,-3 34,-6 67,-7 51,-1 64,2 80,21 20,23 40,30 40,14 0,-5 -12,-16 -26,-26 l -26,-16 44,-28 c 42,-27 93,-78 134,-135 17,-23 30,-29 72,-34 63,-6 69,-22 8,-22 h -43 l 9,-47 c 5,-27 13,-73 16,-103 4,-30 10,-54 15,-52 4,1 23,2 42,2 h 35 v 118 c 0,66 -6,139 -14,167 -66,246 -245,421 -480,469 -73,15 -169,19 -226,9 z m -244,-255 c 13,-13 24,-28 24,-34 0,-21 48,-44 90,-44 56,0 50,-16 -12,-30 -29,-6 -77,-24 -105,-41 -39,-21 -53,-25 -53,-15 0,8 27,27 59,43 33,15 60,31 60,34 1,4 -10,9 -23,13 -12,3 -35,23 -50,44 -38,56 -34,71 10,30 z m -54,-61 c 3,-13 1,-32 -3,-43 -5,-13 -8,-7 -8,24 -1,46 4,55 11,19 z m 998,-297 c 0,-5 -7,-10 -15,-10 -8,0 -18,-1 -22,-2 -3,-2 -8,3 -10,10 -3,7 5,12 21,12 14,0 26,-4 26,-10 z m -1150,-96 c 0,-8 -7,-14 -15,-14 -15,0 -21,21 -9,33 10,9 24,-2 24,-19 z"
           id="path2"
           inkscape:label="face" /><path
           d="m 2020,10400 c 0,-56 28,-264 42,-312 l 13,-43 8,45 c 4,25 13,80 19,122 11,75 11,77 -14,110 -14,18 -35,51 -46,73 l -21,40 z"
           id="path3"
           inkscape:label="hair_artifact_4" /><path
           d="m 2770,10220 c -8,-14 -6,-39 6,-92 9,-40 18,-98 21,-128 5,-53 7,-57 54,-88 l 49,-32 v 52 c 0,55 -61,283 -80,302 -8,8 -8,3 -1,-17 6,-16 11,-49 10,-75 -1,-47 -1,-47 -9,-12 -4,19 -11,52 -14,73 -8,41 -20,47 -36,17 z"
           id="path4"
           inkscape:label="hair_artifact_3" /><path
           d="m 1980,10188 c 1,-24 7,-54 15,-68 8,-14 14,-35 15,-47 0,-12 4,-24 8,-27 5,-3 7,9 5,27 l -3,32 10,-32 c 6,-18 15,-35 20,-38 13,-8 13,-7 -6,49 -10,29 -20,43 -24,36 -4,-6 -12,16 -19,49 -7,34 -14,61 -17,61 -2,0 -4,-19 -4,-42 z"
           id="path5"
           inkscape:label="hair_artifact_2" /><path
           d="m 2763,10034 c -3,-8 -1,-25 5,-37 10,-20 11,-18 11,16 1,39 -5,48 -16,21 z"
           id="path10"
           inkscape:label="hair_artifact_1" /></g></g><g
       id="g78"
       inkscape:label="back_view"
       style="display:inline"><g
         id="g82"
         inkscape:label="bottom_half"><path
           d="m 5118,6583 c -4,-172 22,-273 104,-392 100,-146 203,-222 383,-281 39,-13 79,-27 90,-31 50,-18 213,-39 345,-44 148,-6 381,7 435,24 27,9 81,23 145,38 13,3 46,19 73,35 26,15 54,28 61,28 17,0 153,94 199,138 87,82 170,213 211,332 10,27 16,79 16,133 v 87 H 6150 5120 Z m 1592,17 c 0,-7 -215,-10 -625,-10 -410,0 -625,3 -625,10 0,7 215,10 625,10 410,0 625,-3 625,-10 z M 5380,6085 c 76,-67 173,-115 323,-160 31,-9 57,-21 57,-27 0,-6 -8,-7 -17,-3 -10,4 -43,13 -73,20 -112,25 -253,101 -333,181 -50,49 -66,84 -19,43 15,-13 43,-37 62,-54 z m 1520,27 c 0,-10 -86,-72 -100,-72 -5,0 -20,-11 -34,-24 -38,-34 -225,-128 -250,-124 -17,2 -13,7 22,26 23,12 46,22 51,22 5,0 41,19 80,43 40,23 87,50 104,61 18,10 50,31 71,47 41,30 56,35 56,21 z"
           id="path49"
           inkscape:label="underware" /><path
           d="m 7174,6393 c -13,-69 -111,-221 -195,-304 -173,-169 -470,-279 -751,-279 h -68 v -62 c 0,-63 15,-220 45,-478 8,-74 20,-182 25,-240 6,-58 14,-136 20,-175 5,-38 14,-110 19,-160 6,-49 22,-184 35,-300 66,-555 77,-740 51,-899 -66,-418 -80,-522 -95,-721 -23,-289 -7,-498 60,-820 22,-104 49,-237 60,-295 12,-58 25,-118 30,-135 5,-16 14,-93 20,-170 6,-77 15,-187 20,-245 13,-137 13,-193 0,-185 -5,3 -10,34 -11,68 0,52 -2,58 -10,37 -13,-32 -14,-90 -4,-156 6,-40 4,-59 -9,-84 -9,-18 -16,-39 -16,-47 0,-7 -11,-40 -25,-73 -32,-75 -33,-147 -4,-184 44,-56 37,-55 550,-57 261,-1 520,-3 576,-4 55,-1 107,1 113,5 26,16 2,37 -47,42 -132,13 -516,207 -630,318 -64,63 -68,83 -65,305 3,225 12,341 48,630 72,582 76,666 60,1330 l -8,350 55,260 c 64,299 88,428 117,610 11,72 23,141 26,155 17,80 66,544 84,785 11,155 10,663 -1,780 -24,242 -51,435 -61,435 -4,0 -10,-17 -14,-37 z M 6740,3752 c 0,-4 -16,-45 -35,-91 -19,-45 -35,-89 -35,-97 0,-8 -5,-14 -10,-14 -16,0 -2,65 26,129 13,29 24,55 24,57 0,2 -65,4 -145,4 -90,0 -145,4 -145,10 0,6 60,10 160,10 88,0 160,-4 160,-8 z M 6727,960 c -6,-70 -25,-120 -44,-120 -16,0 -16,3 3,48 8,20 16,65 17,99 2,51 4,59 16,50 10,-9 12,-28 8,-77 z"
           id="path50"
           sodipodi:nodetypes="ccscsccccccccccsccccccsccccccccccccccccscscsscssssscscccc"
           inkscape:label="right_leg" /><path
           d="m 5086,6333 c -4,-37 -9,-86 -11,-108 -30,-252 -33,-340 -30,-695 2,-206 8,-413 13,-460 6,-47 16,-141 23,-210 18,-200 86,-660 123,-845 48,-237 83,-400 102,-470 23,-89 29,-365 15,-765 -13,-365 -9,-443 44,-885 47,-397 57,-504 67,-725 13,-286 9,-307 -56,-375 -23,-25 -46,-45 -51,-45 -5,0 -19,-10 -32,-22 -77,-72 -449,-245 -553,-257 -45,-5 -55,-9 -55,-25 0,-19 12,-19 475,-17 261,1 530,4 597,5 119,3 122,4 154,33 43,41 49,104 18,188 -60,166 -60,163 -53,271 5,67 3,107 -4,120 -9,16 -11,9 -12,-38 0,-60 -7,-88 -21,-88 -14,0 -10,130 6,190 8,30 15,82 15,115 0,102 19,231 70,475 78,370 81,387 100,540 32,262 20,598 -35,945 -8,50 -17,110 -20,135 -3,25 -16,92 -27,150 -18,90 -20,128 -15,260 3,85 10,189 16,230 5,41 15,129 21,195 6,66 20,190 30,275 36,293 50,415 65,565 9,83 20,184 25,225 5,41 12,107 15,145 4,39 11,86 16,105 4,19 10,104 13,188 l 4,152 h -72 c -96,0 -288,20 -303,32 -7,5 -22,11 -35,12 -70,8 -99,18 -191,59 -31,15 -64,27 -71,27 -7,0 -19,7 -27,16 -7,8 -31,25 -53,36 -90,46 -219,210 -257,328 -12,36 -25,69 -29,73 -4,4 -10,-23 -14,-60 z m 778,-2613 c -5,-5 -68,-11 -139,-12 -110,-3 -129,-5 -126,-18 2,-8 15,-59 29,-113 14,-53 23,-100 19,-103 -12,-12 -27,8 -27,36 0,16 -5,41 -11,57 -6,15 -15,44 -19,63 -5,19 -13,50 -18,68 l -11,32 h 157 c 100,0 153,-3 146,-10 z M 5550,946 c 0,-13 9,-53 20,-87 28,-90 8,-93 -27,-4 -14,37 -17,115 -3,115 6,0 10,-11 10,-24 z"
           id="path53"
           sodipodi:nodetypes="sccccccccccsccscccccccssscccscccsccsccccscccscccsssccccsccccsssccss"
           inkscape:label="left_leg" /></g><g
         id="g83"
         inkscape:label="top_half"
         style="display:inline"><g
           id="g80"
           inkscape:label="floating_fingers"
           style="display:inline"><g
             id="g85"
             inkscape:label="left"
             style="display:inline"><path
               d="m 4765,5710 c 3,-10 2,-36 -4,-56 -8,-28 -7,-43 4,-65 8,-15 15,-51 15,-78 0,-37 7,-60 26,-88 42,-62 80,-73 50,-14 -9,16 -16,38 -16,48 0,10 -7,29 -17,42 -11,17 -16,41 -14,80 1,39 -5,71 -19,104 -21,47 -37,65 -25,27 z"
               id="path56"
               inkscape:label="left_finger_2" /><path
               d="m 4785,5413 c 15,-32 25,-42 25,-24 0,5 -9,19 -20,32 l -21,24 z"
               id="path60"
               inkscape:label="left_finger_1_top" /><path
               d="m 4817,5364 c -10,-11 15,-64 40,-84 35,-27 49,-25 29,5 -9,13 -16,31 -16,38 0,16 -44,49 -53,41 z"
               id="path62"
               inkscape:label="left_finger_1_bottom" /></g><g
             id="g84"
             inkscape:label="right"
             style="display:inline"><path
               d="m 7458,5550 c -12,-38 -10,-66 3,-53 6,6 9,26 7,44 -3,32 -3,33 -10,9 z"
               id="path58"
               inkscape:label="right_finger_2_artifact" /><path
               d="m 7516,5452 c -4,-13 -5,-26 -2,-29 10,-11 18,4 14,29 l -4,23 z"
               id="path59"
               inkscape:label="right_finger_1_top" /><path
               d="m 7504,5666 c -16,-36 -20,-63 -17,-94 4,-35 -1,-56 -26,-105 -57,-115 -52,-157 7,-66 51,77 63,123 60,226 l -3,91 z"
               id="path57"
               inkscape:label="right_finger_2"
               style="display:inline" /><path
               d="m 7454,5352 c -30,-36 -52,-82 -39,-82 19,0 56,37 65,66 17,52 8,57 -26,16 z"
               id="path61"
               inkscape:label="right_finger_1_bottom"
               style="display:inline" /></g></g><path
           d="m 5670,9821 c -62,-46 -350,-179 -450,-207 -54,-15 -229,-62 -285,-75 -66,-17 -137,-94 -170,-184 -10,-27 -22,-55 -26,-60 -10,-14 -35,-173 -48,-305 -6,-58 -15,-271 -21,-475 -12,-450 -31,-624 -93,-855 -37,-136 -50,-294 -50,-620 -1,-325 10,-511 57,-965 8,-77 19,-225 25,-330 7,-104 13,-210 15,-235 3,-43 17,-70 131,-265 13,-22 41,-45 79,-65 32,-16 60,-30 62,-30 2,0 4,18 4,40 0,35 -4,43 -41,67 -41,27 -61,56 -73,107 -4,17 -16,43 -27,58 -18,24 -21,46 -22,146 -1,72 4,138 13,172 22,87 19,297 -6,394 -5,22 -4,28 7,24 26,-8 48,-183 37,-292 l -9,-95 41,-118 c 22,-65 45,-154 51,-198 11,-85 29,-125 56,-125 15,0 15,15 8,158 -5,86 -9,207 -10,267 -2,135 -22,221 -81,335 -26,50 -45,99 -45,120 -1,42 17,128 30,144 5,6 19,43 29,83 11,39 26,81 33,94 16,31 64,185 99,320 15,59 35,177 45,264 17,153 17,180 -1,395 -6,70 5,216 26,355 6,33 17,107 25,165 25,166 43,274 75,430 17,80 35,181 41,225 10,76 21,107 32,88 2,-4 1,-33 -4,-63 -4,-30 -8,-88 -8,-127 l -1,-73 h 245 244 l 28,43 c 60,89 116,242 129,349 7,64 33,115 34,67 1,-101 -76,-337 -136,-416 -13,-17 -24,-34 -24,-37 0,-3 79,-6 175,-6 110,0 175,-4 175,-10 0,-7 -152,-10 -435,-10 h -434 l 5,-97 c 5,-85 20,-195 40,-297 l 6,-29 272,6 c 149,3 324,3 389,0 230,-12 111,-23 -271,-25 l -389,-3 28,-140 c 15,-77 33,-194 40,-260 12,-117 12,-122 -13,-205 -26,-86 -61,-188 -78,-225 -41,-94 -113,-398 -124,-525 -1,-13 119,-15 1019,-17 560,-2 1022,1 1026,5 9,9 -35,225 -67,332 -42,136 -51,161 -84,235 -96,213 -107,308 -64,535 14,74 28,153 31,175 3,22 10,46 15,52 6,7 8,20 4,28 -5,13 -56,15 -395,15 -249,0 -392,4 -396,10 -7,11 -9,11 500,13 l 300,2 16,85 c 10,47 22,128 29,180 7,52 14,107 17,123 l 6,27 h -467 c -304,0 -466,3 -466,10 0,7 162,10 466,10 h 467 l -7,96 c -4,53 -12,107 -18,120 -9,18 -8,28 0,36 6,6 14,9 17,6 3,-3 19,-81 36,-174 16,-93 43,-236 59,-319 16,-82 36,-202 44,-265 9,-63 24,-164 33,-225 8,-60 15,-155 13,-210 -8,-353 -4,-469 19,-580 35,-170 87,-348 180,-618 47,-135 50,-183 16,-247 -85,-161 -103,-232 -104,-425 -1,-71 -5,-182 -10,-245 -4,-63 -5,-119 -1,-123 12,-14 38,4 43,31 3,15 10,56 16,92 15,84 39,166 61,210 36,71 42,105 30,169 -8,44 -8,78 1,128 13,79 64,217 87,235 13,11 14,10 7,-12 -4,-14 -18,-52 -32,-85 -39,-99 -53,-225 -33,-305 4,-19 11,-103 15,-187 l 7,-152 -31,-58 c -16,-32 -33,-70 -36,-85 -3,-17 -20,-37 -43,-53 -40,-26 -72,-89 -55,-106 16,-16 121,49 144,89 11,21 35,62 54,92 67,108 68,112 76,220 17,240 49,599 58,655 21,130 41,537 41,841 1,332 -17,534 -56,634 -18,47 -50,231 -64,365 -6,61 -13,270 -16,465 -7,545 -27,730 -96,878 -47,100 -95,131 -259,171 -191,45 -351,104 -525,191 l -151,76 -11,-85 c -11,-88 -45,-214 -90,-331 -33,-89 -135,-290 -145,-290 -10,0 -5,31 8,64 7,16 5,18 -11,11 -10,-4 -44,-12 -74,-17 -47,-8 -63,-7 -115,13 -58,21 -123,75 -168,139 -14,19 -17,21 -12,5 27,-87 13,-95 -63,-36 -64,51 -103,99 -141,175 -35,68 -71,222 -71,304 0,28 -3,52 -7,52 -5,0 -19,-9 -33,-19 z m 763,-930 c 7,-60 38,-142 102,-262 19,-37 35,-73 35,-80 -1,-30 -52,52 -101,160 -42,92 -53,128 -57,184 -6,87 12,85 21,-2 z m -302,-138 c 0,-10 1,-79 2,-153 l 2,-135 115,-5 c 136,-6 122,-20 -20,-20 h -98 l 3,-162 c 2,-90 4,-165 4,-168 1,-3 55,-4 121,-2 78,2 120,0 120,-7 0,-6 -47,-11 -121,-13 l -121,-3 -2,-400 c -1,-259 -5,-400 -11,-400 -8,0 -20,614 -16,783 1,22 -1,22 -115,22 -78,0 -113,3 -109,11 4,6 48,9 113,8 l 107,-2 3,167 2,166 h -125 c -166,0 -166,19 1,22 l 127,3 -1,153 c -1,90 3,152 8,152 6,0 10,-8 11,-17 z"
           id="path46"
           sodipodi:nodetypes="ccccccccccccccsscscccccccccsccccccccccccccccccccccccssssccccccccccccccscccsccsccccsccssscccsscccccccccccccccccccccccccsccccccccccccccsccccccccsscccccccccccsccccscccscscccccscccsc"
           inkscape:label="back_arms_hands"
           style="display:inline" /></g><g
         id="g81"
         inkscape:label="head"
         style="display:inline"><path
           d="m 6007,11674 c -75,-13 -176,-58 -237,-106 -55,-42 -143,-135 -160,-168 -10,-19 -27,-54 -39,-77 -54,-107 -73,-262 -47,-388 36,-170 55,-209 163,-326 53,-56 140,-126 148,-117 8,8 38,250 43,343 2,56 -1,142 -9,195 -15,115 -18,273 -4,280 11,5 17,-73 30,-355 9,-199 -2,-299 -75,-650 -55,-268 -80,-428 -80,-510 1,-206 67,-365 192,-465 l 40,-32 -7,48 c -4,27 -14,64 -21,83 -8,18 -14,40 -14,47 0,30 16,11 47,-55 40,-84 111,-160 179,-191 40,-18 62,-21 117,-17 45,3 74,10 87,22 10,9 24,14 29,10 6,-3 14,2 17,12 4,10 26,62 50,115 24,54 46,114 50,135 4,21 10,40 14,43 4,3 17,46 28,95 37,157 28,395 -15,431 -7,6 -28,54 -46,105 -19,52 -41,110 -49,129 -73,166 -118,315 -118,393 0,45 18,30 24,-20 10,-90 17,-128 31,-158 12,-27 30,-74 65,-169 6,-16 13,-26 16,-23 3,3 -4,27 -15,52 -12,26 -21,60 -21,76 0,15 -4,30 -9,33 -5,3 -14,36 -21,72 -15,76 -8,336 10,444 26,149 -17,344 -90,413 -23,22 -44,37 -47,34 -2,-3 5,-26 16,-52 30,-69 34,-105 17,-169 -8,-32 -17,-61 -20,-64 -14,-13 -15,8 -5,62 16,77 0,173 -36,220 -21,28 -35,35 -76,41 -28,4 -70,2 -98,-5 -39,-9 -54,-19 -78,-53 -46,-64 -56,-104 -44,-178 12,-74 7,-86 -14,-36 -19,46 -19,88 0,151 8,27 14,51 12,53 -2,2 -15,-18 -28,-44 -13,-26 -30,-49 -37,-51 -16,-5 -116,94 -108,107 4,5 27,-12 53,-40 25,-27 49,-49 54,-49 4,0 13,15 19,34 6,19 17,39 24,45 11,10 10,18 -5,48 -21,41 -24,63 -9,63 5,0 15,-18 21,-40 7,-22 14,-40 16,-40 2,0 22,12 45,26 33,21 58,27 122,31 92,6 146,-11 208,-66 l 36,-31 21,35 c 12,20 21,40 21,46 0,5 4,9 9,9 23,0 20,-22 -8,-60 l -29,-40 20,-53 c 12,-28 26,-63 32,-76 15,-33 12,-397 -4,-416 -20,-24 0,-375 22,-375 35,0 180,126 209,182 19,36 36,54 45,45 8,-8 -41,-85 -87,-134 -24,-27 -70,-64 -101,-82 -32,-18 -60,-36 -63,-41 -3,-5 6,-37 21,-72 14,-35 31,-74 36,-87 l 9,-24 39,38 c 43,42 76,123 87,215 6,50 12,61 57,98 12,9 16,29 15,72 -1,39 4,68 14,83 32,49 52,157 51,282 -1,105 -4,129 -27,188 -92,237 -247,378 -465,421 -98,19 -160,19 -265,0 z m 483,-282 c 0,-17 -58,-64 -64,-53 -4,6 5,22 20,36 27,25 44,32 44,17 z m -283,-178 c -8,-130 -27,-149 -27,-27 0,95 5,123 23,123 6,0 8,-33 4,-96 z m -105,-247 c 5,-272 -3,-369 -17,-204 -16,198 -13,529 5,496 4,-8 10,-139 12,-292 z m 594,173 c 13,0 24,-4 24,-9 0,-14 -51,-18 -80,-7 -33,13 -33,13 -26,25 5,7 15,7 32,1 14,-6 36,-10 50,-10 z m -1086,-41 c 0,-19 -55,-79 -72,-79 -14,0 -9,12 22,47 17,18 30,38 30,43 0,6 5,10 10,10 6,0 10,-9 10,-21 z m 1120,-29 c 0,-5 -11,-10 -24,-10 -14,0 -28,5 -31,10 -4,6 7,10 24,10 17,0 31,-4 31,-10 z m -778,-117 c 13,-199 -37,-623 -73,-623 -5,0 -7,-11 -3,-25 4,-16 2,-25 -6,-25 -6,0 -8,-4 -5,-10 3,-5 -1,-20 -10,-32 -15,-21 -16,-21 -12,-3 57,210 78,364 84,598 3,108 9,197 13,197 4,0 10,-35 12,-77 z m -352,27 c -11,-20 -40,-28 -40,-10 0,9 28,29 43,30 4,0 3,-9 -3,-20 z m 854,-852 c 31,-162 38,-461 13,-563 -8,-33 -21,-87 -28,-120 -8,-33 -17,-64 -22,-70 -4,-5 -14,-19 -21,-29 -8,-11 -15,-15 -19,-9 -4,6 2,22 13,36 11,14 20,34 20,45 0,11 12,64 26,118 25,93 26,107 21,278 -3,100 -8,188 -10,196 -12,35 -18,140 -8,140 6,0 13,-10 15,-22 z m -589,-125 c -18,-48 -35,-165 -36,-242 0,-89 9,-151 35,-236 18,-57 20,-79 7,-70 -16,9 -51,127 -60,200 -10,85 3,272 23,319 8,19 12,37 8,40 -3,3 3,6 12,6 13,0 16,-5 11,-17 z m 71,-343 c 1,-125 -7,-164 -20,-99 -8,40 -8,192 0,213 14,37 19,9 20,-114 z"
           id="path40"
           inkscape:label="hair" /><path
           d="m 5584,10674 c 1,-23 11,-44 33,-66 24,-26 33,-48 43,-103 13,-71 51,-156 95,-210 13,-16 27,-26 31,-23 7,8 34,144 34,175 0,15 -12,31 -38,47 -49,31 -133,115 -170,171 l -29,43 z"
           id="path41"
           inkscape:label="hair_artifact_5" /><path
           d="m 6601,10365 c -10,-36 -6,-201 6,-275 4,-29 7,-32 13,-15 7,18 2,315 -5,323 -2,2 -8,-13 -14,-33 z"
           id="path42"
           inkscape:label="hair_artifact_4" /><path
           d="m 6490,10228 c 0,-2 12,-32 25,-68 15,-38 23,-51 19,-31 -7,37 -32,101 -39,101 -3,0 -5,-1 -5,-2 z"
           id="path43"
           inkscape:label="hair_artifact_3" /><path
           d="m 6646,10015 c 4,-22 11,-47 16,-55 6,-10 7,-1 3,25 -4,22 -11,47 -16,55 -6,10 -7,1 -3,-25 z"
           id="path44"
           inkscape:label="hair_artifact_2" /><path
           d="m 6631,9989 c -1,-3 4,-20 10,-37 11,-33 39,-52 39,-26 0,8 -4,12 -10,9 -5,-3 -16,9 -24,27 -8,18 -15,30 -15,27 z"
           id="path45"
           inkscape:label="hair_artifact_1" /></g></g></g><g
     id="g76"
     inkscape:label="skinfold_sites"
     style="display:inline"><circle
       cx="189"
       cy="768"
       r="11.5"
       fill="#bd0100"
       opacity="0.9"
       id="circle52"
       transform="translate(-0.63195304,0.51906465)"
       inkscape:label="skinfold_thigh" /><circle
       cx="159"
       cy="584"
       r="11.5"
       fill="#bd0100"
       opacity="0.9"
       id="circle53"
       transform="translate(-0.63195304,0.51906465)"
       inkscape:label="skinfold_suprailiac" /><circle
       cx="226.60001"
       cy="546.20001"
       r="11.5"
       fill="#bd0100"
       opacity="0.9"
       id="circle54"
       transform="translate(-0.63195304,0.51906465)"
       inkscape:label="skinfold_abdomen" /><circle
       cx="160.10001"
       cy="449"
       r="11.5"
       fill="#bd0100"
       opacity="0.9"
       id="circle55"
       transform="translate(-0.63195304,0.51906465)"
       inkscape:label="skinfold_midaxillary" /><circle
       cx="656.90002"
       cy="427.20001"
       r="11.5"
       fill="#bd0100"
       opacity="0.9"
       id="circle56"
       transform="translate(-0.63195304,0.51906465)"
       inkscape:label="skinfold_subscapular" /><circle
       cx="741.5"
       cy="420"
       r="11.5"
       fill="#bd0100"
       opacity="0.9"
       id="circle57"
       transform="translate(-0.63195304,0.51906465)"
       inkscape:label="skinfold_tricep" /><circle
       cx="168.39999"
       cy="410.89999"
       r="11.5"
       fill="#bd0100"
       opacity="0.9"
       id="circle58"
       transform="translate(-0.63195304,0.51906465)"
       inkscape:label="skinfold_chest" /><circle
       cx="120.5"
       cy="409"
       r="11.5"
       fill="#bd0100"
       opacity="0.9"
       id="circle59"
       transform="translate(-0.63195304,0.51906465)"
       inkscape:label="skinfold_bicep" /></g></svg>
