<?xml version="1.0" encoding="UTF-8" standalone="no"?>
<svg
   width="862"
   height="1248"
   viewBox="0 0 862 1248"
   version="1.1"
   id="svg56"
   sodipodi:docname="male.svg"
   xmlns:inkscape="http://www.inkscape.org/namespaces/inkscape"
   xmlns:sodipodi="http://sodipodi.sourceforge.net/DTD/sodipodi-0.dtd"
   xmlns="http://www.w3.org/2000/svg"
   xmlns:svg="http://www.w3.org/2000/svg">
  <defs
     id="defs56" />
  <sodipodi:namedview
     id="namedview56"
     pagecolor="#505050"
     bordercolor="#eeeeee"
     borderopacity="1"
     inkscape:showpageshadow="0"
     inkscape:pageopacity="0"
     inkscape:pagecheckerboard="0"
     inkscape:deskcolor="#505050">
    <inkscape:page
       x="0"
       y="0"
       width="862"
       height="1248"
       id="page2"
       margin="0"
       bleed="0" />
  </sodipodi:namedview>
  <rect
     width="862"
     height="1248"
     fill="#ffffff"
     id="rect1"
     inkscape:label="background"
     x="0"
     y="0" />
  <path
     d="m 0,624 v 624 H 431 862 V 624 0 H 431 0 Z M 244.3,74.1 c 9,1.6 17.7,6 21.9,11 4.8,5.6 5.5,6.3 10,10 2.9,2.4 4.2,4.7 6.4,11.2 2.4,7.1 2.8,9.7 2.7,19.7 0,7.4 -0.6,13.2 -1.6,16.3 -1.4,4.5 -1.4,4.8 0.4,6.1 3.6,2.4 4.2,6.6 2.4,16.2 -1.9,10.1 -5.4,18.7 -8.4,20.6 -1.3,0.8 -2.1,2.3 -2.1,4 0,1.5 -1.1,6.2 -2.5,10.5 -2.4,7.1 -2.6,9 -2.3,21.9 0.4,16.4 0.9,17.7 9,21.7 13.1,6.4 56.3,23.2 62.6,24.3 2,0.3 9.3,1.9 16.2,3.6 15,3.5 20.7,6.6 29.5,16.1 11.6,12.4 18.3,29.4 22.7,57.7 2.2,13.6 2.3,17.5 2.4,65.5 l 0.1,51 2.7,10 c 4.3,15.8 4.6,42.9 0.6,64.6 -0.5,2.5 -1.4,11.2 -2,19.5 -0.6,8.2 -2,21.2 -3,28.9 -1.1,7.7 -2.9,21.2 -4,30 -4.6,36.3 -6,45.7 -8.4,55.1 -1.3,5.4 -2.7,13 -3.1,16.8 -0.9,9.1 -2.3,12.7 -8.8,23.3 -7.7,12.2 -9.2,14 -15.1,17.3 -6.2,3.6 -7.1,3.7 -9.1,0.7 -2.3,-3.5 -0.4,-9 4.4,-12.4 3,-2.2 4.6,-4.5 7,-10.4 3.1,-7.6 3.9,-11.5 2.1,-10.4 -0.5,0.3 -3.4,4.1 -6.5,8.5 -4.8,6.9 -6.1,8 -8.5,8 -3.6,0 -5.1,-2.4 -4.5,-7.1 2.6,-19.8 3.6,-32.1 3.2,-36 -0.8,-6.8 0.8,-20.5 3.2,-27.4 1.2,-3.3 3.6,-8.2 5.5,-11 1.8,-2.8 3.6,-6.4 4,-8.1 0.8,-3.7 -7.3,-33.4 -17.9,-65.4 -10.3,-31.2 -10.7,-33.6 -10.9,-63 -0.1,-22.8 -0.3,-25.3 -2.8,-35.5 -1.5,-6.1 -3.5,-17.2 -4.4,-24.8 -1,-7.6 -2.1,-13.2 -2.5,-12.5 -0.3,0.7 -0.9,7.1 -1.3,14.3 -0.3,7.4 -1.7,18.2 -3.1,25 -1.3,6.6 -2.5,13.3 -2.5,14.9 0,1.6 1.8,8.2 3.9,14.5 7.3,21.4 7.6,23.6 7.7,61.6 0.1,32 0.2,35 2.8,50 4.4,26.8 8.4,59.8 10.1,84.5 4.4,63 -1.1,171.2 -12.5,246 -2.4,15.8 -2.9,23.8 -4,64.5 -0.9,32 -1.3,37 -7.5,94 -2.1,19.2 -3.7,63.9 -2.6,72 1.6,11.4 4.2,13.9 28.3,26.6 7.2,3.8 15.9,8.8 19.2,11 4.6,3.1 7.5,4.3 11.8,4.8 3.1,0.4 6.3,1.3 7.2,2 2.2,1.8 2,4.8 -0.4,6.1 -2.2,1.2 -103.8,1.5 -111.3,0.4 -5.4,-0.9 -9,-2.7 -11.6,-6 -3.4,-4.3 -2.9,-14.2 1.1,-24.1 3.1,-7.5 3.3,-8.3 3.1,-20.1 -0.2,-9.1 0.1,-13.3 1.2,-15.9 0.8,-2 1.5,-6.6 1.5,-10.3 0,-7.1 -1.1,-11.4 -12,-47 -10,-32.9 -13.2,-50.6 -13.3,-74.5 -0.1,-9.4 0.4,-21.3 1.1,-26.5 1.6,-11.9 7.6,-49.2 10.2,-62.8 1.1,-5.7 2,-13.1 2,-16.5 0,-7.3 -2.9,-20.6 -6.3,-29.7 -4,-10.5 -11.4,-37.5 -15.7,-56.7 -6.2,-28.4 -7.2,-38.5 -7.7,-76.5 -0.5,-32.3 -0.6,-33.8 -2.4,-33.8 -1,0 -1.9,0.1 -1.9,0.2 0,0.2 -0.5,14.3 -1,31.5 -0.5,17.1 -1.7,37.1 -2.5,44.5 -2.7,23 -9.3,52.5 -18.1,80.3 -11.1,35.1 -11.4,37.5 -8,55 1.4,7.1 3.6,20 5,28.5 5.5,34.4 6.1,39.8 6,62 0,30.1 -2.3,42.4 -16.5,87.9 -5.9,18.7 -7.2,24.2 -7.6,31.7 -0.4,7.1 -0.2,9.7 1.1,12.1 1.2,2.5 1.6,5.9 1.4,16 -0.1,12.3 0,13.1 3.2,21.1 6.6,16.9 3.4,27.4 -9,29.6 -6.8,1.2 -110.6,0.9 -112.9,-0.3 -1.2,-0.7 -2.1,-2.1 -2.1,-3.6 0,-2.5 2.4,-3.6 10.5,-5 2.2,-0.4 9.2,-3.7 15.5,-7.4 6.3,-3.8 15.8,-9.2 21.1,-12.1 16.1,-8.7 19,-12 20.9,-23.6 1.8,-10.7 -2.4,-76.2 -6.9,-107.9 -1.2,-8.6 -2.8,-39.6 -3.6,-69.5 -0.7,-25.4 -2.2,-42.3 -6.5,-72 -6.9,-48.5 -10.5,-105 -10.5,-168.5 0,-60.3 2.1,-88 10.7,-138.5 3.4,-19.6 3.6,-25.8 2.9,-65 -0.4,-20.3 1.2,-30.3 8,-50 2.1,-6.2 3.9,-12.8 3.9,-14.5 0,-1.6 -1.3,-10.3 -2.8,-19.2 -3.3542,-13.9506 -2.347,-38.0358 -4.147,-39.3358 -2.1,-1.5 -5.053,34.5358 -7.653,46.0358 -1.3,5.9 -1.8,12.8 -1.9,31.5 -0.1,22.4 -0.3,24.8 -2.9,36 -1.6,6.6 -5.7,20.3 -9.2,30.5 -10.3,29.6 -16.4,51.9 -16.4,59.8 0,4.1 0.7,5.9 3.7,10.3 2,3 4.8,8.8 6.1,12.9 2.3,6.9 2.6,9.6 3.2,34.7 0.4,14.9 1.1,27.6 1.4,28.2 0.4,0.6 0.4,2 0.1,3.2 -0.5,1.6 -1.4,1.9 -3.8,1.7 -2.7,-0.3 -4.1,-1.5 -8.9,-8.3 -6.2,-8.7 -8.5,-10.6 -7.4,-5.9 1.7,7 6.4,15.1 10.4,18 6,4.3 8.1,10.4 4.6,13.8 -2,2 -1.4,2.1 -8.3,-1.4 -6.3,-3.1 -10.2,-7.3 -16.9,-18.1 -5.9,-9.3 -6.9,-12.2 -8.1,-22.9 -0.6,-5.2 -1.8,-12 -2.6,-15 -1.6,-5.8 -5.5,-31.3 -8,-51.5 -0.8,-6.6 -2.1,-16.5 -2.9,-22 -0.8,-5.5 -2.2,-17.9 -3.1,-27.5 -0.8,-9.6 -2.2,-22.9 -3,-29.5 -3.9,-32.4 -3.7,-53.2 0.9,-70.1 2.5,-9.1 2.5,-9.1 2.4,-57 -0.1,-50.8 0.5,-60.9 4.7,-81.6 4.3,-21 12.6,-38 23.4,-48 9,-8.4 15.3,-10.9 40.1,-15.8 10.7,-2.2 19.7,-5.3 39.2,-13.6 7.3,-3.1 16,-6.7 19.4,-7.9 8.2,-3.1 14.2,-7 14.9,-9.8 0.3,-1.2 0.4,-9.4 0.2,-18.2 -0.5,-19.2 -3.2,-31.4 -7.8,-35.3 -2.9,-2.4 -4.5,-6.7 -7.4,-19.1 -1.9,-8.1 -1.4,-13.3 1.4,-15.3 1.5,-1.1 1.6,-2.3 1,-9.3 -1.5,-15.7 -1.1,-22.3 1.6,-28.4 1.3,-3.1 2.9,-7.4 3.4,-9.6 1.6,-5.9 4.1,-9.4 11.2,-15.7 6.7,-5.9 10.6,-7.9 20.4,-10.9 6.9,-2 20.2,-2.4 28.8,-0.8 z M 634,74.4 c 7.3,0.5 20.7,5.8 26.9,10.4 12,9.1 17.1,19.8 19.1,39.9 1.1,11.5 0.9,13.2 -1.7,21.6 -1.5,4.7 -1.4,4.9 0.6,6.3 2.8,2 2.7,7.2 -0.3,13.2 -1.3,2.6 -2.6,6.6 -2.9,9 -0.3,2.4 -1.2,5.1 -2,6 -2.9,3.2 -4.9,20.2 -4.6,37.3 0.5,21.7 -0.1,20.9 27.4,32.5 22.6,9.5 40.1,16 45.1,16.9 10.2,1.8 28.4,6.4 32,8.1 2.1,1 7.5,5.4 12,9.8 6.3,6.3 9,10 12.3,16.5 12.2,24.6 17.5,64.4 15.2,114.2 -1.7,37.4 -1.6,40.2 1.9,53.8 4.8,19 5.5,28.2 3.6,44.1 -0.9,7.4 -2.3,21.6 -3.1,31.5 -0.9,9.9 -2.4,24.7 -3.5,33 -1.1,8.2 -2.7,20.8 -3.5,28 -3.3,29.1 -4.8,39.8 -8,56.5 -1.8,9.6 -3.6,21.3 -4,26 -0.6,7.1 -1.4,10.2 -5.2,18.5 -4.9,10.8 -6.3,12.8 -13.6,18.6 -4,3.2 -5.7,3.9 -9.3,3.9 -4.9,0 -6.5,-1.8 -5.7,-6.3 0.3,-1.5 0.1,-2.7 -0.5,-2.7 -1.9,0 -2.3,-3.9 -0.7,-7 1.5,-2.9 1.5,-3 -0.5,-3 -3.2,0 -3.7,-3.4 -2.8,-18 0.5,-7.4 1.1,-19.1 1.3,-26 0.3,-15.4 2.6,-24.8 9.2,-37.8 l 4.7,-9.3 -1.7,-6.7 c -5.6,-21.7 -11.6,-42 -17.2,-58.8 -9.5,-28.2 -9.8,-30.1 -10.1,-56.9 -0.2,-21.3 -0.4,-24.1 -3.3,-38 -1.7,-8.3 -3.8,-21.4 -4.8,-29.2 -1.8,-14.8 -3.3,-16.9 -3.3,-4.7 0,10.7 -1.9,27.9 -4.1,37 -2.6,11.1 -2.4,13.7 1.6,24.9 1.9,5.3 4.7,15.4 6.2,22.3 2.5,11.6 2.7,14.3 2.4,31.2 -0.6,40.2 -0.7,38.1 3.7,65 9.6,59.5 13.1,119.9 10.2,176.5 -1.8,34.8 -5,80.8 -6.6,94 -3.5,30.5 -4.6,38.6 -6.5,50 -1.2,7.6 -2.3,21.1 -2.9,37 -2.3,58.7 -4.3,86.5 -8.5,121.5 -2.4,20 -4.1,72.8 -2.6,79.6 1.8,7.7 6.7,12.3 21.2,19.9 6.3,3.2 15.5,8.7 20.6,12.1 8.3,5.6 9.8,6.2 16,6.8 7.7,0.8 8.8,1.2 9.7,4.2 0.5,1.7 0,2.7 -2.1,4.4 l -2.8,2.2 -53,-0.6 c -30.5,-0.4 -55,-1.1 -57.7,-1.7 -3.4,-0.8 -5.6,-2.1 -7.9,-4.7 -3.1,-3.5 -3.1,-3.7 -2.7,-12.1 0.4,-7.1 1,-9.6 3.4,-14.1 2.8,-5.3 2.9,-6 2.9,-19 0.1,-7.4 0.5,-16.9 0.9,-21.1 1.2,-10.4 -0.5,-21.2 -6.1,-38.4 -13.5,-42.3 -17.3,-61.5 -17.3,-88.1 0,-21.5 0.8,-29.1 7,-66.4 2.7,-16.2 5.2,-32 5.5,-35.1 0.9,-7.5 -1.4,-19.6 -7.5,-38.9 -18,-57.6 -22.1,-83.3 -23.9,-151 l -0.6,-23.5 -2.4,-0.3 c -1.3,-0.2 -2.8,0.1 -3.5,0.8 -0.7,0.7 -1.3,9.1 -1.7,24.3 -0.9,31 -4.3,72.1 -7.5,87.7 -2.9,14.3 -8.1,35.1 -12.3,49 -13.3,44.2 -13.7,46.3 -10.2,62.6 1.1,5.4 3.7,19.7 5.6,31.7 8.9,55.4 7.5,85.1 -6.1,129.5 -11.9,38.7 -11.7,37.8 -11.6,49.7 0.1,29.1 0.8,38.9 2.9,43.5 1.2,2.5 2.9,7.9 3.8,12.1 2.6,12.2 -0.5,19.5 -9.1,21.7 -2.2,0.6 -27.8,1.3 -56.9,1.7 -46.7,0.6 -53.5,0.5 -56.8,-0.9 -2.9,-1.2 -3.7,-2.1 -3.7,-4 0,-3.3 2.7,-4.7 10.4,-5.3 5.3,-0.5 7.3,-1.4 15.1,-6.3 11.1,-7.1 21.5,-13.1 27.8,-16 2.6,-1.3 6.7,-4.2 9.1,-6.5 6.2,-6 6.9,-10.3 6.1,-35.8 -0.8,-27.2 -2.3,-50.9 -4.1,-64.2 -2.6,-20.1 -5.4,-57.6 -6.4,-87 -1.2,-32.9 -2.4,-49.8 -4.5,-63.5 -3.9,-24.9 -7.6,-61.1 -10.2,-98 -3.5,-51.1 -3.9,-114.8 -1,-149 2.7,-31.1 5.7,-55 9.3,-73 4,-20 4.7,-29.5 3.4,-49.7 -1.9,-28.9 -0.5,-41 7.5,-64.2 2.5,-7.1 4.5,-14.5 4.5,-16.3 0,-1.9 -0.9,-6.8 -1.9,-10.9 -2.6,-9.9 -3.9,-19.7 -4.7,-35.7 -0.3,-7.3 -0.8,-13.1 -1,-12.9 -0.2,0.2 -1.1,6.7 -1.9,14.5 -0.8,7.7 -2.9,21.2 -4.7,29.9 -3.1,15.1 -3.3,16.7 -3,35 0.4,25.3 -0.9,33.1 -9.8,59.3 -8.2,24.4 -11.9,36.4 -15.8,52.3 -3.4,13.3 -3.2,16.2 1.8,25 4.4,8 8.1,21.8 8.1,30.7 0,4.1 0.5,16.5 1.1,27.4 1.1,19.8 1.1,19.9 -1,21.6 -1.8,1.5 -2,2.3 -1.3,4.8 0.7,2.2 0.5,3.6 -0.5,4.9 -0.7,1 -1.4,3.2 -1.4,4.9 0,3.9 -1.4,5.1 -6.1,5.2 -5.1,0.2 -15.5,-7.7 -18.5,-13.9 -7,-14.2 -7.7,-16.4 -9,-27.3 -0.8,-6.1 -2.5,-16.5 -3.8,-23.1 -2.6,-12.8 -4.1,-22.8 -5.1,-34 -0.4,-3.9 -1.7,-14.4 -3,-23.5 -3.1,-21.5 -5.2,-40.3 -6.5,-57 -0.5,-7.5 -1.7,-19.2 -2.5,-26 -2.8,-23.5 -1.8,-40.7 3.2,-58.5 l 2.6,-9 -1.3,-31.2 c -2.8,-67.8 3.5,-109.6 20.1,-133.4 4.7,-6.6 13.1,-13.9 20.1,-17.5 2.6,-1.3 11.3,-3.7 19.5,-5.4 17.4,-3.5 22.8,-5.2 46.8,-15.2 9.9,-4.2 19.1,-7.9 20.5,-8.3 1.4,-0.4 4.7,-1.9 7.3,-3.2 3.9,-1.9 5.3,-3.4 6.9,-6.9 1.8,-4.2 1.9,-6.1 1.5,-22.2 -0.6,-18.8 -2.1,-30.1 -4.8,-34.2 -0.9,-1.4 -2,-4.3 -2.4,-6.5 -0.3,-2.2 -1.8,-6.6 -3.3,-9.9 -2.2,-5 -2.4,-6.2 -1.4,-8.8 0.9,-2.3 0.8,-4.3 -0.4,-8.8 -0.8,-3.1 -1.5,-10.8 -1.6,-17.1 -0.2,-10 0,-12 2,-16 1.2,-2.5 2.2,-5.2 2.2,-5.9 0,-2.5 3.2,-10.3 6,-14.5 6.7,-10.3 29.6,-20.2 43.5,-18.9 1.7,0.2 5.5,0.5 8.5,0.8 z"
     id="path1"
     sodipodi:nodetypes="ccccccccccccccccccscccccccccccccccccccccccsccccccccccccsccccccccccccccccccsccccscccsscccccccccccccscccccccscccsccccccscccccccccccccccscccccccccscccccccccccccccsscccccccccccccccccscscscccccccccscccccccccscccccccccccccccsccccccsccccccccccccsccccccccccsccsccsccccccsccccscccccccccccccccsccccccccccsccc"
     style="display:inline;stroke-width:0.1"
     inkscape:label="mask" />
  <!-- Traced line-art (potrace) -->
  <g
     transform="matrix(0.1,0,0,-0.1,0,1248)"
     fill="#000000"
     stroke="none"
     id="g49"
     inkscape:label="body">
    <g
       id="g58"
       inkscape:label="front_view"
       style="display:inline">
      <g
         id="g72"
         inkscape:label="bottom_half">
        <path
           d="m 1124,4758 c 13,-497 56,-1048 106,-1388 40,-269 58,-467 65,-725 8,-302 24,-606 35,-687 48,-333 88,-970 69,-1088 -20,-130 -65,-178 -254,-273 -38,-19 -108,-58 -155,-87 -79,-48 -80,-53 -8,-34 9,3 19,0 22,-5 4,-6 -10,-13 -31,-16 -72,-12 -78,-20 -41,-55 15,-13 35,-20 64,-20 h 42 l -11,30 c -17,46 13,71 99,82 37,4 70,6 72,3 12,-12 -15,-25 -53,-25 -64,0 -95,-14 -95,-44 0,-34 26,-46 98,-46 45,0 66,5 86,21 15,12 30,18 34,14 4,-3 -3,-14 -16,-23 -21,-16 -6,-17 256,-14 332,3 354,5 394,41 29,25 31,33 31,87 0,44 -9,80 -34,139 -32,78 -33,84 -32,209 2,100 -1,135 -14,159 -12,24 -14,52 -10,131 4,88 13,127 70,308 144,455 171,596 171,893 0,250 -18,392 -119,945 -23,123 -13,193 65,435 136,423 203,752 225,1118 7,104 6,108 -12,99 -39,-21 -204,-53 -330,-64 -227,-20 -518,18 -712,93 -41,16 -77,29 -80,29 -2,0 -1,-109 3,-242 z m 566,-1353 c 0,-15 -46,-95 -76,-132 -35,-43 -148,-133 -167,-133 -6,0 28,37 77,82 51,47 100,104 118,135 25,45 48,67 48,48 z m -91,-231 c -17,-21 -68,-46 -82,-41 -7,3 -1,9 13,15 14,5 32,17 39,26 7,9 20,16 28,16 13,0 13,-3 2,-16 z M 1815,749 c -11,-34 -24,-59 -32,-59 -16,0 -10,32 20,100 26,61 34,33 12,-41 z"
           id="path24"
           sodipodi:nodetypes="cccccccccccsccccssssccccscccccsccccccscscsccscccssccscc"
           inkscape:label="right_leg" />
        <path
           d="m 3452,4979 c -53,-25 -241,-74 -347,-90 -191,-31 -509,-11 -677,41 l -61,19 7,-141 c 8,-176 28,-318 72,-528 37,-175 113,-450 164,-592 38,-109 60,-213 60,-287 0,-31 -22,-190 -50,-352 -83,-498 -98,-654 -81,-844 17,-183 62,-385 146,-655 42,-135 83,-272 90,-305 19,-79 19,-193 0,-239 -11,-26 -15,-68 -13,-158 1,-117 0,-127 -30,-201 -44,-107 -45,-186 -4,-227 38,-37 58,-39 394,-42 l 276,-3 -31,27 c -39,33 -27,37 16,6 42,-30 155,-38 180,-13 9,9 17,20 17,25 0,21 -34,39 -85,45 -49,7 -75,19 -63,30 9,10 134,-17 150,-32 21,-19 23,-54 6,-71 -16,-16 51,-17 86,-1 52,24 35,69 -27,69 -18,0 -26,4 -21,11 6,11 52,8 89,-5 25,-10 -78,48 -215,121 -223,118 -262,161 -275,306 -14,153 16,586 81,1167 8,74 19,279 24,455 12,401 18,517 36,630 56,362 109,922 134,1419 12,245 13,436 3,435 -5,0 -27,-9 -51,-20 z M 3045,3370 c 50,-48 100,-87 128,-99 52,-22 62,-35 20,-25 -65,16 -125,59 -208,152 -72,80 -31,62 60,-28 z m 83,-155 c 53,-20 73,-42 27,-31 -45,11 -71,24 -85,42 -8,9 -10,15 -5,13 6,-2 34,-13 63,-24 z M 2804,855 c 4,-14 20,-46 36,-72 30,-47 38,-73 22,-73 -11,0 -82,136 -82,156 0,23 17,16 24,-11 z"
           id="path26"
           inkscape:label="left_leg" />
        <g
           id="g66"
           inkscape:label="underware"
           style="display:inline">
          <path
             d="m 1266,6658 c -2,-18 -9,-58 -13,-89 l -9,-57 100,-31 c 295,-90 618,-134 981,-133 360,0 677,45 983,138 74,22 82,27 77,45 -4,11 -10,50 -14,87 -5,52 -10,66 -21,63 -8,-3 -46,-15 -83,-27 -244,-83 -664,-131 -1052,-121 -346,10 -693,63 -889,138 -28,10 -52,19 -53,19 -1,0 -4,-15 -7,-32 z"
             id="path14"
             inkscape:label="top_band" />
          <path
             d="m 1236,6469 c -6,-19 -23,-133 -46,-304 -39,-287 -74,-776 -68,-940 l 3,-90 74,-28 c 290,-111 669,-137 972,-66 l 86,20 6,97 c 4,53 7,120 7,149 v 52 l -42,12 c -31,8 -59,28 -104,74 -95,97 -154,238 -181,429 -14,105 -14,146 1,430 l 1,30 -100,13 c -189,24 -421,75 -587,130 -10,3 -20,0 -22,-8 z"
             id="path15"
             inkscape:label="right_section" />
          <path
             d="m 3307,6455 c -84,-30 -320,-80 -487,-104 l -125,-17 3,-180 c 4,-202 -7,-314 -44,-440 -36,-127 -71,-191 -144,-265 -49,-50 -76,-70 -109,-79 -37,-10 -42,-14 -37,-33 3,-12 6,-79 6,-148 v -125 l 73,-17 c 119,-27 195,-37 337,-44 217,-9 403,19 624,95 l 109,37 -6,220 c -10,331 -36,613 -88,960 -24,159 -25,165 -36,164 -4,0 -39,-11 -76,-24 z"
             id="path16"
             inkscape:label="left_section" />
          <path
             d="m 3445,5084 c -233,-95 -521,-132 -790,-100 -77,9 -173,25 -213,35 -40,10 -75,14 -77,10 -3,-4 -1,-19 4,-33 11,-28 30,-35 196,-69 136,-27 411,-29 570,-3 97,16 330,83 361,104 13,8 28,82 17,81 -4,0 -35,-12 -68,-25 z"
             id="path23"
             inkscape:label="bottom_left_band" />
          <path
             d="m 1120,5072 v -40 l 88,-32 c 310,-113 682,-129 995,-43 53,15 57,18 57,45 0,26 -3,30 -22,25 -135,-30 -181,-37 -293,-48 -282,-25 -566,19 -812,128 -9,4 -13,-7 -13,-35 z"
             id="path22"
             inkscape:label="bottom_right_band" />
          <path
             d="m 1973,6317 c -2,-4 -5,-101 -5,-215 -1,-175 2,-222 20,-305 38,-180 143,-353 237,-393 51,-21 140,-18 192,7 119,58 213,247 243,489 11,94 13,261 4,360 l -6,65 h -340 c -187,0 -342,-4 -345,-8 z"
             id="path17"
             inkscape:label="crotch" />
        </g>
        <g
           id="g73"
           inkscape:label="floating_toes">
          <g
             id="g75"
             inkscape:label="right"
             style="display:inline">
            <path
               d="m 853,433 c -34,-7 -28,-32 12,-49 58,-24 67,-19 42,21 -12,19 -24,34 -27,33 -3,0 -15,-3 -27,-5 z"
               id="path27"
               inkscape:label="right_toe_3" />
            <path
               d="m 773,404 c -7,-18 12,-34 40,-34 20,0 21,9 3,33 -16,21 -35,22 -43,1 z"
               id="path29"
               inkscape:label="right_toe_2" />
            <path
               d="m 720,396 c 0,-15 18,-31 26,-23 7,7 -7,37 -17,37 -5,0 -9,-6 -9,-14 z"
               id="path31"
               inkscape:label="right_toe_1" />
          </g>
          <g
             id="g74"
             inkscape:label="left">
            <path
               d="m 3876,394 c -8,-21 -3,-26 18,-18 20,8 21,34 2,34 -8,0 -17,-7 -20,-16 z"
               id="path32"
               inkscape:label="left_toe_1" />
            <path
               d="m 3802,399 c -7,-12 -11,-24 -7,-27 10,-11 60,13 63,31 5,25 -40,22 -56,-4 z"
               id="path30"
               inkscape:label="left_toe_2"
               style="display:inline" />
            <path
               d="m 3730,428 c 0,-6 -10,-22 -22,-35 l -21,-23 h 25 c 14,0 38,10 53,22 l 27,21 -23,13 c -30,17 -39,17 -39,2 z"
               id="path28"
               inkscape:label="left_toe_3"
               style="display:inline" />
          </g>
        </g>
      </g>
      <g
         id="g68"
         inkscape:label="top_half"
         style="display:inline">
        <g
           id="g69"
           inkscape:label="floating_fingers">
          <g
             id="g70"
             inkscape:label="left">
            <path
               d="m 3762,5637 c -21,-22 -40,-57 -52,-98 l -20,-64 39,41 c 20,23 42,43 48,45 8,3 27,109 19,109 -1,0 -17,-15 -34,-33 z"
               id="path20"
               inkscape:label="left_finger_1_bottom" />
            <path
               d="m 3761,5750 c -7,-25 -19,-63 -27,-85 l -15,-40 37,36 c 36,36 36,38 27,85 l -10,49 z"
               id="path18"
               inkscape:label="left_finger_1_top" />
          </g>
          <g
             id="g71"
             inkscape:label="right"
             style="display:inline">
            <path
               d="m 834,5628 c 3,-13 6,-33 6,-45 0,-13 6,-23 15,-23 8,0 28,-20 45,-45 37,-54 45,-57 25,-9 -8,20 -15,44 -15,53 -1,15 -64,91 -76,91 -4,0 -4,-10 0,-22 z"
               id="path21"
               inkscape:label="right_finger_1_bottom" />
            <path
               d="m 837,5728 c -4,-38 -1,-47 29,-78 41,-41 43,-28 10,53 -30,75 -33,76 -39,25 z"
               id="path19"
               inkscape:label="right_finger_1_top" />
          </g>
        </g>
        <path
           d="m 1945,10246 c 0,-178 1,-176 -99,-225 -95,-47 -457,-197 -531,-220 -36,-11 -96,-26 -133,-32 -115,-19 -255,-59 -302,-86 -144,-84 -255,-280 -309,-543 -39,-190 -44,-288 -43,-785 1,-478 1,-480 -24,-580 -52,-211 -52,-335 1,-795 8,-74 21,-205 29,-290 14,-147 38,-327 71,-540 8,-52 19,-133 25,-180 6,-47 21,-134 35,-195 13,-60 26,-141 30,-179 6,-76 23,-113 98,-226 65,-97 84,-118 131,-141 51,-24 56,-24 56,4 0,29 -15,49 -64,85 -48,36 -82,121 -107,268 -10,59 -9,81 5,142 10,45 14,88 10,113 -6,33 -4,41 7,37 7,-2 16,-18 20,-34 3,-16 21,-65 39,-109 18,-44 36,-105 40,-135 9,-70 39,-181 52,-197 6,-7 17,-13 26,-13 12,0 13,8 8,43 -7,43 -15,209 -20,417 -3,136 -22,205 -87,311 -37,62 -42,78 -42,127 1,71 48,239 158,572 124,376 128,397 131,685 1,182 6,258 18,315 21,91 54,280 70,395 2,17 9,62 15,100 16,110 14,178 -8,206 -27,35 -55,120 -81,239 -12,58 -28,117 -36,132 -17,32 -18,52 -3,42 20,-12 47,-87 72,-199 30,-134 45,-170 87,-219 88,-100 291,-157 463,-128 31,5 57,5 57,1 0,-14 -19,-20 -102,-29 -134,-15 -286,17 -371,80 -22,16 -42,29 -43,27 -1,-1 2,-40 6,-87 5,-47 9,-100 9,-117 0.6224,-59.3549 16.3223,-168.5109 14,-222 l 18,-103 c 10,-57 23,-128 29,-159 15,-84 13,-111 -20,-201 -81,-220 -107,-408 -90,-663 6,-99 12,-193 13,-210 2,-30 3,-30 152,-73 245,-70 467,-100 800,-108 261,-7 442,3 665,37 137,21 366,75 430,101 l 35,14 10,180 c 18,314 0,473 -76,694 -21,62 -39,127 -39,142 0,16 11,83 24,151 13,67 29,178 36,247 14,154 29,374 25,378 -2,2 -20,-8 -42,-21 -56,-37 -179,-61 -310,-62 -77,0 -116,4 -124,13 -11,10 9,12 99,12 172,0 304,33 370,94 13,11 33,39 44,61 23,45 47,196 48,300 0,49 3,65 10,55 5,-8 10,-28 10,-45 0,-29 1,-28 29,20 29,51 61,86 61,68 0,-6 -18,-41 -40,-79 -33,-58 -42,-86 -55,-174 -9,-65 -25,-125 -40,-157 -21,-42 -26,-66 -26,-140 0,-92 49,-442 75,-535 27,-94 36,-209 34,-413 -2,-241 4,-272 103,-570 107,-320 179,-579 179,-645 0,-46 -6,-65 -31,-106 -71,-111 -91,-186 -90,-339 0,-60 -9,-184 -20,-274 -11,-91 -17,-167 -12,-172 5,-5 18,-3 29,5 15,10 25,39 38,98 9,46 26,116 37,157 21,76 79,221 89,221 7,0 13,-126 13,-255 -1,-68 -6,-115 -17,-145 -10,-25 -24,-65 -33,-90 -10,-27 -33,-61 -59,-85 -45,-41 -69,-95 -42,-95 26,0 109,60 126,91 9,17 39,64 65,104 57,88 72,128 81,215 4,36 20,121 36,190 16,69 34,169 40,223 5,54 14,117 19,140 6,23 15,89 21,147 6,58 22,182 35,275 13,94 26,213 30,265 3,52 16,174 28,270 15,121 22,229 22,350 0,161 -3,183 -29,280 l -29,105 -1,520 -1,520 -32,176 c -47,261 -122,431 -235,535 -80,72 -136,98 -283,129 -168,35 -253,62 -460,147 -93,38 -204,83 -246,99 -97,38 -147,80 -159,134 -5,22 -8,93 -6,158 2,64 -1,117 -6,117 -4,0 -8,-4 -8,-10 0,-16 -120,-139 -182,-186 -50,-39 -65,-45 -121,-51 -36,-3 -89,-3 -119,1 -50,6 -64,14 -152,87 -53,44 -96,84 -96,87 0,4 -13,22 -28,40 l -27,33 z m 75,-466 c 117,-15 150,-25 190,-59 44,-36 33,-52 -12,-18 -18,14 -54,30 -78,36 -79,17 -381,33 -502,27 -76,-5 -118,-4 -118,3 0,5 8,12 18,14 35,9 420,7 502,-3 z m 830,-19 c 0,-17 -46,-21 -232,-21 h -188 l -40,-36 c -24,-22 -40,-31 -40,-22 0,18 48,64 80,77 31,12 420,14 420,2 z m -554,-472 c 15,-82 18,-439 4,-439 -6,0 -10,49 -10,128 0,132 -15,337 -27,367 -4,13 -2,16 8,13 8,-3 19,-30 25,-69 z M 2075,8155 c -16,-8 -65,-30 -109,-50 -122,-55 -238,-138 -358,-257 -117,-116 -154,-137 -72,-41 80,94 164,171 253,230 88,60 249,133 291,132 24,0 24,-1 -5,-14 z m 779,-77 c 50,-28 115,-69 145,-92 58,-44 191,-192 191,-214 0,-7 -48,37 -107,96 -87,87 -130,121 -218,174 -60,36 -118,68 -127,71 -10,4 -18,11 -18,17 0,17 36,3 134,-52 z m 1063,-230 c -13,-24 -47,-81 -75,-127 -43,-69 -77,-145 -115,-254 -4,-10 -11,-16 -16,-13 -24,15 68,238 137,331 21,28 45,62 55,78 28,44 41,31 14,-15 z M 747,7778 c 74,-121 147,-328 112,-316 -7,2 -20,33 -30,68 -9,35 -47,122 -83,194 -37,72 -66,135 -66,139 0,18 19,-6 67,-85 z m 273,-39 c 0,-7 -17,-26 -37,-43 -20,-17 -49,-43 -64,-58 -30,-31 -39,-34 -39,-16 0,13 119,128 132,128 5,0 8,-5 8,-11 z m 2669,-114 c 50,-57 36,-64 -19,-10 -27,27 -50,53 -50,57 0,15 36,-10 69,-47 z"
           id="path7"
           sodipodi:nodetypes="sccccccccccsccccsccccccsccsccccccccccccccccsccccccccccccccccccsccscccsccccscscccscccscccscccsccccscccsccscccscccccccccccssccccsccscccccsccssccscscssccccccccccccssccsccccccccccccscsscsssccsc"
           style="display:inline"
           inkscape:label="upperbody_core" />
      </g>
      <g
         id="g67"
         inkscape:label="head"
         style="display:inline">
        <path
           d="m 2140,11697 c -36,-14 -77,-29 -92,-35 -15,-6 -59,-42 -97,-79 -58,-58 -72,-78 -86,-127 -9,-32 -25,-77 -35,-99 -10,-23 -21,-60 -25,-82 l -6,-40 30,35 c 35,41 39,35 11,-20 -25,-48 -29,-214 -7,-273 16,-44 27,-32 27,28 0,48 16,83 52,117 23,21 33,42 39,78 11,69 28,100 69,122 32,18 46,19 150,12 63,-5 141,-8 172,-7 90,3 261,39 317,67 52,27 91,34 91,16 0,-5 -7,-10 -15,-10 -9,0 -38,-11 -65,-25 -27,-14 -58,-25 -70,-25 -11,0 -20,-4 -20,-10 0,-5 7,-10 15,-10 8,0 20,-9 27,-20 7,-11 21,-20 31,-20 26,0 94,37 106,57 14,26 25,9 11,-17 -6,-12 -30,-30 -53,-40 l -42,-18 28,-7 c 22,-6 33,-3 51,15 15,13 26,18 30,11 4,-6 -2,-16 -14,-23 -11,-7 -20,-18 -20,-25 0,-17 -15,-16 -50,2 -17,9 -30,14 -30,12 0,-2 27,-25 60,-50 33,-26 60,-55 60,-64 0,-12 -15,-2 -51,32 l -51,50 7,-40 c 4,-22 17,-50 29,-62 27,-26 46,-85 46,-139 0,-61 18,-28 41,77 15,67 19,112 15,159 -16,184 -35,250 -86,291 -42,34 -48,41 -100,100 -61,71 -148,100 -310,106 -113,3 -131,1 -190,-20 z m -14,-116 c -3,-5 -18,-12 -32,-15 -32,-8 -99,-54 -131,-88 -27,-28 -73,-113 -73,-134 0,-7 -4,-14 -10,-14 -12,0 -12,77 0,105 8,18 9,18 10,-5 1,-23 2,-23 20,11 23,43 100,116 143,134 36,16 81,20 73,6 z m 364,-160 c 0,-5 -21,-18 -47,-28 -49,-19 -117,-21 -346,-12 -97,4 -99,4 -122,-23 -13,-16 -29,-28 -35,-28 -19,0 9,40 43,61 29,19 41,20 142,13 159,-11 265,-8 306,9 40,18 59,20 59,8 z m -586,-209 c -8,-34 -45,-102 -56,-102 -12,0 -10,6 11,48 10,20 21,50 25,65 4,15 11,25 16,22 6,-4 7,-18 4,-33 z"
           id="path2"
           inkscape:label="hair" />
        <path
           d="m 2040,11297 c -49,-25 -68,-62 -69,-127 -1,-27 -8,-41 -34,-61 -38,-31 -53,-72 -62,-180 -7,-73 -3,-112 31,-329 25,-159 58,-212 211,-341 l 94,-79 h 98 c 92,0 100,2 144,31 61,40 174,154 221,222 44,63 52,93 66,242 23,232 8,396 -39,440 -11,9 -23,37 -27,61 -7,52 -65,131 -101,141 -14,3 -53,2 -86,-3 -79,-11 -287,-11 -352,-1 -43,7 -56,5 -95,-16 z"
           id="path3"
           inkscape:label="face"
           style="display:inline" />
        <path
           d="m 1790,10965 c -28,-34 37,-315 73,-315 6,0 7,14 3,38 -4,20 -9,55 -12,76 -2,22 -8,44 -13,49 -5,5 -7,24 -4,43 4,22 0,42 -11,58 -19,30 -21,40 -4,30 8,-5 9,-2 5,10 -4,10 -7,20 -7,22 0,10 -19,3 -30,-11 z"
           id="path4"
           inkscape:label="right_ear" />
        <path
           d="m 2796,10944 c -18,-39 -15,-60 4,-24 6,12 14,20 16,17 2,-2 -3,-17 -11,-33 -11,-21 -14,-44 -9,-80 4,-36 2,-60 -9,-80 -20,-40 -31,-94 -19,-94 35,0 96,256 73,306 -15,33 -24,30 -45,-12 z"
           id="path5"
           inkscape:label="left_ear_outer" />
        <path
           d="m 2770,10779 c 0,-17 4,-28 10,-24 6,3 10,17 10,31 0,13 -4,24 -10,24 -5,0 -10,-14 -10,-31 z"
           id="path6"
           inkscape:label="left_ear_inner" />
      </g>
    </g>
    <g
       id="g57"
       inkscape:label="back_view"
       style="display:inline">
      <g
         id="g64"
         inkscape:label="bottom_half"
         style="display:inline">
        <g
           id="g59"
           inkscape:label="underware"
           style="display:inline">
          <path
             d="m 5040,5161 c 0,-38 0,-38 78,-74 174,-79 407,-122 617,-114 156,7 316,31 405,60 64,22 65,23 68,61 3,34 1,38 -15,31 -41,-17 -84,-26 -203,-47 -298,-50 -674,-8 -902,102 -23,11 -43,20 -45,20 -2,0 -3,-17 -3,-39 z"
             id="path46"
             inkscape:label="bottom_left_band" />
          <path
             d="m 7455,5174 c -235,-108 -581,-144 -884,-94 -73,12 -151,28 -173,36 -23,8 -42,14 -44,14 -2,0 -4,-15 -4,-34 0,-31 3,-34 57,-55 75,-29 256,-59 397,-67 122,-7 323,13 450,46 93,23 231,77 246,95 6,7 10,29 8,48 l -3,34 z"
             id="path47"
             inkscape:label="bottom_right_band" />
          <path
             d="m 5955,6614 c -184,-9 -371,-27 -513,-49 -218,-34 -252,-43 -261,-69 -25,-67 -84,-510 -106,-791 -30,-399 -32,-476 -15,-485 50,-26 224,-83 303,-100 116,-23 264,-40 362,-40 130,0 452,52 475,77 5,4 10,79 12,165 l 4,158 -34,-21 c -57,-33 -201,-70 -298,-76 -112,-7 -210,13 -315,64 -89,43 -79,55 12,15 93,-42 162,-57 269,-56 108,0 219,27 313,75 82,42 149,40 242,-5 77,-37 168,-62 260,-72 79,-8 227,18 316,56 89,38 90,23 2,-18 -180,-82 -412,-79 -583,7 l -55,28 3,-151 c 2,-83 5,-156 7,-162 2,-6 32,-18 67,-27 275,-69 583,-69 847,0 63,16 220,78 234,92 10,10 -5,327 -28,591 -22,243 -83,682 -98,696 -9,10 -358,64 -511,80 -144,14 -745,26 -911,18 z"
             id="path39"
             inkscape:label="main_section" />
          <path
             d="m 6005,6820 c -305,-15 -591,-51 -750,-93 l -50,-13 -7,-65 c -4,-35 -10,-74 -13,-86 -6,-25 -2,-28 24,-14 19,11 278,55 411,70 302,36 912,38 1245,6 164,-16 437,-58 489,-75 l 28,-10 -7,38 c -4,20 -10,59 -14,86 l -6,49 -65,18 c -235,66 -869,110 -1285,89 z"
             id="path38"
             inkscape:label="top_band" />
        </g>
        <path
           d="m 5044,5028 c 3,-35 8,-151 11,-258 3,-107 12,-285 20,-395 8,-110 19,-281 25,-380 11,-170 54,-552 85,-750 20,-130 34,-320 45,-645 12,-318 31,-586 60,-825 38,-313 61,-851 40,-949 -17,-81 -71,-134 -214,-210 -61,-31 -151,-84 -200,-116 -107,-69 -133,-80 -191,-80 -24,0 -50,-3 -59,-6 -25,-9 -19,-33 9,-40 14,-4 273,-2 575,2 l 548,9 26,24 c 42,40 49,78 30,162 -9,41 -27,100 -40,132 -21,50 -24,71 -22,165 1,59 -2,154 -6,212 -10,129 -9,137 94,480 125,419 146,552 137,865 -3,110 -13,247 -22,305 -27,183 -64,402 -86,504 -26,123 -22,234 14,351 192,631 228,793 257,1155 11,139 20,261 20,271 0,17 -2,17 -44,-2 -63,-27 -260,-59 -411,-65 -104,-5 -160,-2 -275,15 -146,22 -322,73 -388,112 -18,10 -35,19 -38,19 -2,0 -2,-28 0,-62 z m 731,-1395 c -72,-19 -108,-23 -183,-20 -51,2 -98,9 -104,15 -8,8 12,10 74,5 60,-4 106,-1 159,10 95,21 122,24 134,18 5,-3 -31,-15 -80,-28 z m 57,-134 c 6,-77 0,-159 -12,-159 -9,0 -23,206 -15,220 15,24 23,6 27,-61 z m -307,5 c 9,-31 15,-74 13,-97 -4,-50 -10,-39 -35,71 -14,61 -16,82 -7,82 7,0 20,-25 29,-56 z M 5450,865 c 19,-20 48,-37 67,-41 40,-7 34,-24 -9,-24 -22,0 -41,11 -69,39 -37,36 -49,61 -31,61 4,0 23,-16 42,-35 z"
           id="path48"
           inkscape:label="left_leg" />
        <path
           d="m 7475,5070 c -46,-31 -228,-86 -350,-106 -216,-36 -558,-15 -714,45 l -51,19 v -36 c 0,-65 19,-324 31,-412 28,-227 86,-469 199,-832 60,-191 84,-320 75,-403 -3,-33 -26,-178 -50,-322 -62,-367 -75,-483 -75,-679 0,-268 34,-444 170,-869 59,-185 76,-295 64,-415 -4,-47 -8,-143 -9,-215 0,-126 -1,-132 -33,-195 -26,-54 -32,-77 -32,-131 0,-79 21,-113 78,-128 55,-14 1103,-25 1122,-11 25,17 -16,40 -72,40 -56,0 -82,11 -193,85 -44,29 -133,81 -198,115 -225,120 -231,139 -207,653 6,122 20,299 30,392 36,321 59,641 70,970 11,334 24,531 40,595 49,193 148,1458 138,1762 l -3,98 z M 6810,3649 c 88,-21 173,-26 232,-14 24,5 30,4 23,-4 -19,-19 -109,-30 -171,-21 -83,13 -196,45 -188,53 10,9 7,10 104,-14 z m -55,-110 c 4,-17 4,-66 0,-110 -5,-60 -11,-79 -22,-79 -10,0 -13,6 -9,16 3,9 6,58 6,110 0,93 12,123 25,63 z m 320,4 c -3,-10 -14,-47 -22,-83 -9,-36 -18,-71 -19,-78 -2,-7 -8,-11 -12,-8 -22,13 23,186 49,186 7,0 8,-7 4,-17 z m 68,-2684 c -24,-41 -58,-61 -95,-57 -48,5 -48,28 0,28 34,0 44,5 66,35 32,42 54,37 29,-6 z"
           id="path49"
           inkscape:label="right_leg" />
      </g>
      <g
         id="g65"
         inkscape:label="top_half"
         style="display:inline">
        <path
           d="m 6642,10700 c -35,-130 -44,-151 -82,-190 l -38,-40 h -251 -250 l -29,28 c -34,31 -52,65 -77,142 -10,30 -21,59 -25,63 -4,5 -6,-112 -3,-260 4,-188 2,-281 -6,-311 -15,-54 -64,-103 -127,-126 -27,-10 -132,-53 -234,-96 -233,-97 -310,-122 -488,-160 -178,-37 -212,-52 -295,-130 -106,-99 -170,-221 -221,-425 -57,-227 -75,-549 -57,-985 l 13,-305 -31,-115 c -42,-152 -51,-326 -27,-550 9,-85 23,-234 31,-330 15,-178 18,-198 60,-495 13,-93 27,-206 30,-250 7,-88 36,-272 60,-380 14,-64 20,-96 45,-241 8,-48 75,-167 163,-291 37,-52 58,-57 27,-8 -12,19 -17,35 -12,35 6,0 20,-16 31,-36 25,-42 54,-43 59,-1 3,22 -6,36 -42,70 -42,39 -95,132 -96,167 0,8 -7,23 -14,33 -19,24 -13,250 8,337 9,36 16,107 16,160 0,77 -4,101 -20,128 -24,39 -55,156 -46,177 11,30 24,14 28,-38 4,-49 10,-65 52,-142 19,-35 22,-187 5,-248 -11,-41 6,-119 42,-189 11,-20 24,-69 29,-110 12,-92 35,-172 56,-189 26,-21 30,1 21,123 -4,62 -9,181 -11,263 -4,173 -24,263 -86,385 -21,41 -41,89 -44,105 -10,50 90,416 199,729 75,213 89,304 80,521 -6,170 -6,170 34,370 40,202 81,502 81,585 -1,25 -8,63 -16,85 -13,34 -114,364 -114,372 0,2 5,3 10,3 13,0 23,-25 71,-190 22,-74 49,-155 59,-180 13,-33 22,-106 35,-280 16,-227 26,-306 59,-455 9,-38 16,-83 16,-99 0,-16 -22,-98 -50,-181 -71,-217 -84,-309 -74,-520 4,-93 8,-196 9,-228 0,-65 -1,-64 84,-42 99,25 305,55 488,70 209,17 716,20 948,5 180,-12 475,-52 550,-75 28,-8 55,-15 61,-15 15,0 29,182 28,360 -2,170 -31,335 -89,493 -40,112 -43,149 -16,255 21,83 34,200 66,592 4,41 19,113 35,160 16,47 45,137 65,200 34,109 49,140 59,129 7,-6 -91,-324 -111,-363 -32,-61 1,-384 73,-716 25,-114 27,-146 29,-360 1,-267 3,-276 91,-535 59,-172 140,-446 173,-586 21,-90 16,-155 -13,-189 -56,-64 -100,-222 -101,-365 -1,-60 -7,-179 -13,-264 -7,-86 -9,-158 -4,-163 17,-17 45,32 63,109 10,43 18,91 19,106 0,15 8,42 17,60 24,46 46,135 46,182 -1,22 -2,85 -4,140 -2,94 0,104 30,173 18,40 35,95 38,122 6,50 23,60 23,14 0,-14 4,-22 10,-19 19,12 10,-17 -31,-99 -55,-111 -58,-157 -25,-369 29,-184 29,-255 -2,-327 -10,-25 -26,-66 -36,-91 -9,-26 -35,-63 -61,-88 -32,-30 -45,-51 -45,-70 0,-52 27,-49 61,6 12,19 24,32 27,28 3,-3 -5,-19 -17,-36 -21,-28 -21,-30 -5,-27 17,3 132,172 184,269 10,19 23,73 29,120 5,46 25,158 44,249 19,91 38,199 41,240 4,41 11,100 16,130 5,30 19,136 30,235 11,99 25,205 30,235 5,30 16,141 25,245 8,105 22,242 29,305 33,267 32,290 -26,540 l -31,135 12,335 c 14,367 7,551 -30,795 -27,178 -51,262 -111,385 -42,86 -64,118 -123,178 -76,75 -128,105 -212,122 -169,34 -280,62 -342,84 -172,62 -511,210 -545,238 -68,56 -69,60 -75,393 -6,262 -8,294 -19,255 z M 6257,8924 c 11,-28 -17,-239 -52,-392 -39,-172 -83,-302 -132,-389 -56,-101 -75,-96 -24,5 84,166 181,555 181,724 0,65 13,89 27,52 z m 447,-101 c 27,-87 103,-225 164,-298 30,-36 51,-69 47,-73 -11,-11 -101,93 -147,170 -39,66 -98,212 -98,244 0,32 18,10 34,-43 z m -348,-339 c 38,-122 140,-358 213,-492 70,-129 102,-211 66,-167 -67,82 -210,384 -286,604 -42,123 -45,135 -27,129 6,-2 22,-35 34,-74 z m -80,-829 c -2,-322 -6,-588 -9,-592 -4,-3 -9,-4 -13,-1 -3,3 -5,214 -6,469 -1,456 7,709 22,709 4,0 7,-263 6,-585 z m 1700,194 c -10,-65 -75,-179 -102,-179 -7,0 2,24 22,57 19,32 42,81 51,110 20,63 38,71 29,12 z m -33,-186 c -18,-50 -73,-97 -73,-63 0,6 4,10 9,10 5,0 19,16 31,35 23,36 44,48 33,18 z M 4621,6308 c -23,-22 -46,-36 -52,-32 -6,4 9,24 38,49 59,53 72,37 14,-17 z m 3332,19 c 49,-45 56,-57 33,-57 -12,0 -96,82 -96,95 0,14 21,1 63,-38 z"
           id="path35"
           sodipodi:nodetypes="ccccccccccccccccccccccccccsccccccscccccccccccccccccssccccscccccccsccccsccccccccccscccccccsccccccsccccccscsssccccccccccsccccccscccscscccccscccccsccsccccsscccscccssc"
           inkscape:label="back_neck_arms_hands" />
        <g
           id="g61"
           inkscape:label="floating_fingers">
          <g
             id="g63"
             inkscape:label="left"
             style="display:inline">
            <path
               d="m 4670,5406 c 0,-11 41,-88 62,-118 34,-49 39,-30 6,25 -36,59 -68,103 -68,93 z"
               id="path44"
               inkscape:label="left_artifact_1" />
            <path
               d="m 4810,5679 c 0,-21 30,-122 36,-117 8,9 -9,98 -22,115 -11,15 -13,16 -14,2 z"
               id="path42"
               inkscape:label="left_finger_1_secondary" />
            <path
               d="m 4774,5760 c -4,-19 -7,-74 -7,-122 1,-74 7,-100 38,-180 29,-74 45,-100 76,-127 46,-38 57,-36 35,8 -9,16 -16,35 -16,40 0,6 -20,38 -45,72 -49,67 -59,96 -20,59 l 25,-23 v 22 c 0,14 -7,25 -19,28 -26,7 -55,111 -47,168 4,23 3,52 -2,66 -9,23 -10,23 -18,-11 z"
               id="path41"
               inkscape:label="left_finger_1_main" />
          </g>
          <g
             id="g62"
             inkscape:label="right"
             style="display:inline">
            <path
               d="m 7845,5353 c -16,-26 -35,-59 -44,-73 l -15,-25 28,25 c 26,23 72,108 62,117 -2,2 -16,-18 -31,-44 z"
               id="path45"
               inkscape:label="right_artifact_1" />
            <path
               d="m 7725,5673 c -4,-10 -10,-43 -15,-73 -4,-30 -11,-68 -16,-85 l -7,-30 22,19 c 13,12 19,26 16,37 -3,10 1,44 10,77 8,33 15,63 15,66 0,13 -18,5 -25,-11 z"
               id="path43"
               inkscape:label="right_finger_1_secondary" />
            <path
               d="m 7760,5714 c 0,-48 -5,-105 -12,-127 -10,-32 -10,-41 0,-45 15,-5 5,-22 -57,-107 -37,-49 -68,-121 -58,-132 3,-3 24,10 46,28 28,24 46,49 57,84 9,28 25,67 35,87 20,40 25,122 13,237 -10,89 -24,75 -24,-25 z"
               id="path40"
               inkscape:label="right_finger_1_main"
               style="display:inline" />
          </g>
        </g>
      </g>
      <g
         id="g60"
         inkscape:label="head"
         style="display:inline">
        <path
           d="m 6110,11700 c -98,-26 -166,-61 -225,-112 -50,-44 -95,-124 -95,-170 0,-15 -9,-42 -20,-61 -42,-71 -34,-300 14,-402 33,-69 56,-144 55,-174 0,-16 -12,7 -30,58 -32,94 -45,114 -55,87 -4,-9 5,-42 19,-74 14,-31 31,-79 37,-107 6,-27 16,-56 23,-63 6,-8 15,-38 18,-66 5,-31 7,2 6,86 -1,75 1,134 4,130 3,-4 27,-62 54,-129 70,-179 70,-180 149,-188 96,-10 473,-2 486,11 11,11 42,89 66,168 9,26 40,99 70,162 29,62 63,147 76,188 21,71 21,80 9,188 -21,183 -45,247 -126,337 -20,21 -50,44 -68,51 -17,8 -39,19 -48,27 -9,7 -49,25 -90,39 -104,36 -229,41 -329,14 z m 240,-30 c -14,-4 -37,-8 -51,-9 -14,-1 -67,-21 -118,-46 -108,-53 -186,-121 -228,-201 -26,-50 -43,-68 -43,-44 0,23 32,86 65,126 78,94 247,184 345,183 42,-1 49,-3 30,-9 z m -300,-46 c -69,-45 -133,-106 -156,-150 -24,-45 -38,-44 -19,2 27,65 82,121 160,163 64,34 74,24 15,-15 z m 507,-19 c 46,-19 36,-31 -13,-15 -24,8 -62,10 -106,6 -40,-4 -68,-2 -68,3 0,23 135,28 187,6 z m -689,-112 c -12,-28 -22,-70 -22,-100 -1,-58 -11,-68 -27,-25 -11,30 -5,98 12,122 9,12 10,10 6,-7 -7,-34 0,-28 23,17 28,55 33,50 8,-7 z m 697,23 c 0,-5 -30,-8 -66,-7 -158,6 -369,-82 -434,-182 -31,-45 -46,-37 -21,11 32,63 128,125 261,168 56,19 88,23 165,21 52,-1 95,-6 95,-11 z m 76,-72 c 30,-15 57,-44 40,-44 -6,0 -25,9 -43,20 -18,11 -43,20 -55,20 -34,0 -57,11 -42,21 16,9 64,1 100,-17 z m -16,-68 c 36,-23 25,-31 -21,-16 -52,18 -195,8 -262,-18 -57,-22 -69,-9 -16,17 87,44 245,52 299,17 z m -731,-101 c 29,-14 74,-28 100,-31 25,-4 49,-11 52,-15 7,-13 -84,-11 -131,2 -46,13 -125,86 -125,115 0,15 6,12 26,-14 14,-17 49,-43 78,-57 z m -74,-117 c 0,-81 18,-153 75,-307 67,-183 50,-179 -23,5 -64,161 -90,274 -76,337 10,48 24,29 24,-35 z m 808,-196 c -3,-31 -17,-90 -31,-130 -27,-78 -27,-91 -1,-39 10,17 19,27 21,20 5,-15 -61,-135 -84,-155 -14,-11 -16,-11 -10,7 50,168 70,240 80,293 15,78 32,81 25,4 z m -660,-114 c 27,-88 34,-135 23,-143 -6,-3 -13,7 -17,22 -3,15 -14,61 -25,101 -22,84 -22,82 -9,82 5,0 18,-28 28,-62 z"
           id="path33"
           inkscape:label="hair_right_ear" />
        <path
           d="m 6738,10903 c -48,-74 -58,-116 -56,-231 1,-59 3,-87 5,-62 3,25 12,54 23,65 10,11 22,38 25,60 4,22 19,67 32,99 23,55 25,106 4,106 -5,0 -19,-17 -33,-37 z m -3,-98 c -17,-65 -25,-80 -25,-45 0,26 30,113 37,107 2,-2 -3,-30 -12,-62 z"
           id="path34"
           inkscape:label="right_ear" />
      </g>
    </g>
  </g>
  <g
     id="g56"
     inkscape:label="skinfold_sites"
     style="display:inline">
    <circle
       cx="160.7"
       cy="806.79999"
       r="11.5"
       fill="#bd0100"
       opacity="0.9"
       id="circle49"
       inkscape:label="skinfold_thigh" />
    <circle
       cx="159.60001"
       cy="575.29999"
       r="11.5"
       fill="#bd0100"
       opacity="0.9"
       id="circle50"
       inkscape:label="skinfold_suprailiac" />
    <circle
       cx="194"
       cy="530"
       r="11.5"
       fill="#bd0100"
       opacity="0.9"
       id="circle51"
       inkscape:label="skinfold_abdomen" />
    <circle
       cx="131.5"
       cy="429.60001"
       r="11.5"
       fill="#bd0100"
       opacity="0.9"
       id="circle52"
       inkscape:label="skinfold_midaxillary" />
    <circle
       cx="85.699997"
       cy="418.60001"
       r="11.5"
       fill="#bd0100"
       opacity="0.9"
       id="circle53"
       inkscape:label="skinfold_bicep" />
    <circle
       cx="778.29999"
       cy="418"
       r="11.5"
       fill="#bd0100"
       opacity="0.9"
       id="circle54"
       inkscape:label="skinfold_tricep" />
    <circle
       cx="665.79999"
       cy="396.5"
       r="11.5"
       fill="#bd0100"
       opacity="0.9"
       id="circle55"
       inkscape:label="skinfold_subscapular" />
    <circle
       cx="138.10001"
       cy="379.29999"
       r="11.5"
       fill="#bd0100"
       opacity="0.9"
       id="circle56"
       inkscape:label="skinfold_chest" />
  </g>
</svg>
