<?xml version="1.0" encoding="UTF-8"?>
<!-- Generator: visioncortex VTracer -->
<svg id="svg" version="1.1" xmlns="http://www.w3.org/2000/svg" style="display: block;" viewBox="0 0 500 500"><path d="M0 0 C3.3 0 6.6 0 10 0 C13.96 1.65 17.92 3.3 22 5 C24.97 6.98 27.94 8.96 31 11 C31 11.66 31 12.32 31 13 C32.98 13.99 32.98 13.99 35 15 C36.98 16.485 36.98 16.485 39 18 C46.26 18 53.52 18 61 18 C66.28 18.66 71.56 19.32 77 20 C82.61 21.65 88.22 23.3 94 25 C100.93 27.97 107.86 30.94 115 34 C120.61 36.97 126.22 39.94 132 43 C139.425 47.455 139.425 47.455 147 52 C148.32 52.66 149.64 53.32 151 54 C151 54.66 151 55.32 151 56 C152.65 56.66 154.3 57.32 156 58 C159.96 62.455 159.96 62.455 164 67 C165.98 71.62 167.96 76.24 170 81 C170.99 84.3 171.98 87.6 173 91 C173.99 92.32 174.98 93.64 176 95 C176 95.66 176 96.32 176 97 C176.66 97 177.32 97 178 97 C180.31 99.64 182.62 102.28 185 105 C187.31 107.31 189.62 109.62 192 112 C192 112.66 192 113.32 192 114 C192.66 114 193.32 114 194 114 C195.32 115.65 196.64 117.3 198 119 C198 119.66 198 120.32 198 121 C198.66 121 199.32 121 200 121 C203.3 125.95 206.6 130.9 210 136 C210.99 138.97 211.98 141.94 213 145 C211.68 148.96 210.36 152.92 209 157 C207.02 160.3 205.04 163.6 203 167 C201.68 170.3 200.36 173.6 199 177 C197.35 180.3 195.7 183.6 194 187 C193.34 187 192.68 187 192 187 C191.34 188.32 190.68 189.64 190 191 C189.67 191.33 189.34 191.66 189 192 C188.34 196.62 187.68 201.24 187 206 C185.35 209.3 183.7 212.6 182 216 C179.36 218.97 176.72 221.94 174 225 C168.06 227.97 168.06 227.97 162 231 C161.01 231.33 160.02 231.66 159 232 C154.38 232 149.76 232 145 232 C143.02 231.01 141.04 230.02 139 229 C136.03 226.03 133.06 223.06 130 220 C126.7 218.02 123.4 216.04 120 214 C115.38 212.68 110.76 211.36 106 210 C104.02 209.67 102.04 209.34 100 209 C96.04 209 92.08 209 88 209 C83.38 209.99 78.76 210.98 74 212 C70.7 213.32 67.4 214.64 64 216 C60.37 218.64 56.74 221.28 53 224 C51.02 224.99 51.02 224.99 49 226 C49 226.66 49 227.32 49 228 C48.34 228 47.68 228 47 228 C46.34 229.65 45.68 231.3 45 233 C42.525 236.465 42.525 236.465 40 240 C37.525 246.93 37.525 246.93 35 254 C34.67 255.98 34.34 257.96 34 260 C34 265.61 34 271.22 34 277 C34.99 281.62 35.98 286.24 37 291 C38.98 295.29 40.96 299.58 43 304 C43 306.64 43 309.28 43 312 C40.69 312.33 38.38 312.66 36 313 C33.36 311.02 30.72 309.04 28 307 C25.03 305.02 25.03 305.02 22 303 C22 302.34 22 301.68 22 301 C20.68 300.34 19.36 299.68 18 299 C17.01 298.34 16.02 297.68 15 297 C15 296.34 15 295.68 15 295 C13.68 294.34 12.36 293.68 11 293 C8.36 290.69 5.72 288.38 3 286 C0.69 283.36 -1.62 280.72 -4 278 C-7.63 274.04 -11.26 270.08 -15 266 C-18.3 261.38 -21.6 256.76 -25 252 C-27.97 246.72 -30.94 241.44 -34 236 C-36.64 230.06 -39.28 224.12 -42 218 C-43.65 211.07 -45.3 204.14 -47 197 C-47.99 188.09 -47.99 188.09 -49 179 C-48.67 173.06 -48.34 167.12 -48 161 C-47.34 157.37 -46.68 153.74 -46 150 C-45.01 149.01 -44.02 148.02 -43 147 C-41.02 147.33 -39.04 147.66 -37 148 C-36.34 149.98 -35.68 151.96 -35 154 C-35.33 154.99 -35.66 155.98 -36 157 C-36 168.55 -36 180.1 -36 192 C-34.68 197.94 -33.36 203.88 -32 210 C-30.02 215.28 -28.04 220.56 -26 226 C-22.7 231.94 -19.4 237.88 -16 244 C-13.69 247.3 -11.38 250.6 -9 254 C-9 254.66 -9 255.32 -9 256 C-8.34 256 -7.68 256 -7 256 C-5.35 258.31 -3.7 260.62 -2 263 C-2 263.66 -2 264.32 -2 265 C-1.34 265 -0.68 265 0 265 C0 265.66 0 266.32 0 267 C0.66 267 1.32 267 2 267 C2 267.66 2 268.32 2 269 C2.66 269 3.32 269 4 269 C6.31 271.64 8.62 274.28 11 277 C14.96 280.63 18.92 284.26 23 288 C22.67 285.36 22.34 282.72 22 280 C22 272.74 22 265.48 22 258 C23.98 250.575 23.98 250.575 26 243 C27.98 239.04 29.96 235.08 32 231 C32.99 229.35 33.98 227.7 35 226 C35.66 226 36.32 226 37 226 C37.66 224.68 38.32 223.36 39 222 C39.33 221.34 39.66 220.68 40 220 C40.66 220 41.32 220 42 220 C42 219.34 42 218.68 42 218 C42.66 218 43.32 218 44 218 C44 217.34 44 216.68 44 216 C45.32 215.01 46.64 214.02 48 213 C48.66 213 49.32 213 50 213 C50 212.34 50 211.68 50 211 C53.3 209.02 56.6 207.04 60 205 C65.94 202.525 65.94 202.525 72 200 C74.64 199.34 77.28 198.68 80 198 C88.91 198 97.82 198 107 198 C111.62 199.32 116.24 200.64 121 202 C125.62 204.31 130.24 206.62 135 209 C138.96 212.465 138.96 212.465 143 216 C144.32 217.32 145.64 218.64 147 220 C147.66 220.33 148.32 220.66 149 221 C151.97 220.67 154.94 220.34 158 220 C160.64 218.68 163.28 217.36 166 216 C166.99 215.01 167.98 214.02 169 213 C169.66 213 170.32 213 171 213 C171.66 211.35 172.32 209.7 173 208 C173.99 206.02 174.98 204.04 176 202 C176 200.68 176 199.36 176 198 C173.36 198.66 170.72 199.32 168 200 C162.39 200 156.78 200 151 200 C147.04 198.35 143.08 196.7 139 195 C133.555 192.525 133.555 192.525 128 190 C122.72 190 117.44 190 112 190 C110.68 189.01 109.36 188.02 108 187 C108 185.02 108 183.04 108 181 C108.66 181 109.32 181 110 181 C110 180.34 110 179.68 110 179 C114.29 178.67 118.58 178.34 123 178 C125.97 178.33 128.94 178.66 132 179 C135.3 180.32 138.6 181.64 142 183 C144.31 184.32 146.62 185.64 149 187 C150.32 187.33 151.64 187.66 153 188 C157.62 188 162.24 188 167 188 C171.29 186.68 175.58 185.36 180 184 C180.99 183.67 181.98 183.34 183 183 C183.66 181.68 184.32 180.36 185 179 C186.32 176.03 187.64 173.06 189 170 C189 167.69 189 165.38 189 163 C187.35 161.35 185.7 159.7 184 158 C182.35 156.68 180.7 155.36 179 154 C177.68 152.02 176.36 150.04 175 148 C175 145.36 175 142.72 175 140 C176.98 139.67 178.96 139.34 181 139 C181.99 139.66 182.98 140.32 184 141 C190.93 140.01 190.93 140.01 198 139 C196.02 136.03 194.04 133.06 192 130 C189.03 126.7 186.06 123.4 183 120 C182.34 118.68 181.68 117.36 181 116 C180.34 116 179.68 116 179 116 C176.69 113.36 174.38 110.72 172 108 C171.01 107.01 170.02 106.02 169 105 C169 104.34 169 103.68 169 103 C168.34 103 167.68 103 167 103 C165.35 100.36 163.7 97.72 162 95 C159.69 88.4 157.38 81.8 155 75 C154.34 73.35 153.68 71.7 153 70 C152.34 70 151.68 70 151 70 C151 69.34 151 68.68 151 68 C149.68 67.34 148.36 66.68 147 66 C143.37 63.69 139.74 61.38 136 59 C132.04 56.69 128.08 54.38 124 52 C123.01 51.67 122.02 51.34 121 51 C121 50.34 121 49.68 121 49 C119.68 48.67 118.36 48.34 117 48 C109.08 44.37 101.16 40.74 93 37 C87.39 35.35 81.78 33.7 76 32 C71.05 31.34 66.1 30.68 61 30 C57.7 30 54.4 30 51 30 C53.31 31.32 55.62 32.64 58 34 C60.31 34.99 62.62 35.98 65 37 C65 39.31 65 41.62 65 44 C64.01 44.66 63.02 45.32 62 46 C59.36 45.67 56.72 45.34 54 45 C50.7 43.35 47.4 41.7 44 40 C42.35 38.68 40.7 37.36 39 36 C39 35.34 39 34.68 39 34 C38.34 34 37.68 34 37 34 C37 33.34 37 32.68 37 32 C36.34 32 35.68 32 35 32 C35 31.34 35 30.68 35 30 C33.02 29.01 33.02 29.01 31 28 C30.01 27.01 29.02 26.02 28 25 C28 24.34 28 23.68 28 23 C27.34 23 26.68 23 26 23 C26 22.34 26 21.68 26 21 C24.02 20.01 24.02 20.01 22 19 C18.7 17.02 15.4 15.04 12 13 C10.02 12.505 10.02 12.505 8 12 C5.69 12 3.38 12 1 12 C-1.475 14.475 -1.475 14.475 -4 17 C-4.66 18.98 -5.32 20.96 -6 23 C-6 25.64 -6 28.28 -6 31 C-4.02 38.92 -4.02 38.92 -2 47 C-1.67 49.97 -1.34 52.94 -1 56 C0.98 58.97 0.98 58.97 3 62 C5.31 63.65 7.62 65.3 10 67 C10.33 67.66 10.66 68.32 11 69 C11 70.98 11 72.96 11 75 C10.34 75.66 9.68 76.32 9 77 C7.02 77 5.04 77 3 77 C0.36 74.69 -2.28 72.38 -5 70 C-7.475 67.03 -7.475 67.03 -10 64 C-10.99 62.02 -10.99 62.02 -12 60 C-12.99 54.39 -13.98 48.78 -15 43 C-15.99 43 -16.98 43 -18 43 C-21.3 44.98 -24.6 46.96 -28 49 C-28.66 49 -29.32 49 -30 49 C-30 49.66 -30 50.32 -30 51 C-33.96 53.64 -37.92 56.28 -42 59 C-43.485 59.495 -43.485 59.495 -45 60 C-45 60.66 -45 61.32 -45 62 C-46.65 63.32 -48.3 64.64 -50 66 C-50.66 66 -51.32 66 -52 66 C-52 66.66 -52 67.32 -52 68 C-54.64 70.31 -57.28 72.62 -60 75 C-61.98 75.99 -61.98 75.99 -64 77 C-64 77.66 -64 78.32 -64 79 C-66.64 81.31 -69.28 83.62 -72 86 C-77.94 91.94 -83.88 97.88 -90 104 C-92.31 106.64 -94.62 109.28 -97 112 C-99.64 114.64 -102.28 117.28 -105 120 C-105.33 120.66 -105.66 121.32 -106 122 C-106.66 122 -107.32 122 -108 122 C-108 122.66 -108 123.32 -108 124 C-108.66 124 -109.32 124 -110 124 C-110.66 125.32 -111.32 126.64 -112 128 C-112.99 128.33 -113.98 128.66 -115 129 C-115.66 130.32 -116.32 131.64 -117 133 C-117.66 133 -118.32 133 -119 133 C-119 133.66 -119 134.32 -119 135 C-119.66 135 -120.32 135 -121 135 C-121 135.66 -121 136.32 -121 137 C-121.66 137 -122.32 137 -123 137 C-123 137.66 -123 138.32 -123 139 C-123.66 139 -124.32 139 -125 139 C-125 139.66 -125 140.32 -125 141 C-127.64 143.31 -130.28 145.62 -133 148 C-136.3 150.97 -139.6 153.94 -143 157 C-145.475 158.98 -145.475 158.98 -148 161 C-150.31 161.33 -152.62 161.66 -155 162 C-155.66 161.67 -156.32 161.34 -157 161 C-157.33 159.02 -157.66 157.04 -158 155 C-156.515 153.02 -156.515 153.02 -155 151 C-154.34 151 -153.68 151 -153 151 C-153 150.34 -153 149.68 -153 149 C-150.69 147.35 -148.38 145.7 -146 144 C-145.34 144 -144.68 144 -144 144 C-144 143.34 -144 142.68 -144 142 C-143.34 142 -142.68 142 -142 142 C-142 141.34 -142 140.68 -142 140 C-139.36 137.69 -136.72 135.38 -134 133 C-127.07 126.07 -120.14 119.14 -113 112 C-112.67 111.34 -112.34 110.68 -112 110 C-111.34 110 -110.68 110 -110 110 C-109.34 108.68 -108.68 107.36 -108 106 C-93.48 91.48 -78.96 76.96 -64 62 C-60.37 59.03 -56.74 56.06 -53 53 C-48.71 49.7 -44.42 46.4 -40 43 C-32.08 38.05 -32.08 38.05 -24 33 C-22.02 32.01 -20.04 31.02 -18 30 C-17.67 25.71 -17.34 21.42 -17 17 C-15.68 14.36 -14.36 11.72 -13 9 C-10.525 6.525 -10.525 6.525 -8 4 C-5.36 2.68 -2.72 1.36 0 0 Z M194 150 C194.66 151.32 195.32 152.64 196 154 C196.66 154.33 197.32 154.66 198 155 C198.33 153.35 198.66 151.7 199 150 C197.35 150 195.7 150 194 150 Z " transform="translate(224,93)" style="fill: #474D57;"/><path d="M0 0 C2.97 0.495 2.97 0.495 6 1 C6.33 1.33 6.66 1.66 7 2 C7 3.98 7 5.96 7 8 C5.35 10.64 3.7 13.28 2 16 C0.35 20.29 -1.3 24.58 -3 29 C-3.66 32.3 -4.32 35.6 -5 39 C-5 43.29 -5 47.58 -5 52 C-4.34 54.97 -3.68 57.94 -3 61 C-2.01 63.64 -1.02 66.28 0 69 C1.98 71.64 3.96 74.28 6 77 C10.455 80.465 10.455 80.465 15 84 C17.64 84.99 20.28 85.98 23 87 C27.29 87.66 31.58 88.32 36 89 C41.94 88.505 41.94 88.505 48 88 C52.95 87.505 52.95 87.505 58 87 C59.485 87.99 59.485 87.99 61 89 C61.33 90.32 61.66 91.64 62 93 C61.01 94.98 61.01 94.98 60 97 C56.7 97.99 53.4 98.98 50 100 C42.41 100 34.82 100 27 100 C22.71 98.68 18.42 97.36 14 96 C11.03 94.35 8.06 92.7 5 91 C1.7 88.03 -1.6 85.06 -5 82 C-6.98 79.03 -8.96 76.06 -11 73 C-12.32 69.7 -13.64 66.4 -15 63 C-15.66 59.04 -16.32 55.08 -17 51 C-17 47.04 -17 43.08 -17 39 C-15.515 32.07 -15.515 32.07 -14 25 C-12.35 20.71 -10.7 16.42 -9 12 C-7.35 9.03 -5.7 6.06 -4 3 C-3.34 3 -2.68 3 -2 3 C-2 2.34 -2 1.68 -2 1 C-1.34 0.67 -0.68 0.34 0 0 Z " transform="translate(233,191)" style="fill: #494D58;"/><path d="M0 0 C5.61 0 11.22 0 17 0 C22.94 0.99 22.94 0.99 29 2 C29.66 2.66 30.32 3.32 31 4 C31 5.98 31 7.96 31 10 C30.67 10.66 30.34 11.32 30 12 C29.34 12 28.68 12 28 12 C28 14.31 28 16.62 28 19 C30.31 21.97 32.62 24.94 35 28 C35.33 28.33 35.66 28.66 36 29 C36 30.98 36 32.96 36 35 C35.34 35.66 34.68 36.32 34 37 C32.02 37 30.04 37 28 37 C25.69 34.69 23.38 32.38 21 30 C17.37 29.67 13.74 29.34 10 29 C8.02 28.01 6.04 27.02 4 26 C2.35 24.35 0.7 22.7 -1 21 C-3.64 18.03 -6.28 15.06 -9 12 C-10.32 11.01 -11.64 10.02 -13 9 C-13 7.02 -13 5.04 -13 3 C-12.34 2.34 -11.68 1.68 -11 1 C-5.555 0.505 -5.555 0.505 0 0 Z M6 11 C6.66 12.32 7.32 13.64 8 15 C10.475 16.98 10.475 16.98 13 19 C14.32 18.34 15.64 17.68 17 17 C17 15.02 17 13.04 17 11 C13.37 11 9.74 11 6 11 Z " transform="translate(341,171)" style="fill: #474C57;"/></svg>