<?xml version="1.0" encoding="UTF-8"?>
<!-- Generator: visioncortex VTracer -->
<svg
    id="svg"
    version="1.1"
    xmlns="http://www.w3.org/2000/svg"
    viewBox="0 0 1121 1121"
    preserveAspectRatio="xMidYMid meet"
    style="display:block;"
>

  <!--
    Original artwork height ≈ 944
    Square canvas height = 1121
    Vertical offset = (1121 - 944) / 2 = 88.5

    Additional horizontal correction applied so the
    centre spine aligns perfectly with canvas centre.
  -->

  <g transform="translate(14.5 121)">

<!-- Left Tall Polygon -->
    <path d="M0,0 L202,0 L200,9 L188,45 L180,69 L166,110 L149,161 L137,197 L125,233 L113,269 L101,305 L89,341 L77,377 L66,411 L54,447 L41,487 L35,505 L27,529 L15,565 L1,608 L-4,623 L-10,641 L-22,677 L-30,702 L-33,711 L-288,711 L-286,702 L-273,662 L-261,626 L-254,606 L-241,566 L-228,528 L-214,485 L-202,449 L-190,414 L-177,374 L-174,366 L-160,323 L-148,288 L-134,245 L-120,204 L-107,164 L-94,126 L-82,90 L-72,60 L-64,44 L-57,33 L-43,19 L-28,9 L-13,3 Z"
          transform="translate(304,84)"
          style="fill:#FFFFFF;" />

<!-- Centre Right Polygon -->
    <path d="M120,0 L358,0 L346,36 L334,71 L322,107 L310,143 L302,160 L293,173 L284,183 L273,194 L258,204 L243,211 L229,215 L213,218 L-17,218 L-14,206 L-1,169 L13,126 L30,75 L36,61 L45,47 L53,37 L65,25 L81,14 L95,7 L115,1 Z"
          transform="translate(520,335)"
          style="fill:#FFFFFF;" />
    
<!-- Top Right Polygon -->
    <path d="M0,0 L470,0 L467,10 L452,53 L435,101 L419,146 L410,163 L401,175 L390,187 L380,196 L366,205 L349,213 L335,217 L324,219 L-140,219 L-137,208 L-116,146 L-95,84 L-89,68 L-79,49 L-69,36 L-59,26 L-47,17 L-31,8 L-16,3 Z"
          transform="translate(606,84)"
          style="fill:#FFFFFF;" />

<!-- Bottom Right Polygon -->
    <path d="M0,0 L482,0 L480,8 L468,44 L450,99 L438,135 L428,156 L416,172 L403,185 L389,195 L370,204 L352,209 L344,210 L-135,210 L-132,201 L-119,160 L-116,153 L-111,136 L-99,100 L-89,71 L-81,55 L-72,42 L-61,30 L-52,22 L-38,13 L-23,6 L-11,2 Z"
          transform="translate(438,585)"
          style="fill:#FFFFFF;" />

  </g>

</svg>