<?xml version="1.0" encoding="UTF-8"?>
<!-- Generator: visioncortex VTracer -->
<svg id="svg" version="1.1" xmlns="http://www.w3.org/2000/svg" style="display: block;" viewBox="0 0 500 500"><path d="M0 0 C165 0 330 0 500 0 C500 165 500 330 500 500 C335 500 170 500 0 500 C0 335 0 170 0 0 Z " transform="translate(0,0)" style="fill: #FEFEFB;"/><path d="M0 0 C3.22066405 1.08318298 4.92552258 2.64589317 7.42578125 4.94140625 C12.590629 9.3543646 17.88773328 12.29978297 24.04223633 15.13891602 C29.40039616 17.63035738 33.9642559 19.77001604 36.2734375 25.5234375 C36.75668552 26.90734395 37.22384203 28.29696132 37.67578125 29.69140625 C39.08993892 33.91011189 40.49098741 37.84200729 42.78515625 41.671875 C44.61328125 44.87890625 44.61328125 44.87890625 44.80078125 48.37890625 C42.05791241 56.46315124 33.25046001 62.39855482 25.92578125 66.31640625 C22.90954852 67.05008448 21.54154738 66.9944362 18.61328125 65.87890625 C17.52587895 64.97040818 16.46594998 64.02862323 15.42578125 63.06640625 C8.16989081 56.43244927 -1.56969263 54.39520253 -11.125 54.56640625 C-14.90787239 54.92883714 -17.49518535 55.3768338 -20.41796875 57.85546875 C-22.3568368 61.9052012 -20.9501819 66.27323886 -20.0703125 70.50390625 C-19.4782008 73.4272463 -19.25761431 75.91511731 -19.38671875 78.87890625 C-18.16984375 79.27078125 -16.95296875 79.66265625 -15.69921875 80.06640625 C-13.92641375 80.66476273 -12.15580286 81.26963662 -10.38671875 81.87890625 C-9.36191406 82.23082031 -8.33710938 82.58273437 -7.28125 82.9453125 C3.79132942 86.95366562 12.09799644 92.05466204 20.15625 100.62109375 C22.99769621 103.23215243 25.96195581 105.01297932 29.30078125 106.94140625 C34.66199386 110.11795611 39.08243068 113.01393516 41.61328125 118.87890625 C42.31459469 122.04528411 42.65587976 124.78023358 41.61328125 127.87890625 C38.86290386 130.80921487 37.1392391 131.78728011 33.16015625 132.48046875 C24.65568575 132.53296548 19.20561121 131.61007599 12.61328125 125.87890625 C11.62328125 125.21890625 10.63328125 124.55890625 9.61328125 123.87890625 C10.46792969 124.79414063 11.32257813 125.709375 12.203125 126.65234375 C13.31913046 127.85275299 14.43500933 129.05327993 15.55078125 130.25390625 C16.11474609 130.8571875 16.67871094 131.46046875 17.25976562 132.08203125 C17.79794922 132.66210938 18.33613281 133.2421875 18.890625 133.83984375 C19.63687134 134.64107666 19.63687134 134.64107666 20.39819336 135.45849609 C23.11748709 138.63728872 22.93857954 141.66179886 22.90625 145.68359375 C22.61328125 147.87890625 22.61328125 147.87890625 20.73828125 150.37890625 C16.86148208 153.11547037 14.37996987 153.191476 9.61328125 152.87890625 C0.0287531 150.16630394 -7.08452946 142.15218171 -12.23828125 133.9375 C-13.38671875 131.87890625 -13.38671875 131.87890625 -14.69921875 128.75390625 C-16.94210967 124.93268468 -19.94073786 122.93156257 -23.5234375 120.39453125 C-24.13832031 119.894375 -24.75320313 119.39421875 -25.38671875 118.87890625 C-25.38671875 118.21890625 -25.38671875 117.55890625 -25.38671875 116.87890625 C-26.71943308 116.21100301 -28.05293588 115.54467308 -29.38671875 114.87890625 C-31.10977517 113.41988849 -32.7951627 111.91570644 -34.44921875 110.37890625 C-38.92103849 106.23658902 -41.981497 103.77227514 -48.04296875 102.6953125 C-49.14769531 102.48970703 -50.25242187 102.28410156 -51.390625 102.07226562 C-53.72067459 101.65181534 -56.05140952 101.23514537 -58.3828125 100.82226562 C-60.03990234 100.51192383 -60.03990234 100.51192383 -61.73046875 100.1953125 C-63.24930664 99.92376343 -63.24930664 99.92376343 -64.79882812 99.64672852 C-67.55187905 98.8299035 -68.72729918 98.20230566 -70.38671875 95.87890625 C-70.38671875 94.88890625 -70.38671875 93.89890625 -70.38671875 92.87890625 C-71.19109375 93.03875 -71.99546875 93.19859375 -72.82421875 93.36328125 C-90.53246628 95.92631708 -106.50920601 92.01883026 -123.1640625 86.30859375 C-133.5636197 82.34597964 -133.5636197 82.34597964 -144.38671875 81.87890625 C-146.13743383 84.35287774 -147.35789479 86.48726109 -148.63671875 89.19140625 C-157.1521334 105.61827963 -168.73795769 113.31769841 -185.69921875 120.06640625 C-187.80094319 120.910426 -189.90125979 121.75796178 -192 122.609375 C-192.91563721 122.97442139 -193.83127441 123.33946777 -194.7746582 123.71557617 C-197.46034074 124.91169518 -199.89880961 126.31697887 -202.38671875 127.87890625 C-201.06082159 132.5195463 -199.70030802 136.31679778 -196.38671875 139.87890625 C-193.88623716 140.35020121 -191.46619036 140.4463456 -188.92578125 140.5625 C-184.82580979 141.07341952 -182.1620955 142.87995749 -179.38671875 145.87890625 C-176.92448768 150.24738073 -175.70265845 153.86246402 -176.38671875 158.87890625 C-177.55175781 160.51928711 -177.55175781 160.51928711 -179.38671875 161.87890625 C-183.60294224 162.58121671 -187.8685288 162.43443208 -192.13671875 162.44140625 C-193.88855469 162.49651367 -193.88855469 162.49651367 -195.67578125 162.55273438 C-205.32442339 162.60196214 -205.32442339 162.60196214 -209.40234375 159.22265625 C-210.43460175 158.14267945 -211.43209028 157.02807593 -212.38671875 155.87890625 C-213.25296875 154.89792969 -214.11921875 153.91695312 -215.01171875 152.90625 C-230.67776426 132.52493093 -230.67776426 132.52493093 -229.8046875 121.19140625 C-229.23374117 118.03252563 -228.6426669 116.20762692 -226.38671875 113.87890625 C-224.72668174 113.13026211 -223.06056273 112.38941024 -221.35546875 111.75 C-215.64349275 109.22267729 -210.96043836 104.9416757 -207.38671875 99.87890625 C-207.98097656 100.1934375 -208.57523438 100.50796875 -209.1875 100.83203125 C-210.01636719 101.26 -210.84523437 101.68796875 -211.69921875 102.12890625 C-212.49972656 102.5465625 -213.30023438 102.96421875 -214.125 103.39453125 C-221.78590523 106.88093124 -229.16356654 109.17316526 -237.45703125 110.5546875 C-238.2695787 110.69033112 -239.08212616 110.82597473 -239.91929626 110.96572876 C-243.30248126 111.52165457 -246.68673429 112.06647285 -250.07666016 112.57983398 C-263.33034639 114.61270922 -271.21207632 117.47622967 -279.875 128.1328125 C-282.71660939 131.41498148 -286.05998179 134.10563358 -289.38671875 136.87890625 C-290.13824219 137.54148437 -290.88976562 138.2040625 -291.6640625 138.88671875 C-300.89531681 146.75647526 -311.14595791 151.94154767 -323.38671875 152.12890625 C-324.90265625 152.16757812 -324.90265625 152.16757812 -326.44921875 152.20703125 C-329.82426123 151.83003182 -331.65490582 150.85644871 -334.38671875 148.87890625 C-336.73090396 145.64169811 -336.98846693 142.79026942 -336.38671875 138.87890625 C-334.71456956 135.90355181 -332.6545957 133.41953455 -330.38671875 130.87890625 C-329.62681641 129.98365234 -329.62681641 129.98365234 -328.8515625 129.0703125 C-324.37852534 124.48737271 -320.40575067 124.37655429 -314.18359375 124.12890625 C-306.58662227 123.44984735 -300.85798504 115.82747487 -296.22265625 110.296875 C-294.70025221 108.42656764 -293.18205263 106.55283045 -291.66796875 104.67578125 C-281.41282617 92.10269548 -281.41282617 92.10269548 -273.76171875 91.06640625 C-256.81243108 88.22810511 -246.12497786 75.163394 -236.26171875 62.0546875 C-235.64296875 61.33667969 -235.02421875 60.61867187 -234.38671875 59.87890625 C-233.72671875 59.87890625 -233.06671875 59.87890625 -232.38671875 59.87890625 C-232.38671875 59.21890625 -232.38671875 58.55890625 -232.38671875 57.87890625 C-233.27230469 58.25402344 -234.15789062 58.62914062 -235.0703125 59.015625 C-243.39052606 62.47565093 -251.73377551 65.27889704 -260.40234375 67.7265625 C-263.75725451 68.67775415 -267.03719065 69.77460208 -270.32421875 70.94140625 C-275.34395509 72.64700727 -280.40716239 73.90528784 -285.57421875 75.06640625 C-286.3108374 75.23342041 -287.04745605 75.40043457 -287.80639648 75.57250977 C-306.24259462 79.57357455 -327.63034125 80.58871714 -344.38671875 70.69140625 C-354.25587195 63.71186998 -359.60008706 55.23880131 -363.38671875 43.87890625 C-364.26517203 33.57397351 -362.43032829 25.73184929 -355.921875 17.65625 C-353.84176404 15.24797904 -351.75163802 13.01310169 -349.38671875 10.87890625 C-348.89816406 10.41226563 -348.40960938 9.945625 -347.90625 9.46484375 C-343.4309614 5.65925392 -339.61639885 5.34561373 -333.83984375 5.41015625 C-330.98769671 5.9551525 -330.05400519 6.52635969 -328.38671875 8.87890625 C-327.79694336 12.81074217 -327.4612113 15.33003296 -329.5234375 18.78125 C-331.96745072 21.71278292 -334.67336965 24.17237052 -337.63671875 26.56640625 C-340.85040687 29.2688258 -342.13275277 31.08933199 -342.72265625 35.24609375 C-342.81199253 40.98148306 -342.46147917 44.4985388 -338.38671875 48.87890625 C-328.21008091 56.80388019 -316.32493496 56.99944063 -303.97021484 55.60644531 C-289.76919152 53.60566254 -276.21637787 49.284214 -262.6015625 44.90917969 C-243.41060052 38.75897772 -224.24961164 33.14656259 -204.38671875 29.62890625 C-203.46761719 29.46559814 -202.54851562 29.30229004 -201.6015625 29.1340332 C-190.28891219 27.2245148 -179.09666837 26.71540698 -167.63671875 26.75390625 C-166.47011719 26.75003906 -165.30351562 26.74617188 -164.1015625 26.7421875 C-154.6495946 26.75289188 -154.6495946 26.75289188 -150.265625 27.37109375 C-129.16010839 30.13415232 -107.89907205 28.45192414 -89.27880859 17.93408203 C-86.19648964 16.21514235 -83.04321053 14.64358185 -79.88671875 13.06640625 C-78.2934375 12.25236328 -78.2934375 12.25236328 -76.66796875 11.421875 C-62.19118665 4.61434056 -47.65681358 3.59211447 -31.88671875 3.56640625 C-31.1891748 3.56291168 -30.49163086 3.55941711 -29.77294922 3.55581665 C-22.07195012 3.53443755 -14.84778223 3.80730566 -7.38671875 5.87890625 C-7.11859375 5.26015625 -6.85046875 4.64140625 -6.57421875 4.00390625 C-4.92207983 1.04744712 -3.44662343 -0.1748696 0 0 Z " transform="translate(406.38671875,175.12109375)" style="fill: #276144;"/><path d="M0 0 C2.85552763 1.2979671 4.88108294 2.69873873 7.125 4.875 C9.92110015 7.35376973 12.43196529 8.71840667 15.9375 10 C20.87909929 11.81343093 25.32393593 14.1607686 29 18 C29.71484375 20.1875 29.71484375 20.1875 30 22 C27.36 22 24.72 22 22 22 C23.75454385 25.18234105 23.75454385 25.18234105 26 28 C27.0725 27.835 28.145 27.67 29.25 27.5 C33 28 33 28 34.64453125 29.859375 C36.06783548 32.25899535 37.25513455 34.3059956 38 37 C36.48750926 41.62489944 32.69628861 44.99627915 29 48 C26.0625 49.3125 26.0625 49.3125 23 49 C20.98211027 47.69269898 19.1846763 46.21676152 17.3359375 44.6796875 C14.66513588 42.75921142 12.06618282 41.68167751 9 40.5 C4.20348391 38.63839388 0.52657084 36.47107231 -3.37890625 33.13671875 C-5.07939781 31.71293789 -5.07939781 31.71293789 -8 32 C-8.03738281 32.77214844 -8.07476562 33.54429687 -8.11328125 34.33984375 C-9 37 -9 37 -11.73046875 38.44140625 C-12.87128906 38.81136719 -14.01210938 39.18132812 -15.1875 39.5625 C-22.17243106 41.7787804 -22.17243106 41.7787804 -28 46 C-28.59535786 49.63691898 -28.24442669 53.09948095 -27.875 56.75 C-27.76285156 58.22533203 -27.76285156 58.22533203 -27.6484375 59.73046875 C-27.45994445 62.15731674 -27.2429514 64.5780981 -27 67 C-28.65 66.67 -30.3 66.34 -32 66 C-32.0093457 65.43603516 -32.01869141 64.87207031 -32.02832031 64.29101562 C-32.08257486 61.69318008 -32.16610683 59.09704081 -32.25 56.5 C-32.26417969 55.613125 -32.27835937 54.72625 -32.29296875 53.8125 C-32.5130619 47.82596645 -33.483186 42.96165891 -37 38 C-39.56399774 35.98880254 -39.56399774 35.98880254 -42 35 C-41.27876953 36.546875 -41.27876953 36.546875 -40.54296875 38.125 C-38.25027241 44.23885691 -38.43180438 50.54392896 -38.3125 57 C-38.27833984 58.25167969 -38.24417969 59.50335938 -38.20898438 60.79296875 C-38.12699031 63.86188957 -38.05767981 66.93054206 -38 70 C-35.96792216 70.81283114 -33.9358116 71.62558055 -31.90356445 72.43798828 C-30.1151032 73.15376769 -28.32719061 73.87091933 -26.53979492 74.58935547 C-21.8833196 76.45878199 -17.22088594 78.30659497 -12.53515625 80.1015625 C-0.918261 84.57819151 8.03194943 88.79051031 16.68359375 97.9140625 C20.43878711 101.29563628 24.76989474 103.65841624 29.14453125 106.140625 C31.88969824 107.9281756 33.4271096 109.15224053 35 112 C35 113.32 35 114.64 35 116 C28.93422243 116.4256686 24.90627538 115.8457486 20 112 C16.26713068 108.57462758 12.83000752 104.88929377 9.375 101.1875 C5.094161 97.24462197 0.40655386 95.65619367 -5.2265625 94.53515625 C-6.4139502 94.29442383 -7.60133789 94.05369141 -8.82470703 93.80566406 C-10.07880371 93.56041992 -11.33290039 93.31517578 -12.625 93.0625 C-14.58520219 92.6687476 -16.5454043 92.27499481 -18.50558472 91.88113403 C-20.45361116 91.49131071 -22.4025851 91.10623209 -24.3515625 90.72119141 C-27.55913918 90.08714553 -30.76446938 89.44342448 -33.96875 88.79296875 C-35.6874792 88.4452097 -37.40622792 88.09754706 -39.125 87.75 C-40.32600342 87.50648804 -40.32600342 87.50648804 -41.55126953 87.25805664 C-46.64794877 86.2362325 -51.74955391 85.35720079 -56.90625 84.6875 C-59.97215081 83.6807863 -61.0427196 82.6110279 -63 80 C-64.70756647 75.79036104 -65.90597176 71.41653105 -67.1796875 67.06054688 C-69.43155953 59.77845145 -72.55686772 53.44313228 -78 48 C-77.35521919 54.34405026 -76.03753669 60.3329118 -74.4375 66.5 C-74.20353516 67.4178125 -73.96957031 68.335625 -73.72851562 69.28125 C-73.15666285 71.52197923 -72.58041707 73.76147688 -72 76 C-82.39371009 81.19685504 -99.5965229 76.30180415 -110 73 C-110.76731445 72.75910645 -111.53462891 72.51821289 -112.32519531 72.27001953 C-115.59347905 71.24072664 -118.85936553 70.20448736 -122.12060547 69.15307617 C-135.07918804 65.00063893 -147.41141313 62.81567129 -161 62.9375 C-161.96550781 62.94201172 -162.93101562 62.94652344 -163.92578125 62.95117188 C-166.28392089 62.96284583 -168.64192602 62.97921979 -171 63 C-170.57702637 62.45730469 -170.15405273 61.91460937 -169.71826172 61.35546875 C-169.16928223 60.64003906 -168.62030273 59.92460937 -168.0546875 59.1875 C-167.23460205 58.12595703 -167.23460205 58.12595703 -166.39794922 57.04296875 C-164.80957046 54.72170549 -164.17558195 52.80931125 -164 50 C-165.32 49.34 -166.64 48.68 -168 48 C-168.25136719 48.56589844 -168.50273437 49.13179687 -168.76171875 49.71484375 C-175.55725477 62.25550171 -190.31527744 72.31800247 -202 80 C-202.66257812 80.44859375 -203.32515625 80.8971875 -204.0078125 81.359375 C-218.22286675 90.68260896 -234.46558912 94.13762054 -251.0625 96.625 C-253.37302114 96.98138279 -255.68342737 97.33847975 -257.99365234 97.69677734 C-259.71845054 97.95744896 -261.44686592 98.19398325 -263.17578125 98.42578125 C-272.2425068 100.14465397 -277.80110046 106.62821513 -284 113 C-304.63597629 134.13780417 -304.63597629 134.13780417 -319.140625 135.23828125 C-321.77518666 135.24841418 -324.37243981 135.18296357 -327 135 C-326.34667067 130.81727203 -325.28055699 128.26911704 -322.1328125 125.2734375 C-318.45022718 123.07467777 -314.37634035 123.02609342 -310.1796875 122.53125 C-299.38527433 120.72776082 -291.81615354 110.33294522 -285.3125 102.3125 C-284.56484375 101.39210938 -283.8171875 100.47171875 -283.046875 99.5234375 C-281.84014518 98.03575151 -280.63951378 96.54301999 -279.453125 95.0390625 C-275.90458228 90.95225769 -272.95418981 90.44573685 -267.8984375 89.65625 C-252.61106993 86.19495923 -241.76092999 74.84548916 -232.3984375 63.015625 C-205.46130814 29.14679134 -205.46130814 29.14679134 -183.84375 26.4609375 C-178.86730301 25.92476844 -173.9390003 25.84888981 -168.9375 25.875 C-168.018479 25.87693359 -167.09945801 25.87886719 -166.15258789 25.88085938 C-160.72583344 25.91482081 -155.35019757 26.11495038 -149.9375 26.5 C-136.25933379 27.46109315 -122.46800817 27.92929178 -109 25 C-107.824375 24.75507813 -106.64875 24.51015625 -105.4375 24.2578125 C-94.49764547 21.68238841 -85.09454092 16.95756968 -75.33203125 11.51171875 C-61.35572241 3.94999721 -45.65340273 2.82114541 -30.0625 2.875 C-28.94681641 2.87113281 -27.83113281 2.86726562 -26.68164062 2.86328125 C-23.45209824 2.86706513 -20.22848048 2.91971356 -17 3 C-15.5620105 3.01885254 -15.5620105 3.01885254 -14.0949707 3.03808594 C-7.63910656 3.34322708 -7.63910656 3.34322708 -4.59765625 6.46875 C-4.09105469 7.4690625 -3.58445312 8.469375 -3.0625 9.5 C-1.05917386 13.90513396 -1.05917386 13.90513396 3 16 C4.485 15.01 4.485 15.01 6 14 C5.3751604 10.79679931 4.24289152 8.5805155 2.4375 5.875 C0 2.21529745 0 2.21529745 0 0 Z " transform="translate(405,184)" style="fill: #FBFBF8;"/><path d="M0 0 C1.39025391 0.01353516 1.39025391 0.01353516 2.80859375 0.02734375 C5.08100077 0.05077063 7.3528618 0.08357252 9.625 0.125 C9.07489038 4.75290636 7.06098834 8.16784863 4.5625 12 C3.95740601 12.92981689 3.95740601 12.92981689 3.34008789 13.87841797 C-3.63820004 24.26998405 -12.37992056 28.61252648 -23.73046875 33.05859375 C-36.42412195 37.71266378 -36.42412195 37.71266378 -47.375 45.125 C-48.58194157 52.21578171 -45.06783868 57.25990327 -41.375 63.125 C-38.87347364 66.73833633 -38.87347364 66.73833633 -35.375 69.125 C-32.29466746 69.52754346 -29.21271759 69.89294469 -26.125 70.234375 C-23.375 71.125 -23.375 71.125 -22 73.703125 C-21.79375 74.50234375 -21.5875 75.3015625 -21.375 76.125 C-35.86457717 77.47248077 -35.86457717 77.47248077 -41.19140625 74.61328125 C-43.61360918 72.26907412 -45.46883425 69.90777817 -47.375 67.125 C-47.77187012 66.55749023 -48.16874023 65.98998047 -48.57763672 65.40527344 C-59.42717165 49.76683353 -59.42717165 49.76683353 -58.375 43.125 C-56.6875 41.5703125 -56.6875 41.5703125 -54.375 40.25 C-43.4636542 33.53270274 -34.71604088 24.40278117 -28.3125 13.3125 C-25.10047475 7.88462432 -22.25443393 4.50583541 -16.375 2.125 C-15.5190625 1.76019531 -14.663125 1.39539063 -13.78125 1.01953125 C-9.14276003 -0.1986043 -4.77123281 -0.08848221 0 0 Z " transform="translate(243.375,253.875)" style="fill: #F7F8F5;"/><path d="M0 0 C-1.01320313 0.85271484 -1.01320313 0.85271484 -2.046875 1.72265625 C-10.81159228 8.99177643 -10.81159228 8.99177643 -14.40234375 19.265625 C-14.68597312 25.7683471 -14.58263367 31.04211576 -10.5390625 36.328125 C-10.03117187 36.87984375 -9.52328125 37.4315625 -9 38 C-8.49210937 38.55171875 -7.98421875 39.1034375 -7.4609375 39.671875 C1.02568897 47.79651266 12.04640859 49.27595866 23.33203125 49.1484375 C40.76045544 48.44313386 57.41125409 44.06325786 73.83203125 38.38671875 C88.133124 33.53143157 103.13394334 28.76956672 118 26 C118.66 26.33 119.32 26.66 120 27 C116.12610178 30.49249125 112.2666412 32.22652714 107.375 33.8125 C105.8497012 34.3264684 104.32498174 34.8421586 102.80078125 35.359375 C102.0113916 35.62556641 101.22200195 35.89175781 100.40869141 36.16601562 C97.2251379 37.26828795 94.08139559 38.46565252 90.93286133 39.66357422 C81.76833316 43.13909103 72.54926964 45.94709708 63.07519531 48.44140625 C59.88696255 49.29960349 56.72815997 50.24952667 53.5625 51.1875 C36.97486277 55.85395375 15.34883193 58.9541819 -0.609375 50.640625 C-4.90813768 47.91526566 -8.59381513 44.79546314 -12 41 C-12.70125 40.236875 -13.4025 39.47375 -14.125 38.6875 C-18.35184848 32.62901718 -20.06115281 26.35488669 -19 19 C-16.93216298 10.63761508 -12.28361535 4.2822459 -4.9375 -0.28125 C-3 -1 -3 -1 0 0 Z " transform="translate(70,190)" style="fill: #EDEEEC;"/><path d="M0 0 C16.64846843 2.88923663 16.64846843 2.88923663 22.35546875 10.5234375 C22.89816406 11.34070313 23.44085938 12.15796875 24 13 C24.55300781 13.77601563 25.10601562 14.55203125 25.67578125 15.3515625 C26.82104764 16.96809942 27.94839911 18.59745994 29.05859375 20.23828125 C30.54581379 22.35390413 32.0625513 24.38809061 33.66015625 26.41796875 C34.11922363 27.0015918 34.57829102 27.58521484 35.05126953 28.18652344 C35.96165291 29.33644764 36.87783708 30.48180775 37.80029297 31.62207031 C41 35.67230094 41 35.67230094 41 39 C33.00269786 37.96331269 28.20982624 34.04473429 23 28 C21.23463945 25.09785424 19.61797299 22.18172117 18.0456543 19.17504883 C15.27137242 14.04552087 11.87766113 10.62232451 7.39453125 6.96484375 C4.75288057 4.797225 2.38507805 2.44438727 0 0 Z " transform="translate(381,282)" style="fill: #F3F3F1;"/></svg>