<?xml version="1.0" encoding="UTF-8" standalone="no"?>
<svg
   width="862"
   height="1248"
   viewBox="0 0 862 1248"
   version="1.1"
   id="svg76"
   sodipodi:docname="female_skinfold2.svg"
   xml:space="preserve"
   inkscape:export-filename="female_skinfold2.svg"
   inkscape:export-xdpi="96"
   inkscape:export-ydpi="96"
   xmlns:inkscape="http://www.inkscape.org/namespaces/inkscape"
   xmlns:sodipodi="http://sodipodi.sourceforge.net/DTD/sodipodi-0.dtd"
   xmlns="http://www.w3.org/2000/svg"
   xmlns:svg="http://www.w3.org/2000/svg"><defs
     id="defs76" /><sodipodi:namedview
     id="namedview76"
     pagecolor="#505050"
     bordercolor="#eeeeee"
     borderopacity="1"
     inkscape:showpageshadow="0"
     inkscape:pageopacity="0"
     inkscape:pagecheckerboard="0"
     inkscape:deskcolor="#505050"><inkscape:page
       x="0"
       y="0"
       width="862"
       height="1248"
       id="page2"
       margin="0"
       bleed="0" /></sodipodi:namedview><g
     id="g77"
     inkscape:label="mask"
     style="display:inline"><path
       d="m 3420,8525 c -1,-5 -1,-37 0,-70 1,-60 -26,-253 -55,-395 -9,-41 -17,-82 -19,-90 -1,-8 -5,-22 -8,-30 -3,-8 -11,-46 -17,-85 -6,-38 -18,-110 -27,-160 -27,-151 -19,-203 62,-410 136,-344 158,-433 174,-700 4,-77 18,-192 29,-255 33,-175 53,-431 55,-672 l 1,-218 h 23 c 13,0 22,6 22,15 0,8 -5,15 -10,15 -6,0 -3,14 6,32 13,24 17,69 20,197 6,224 31,331 97,414 18,24 22,41 21,100 0,60 -10,100 -57,237 -122,360 -146,453 -172,660 -18,138 -19,224 -3,396 12,142 15,114 -52,549 -45,298 -71,449 -81,465 -4,8 -9,11 -9,5 z"
       id="path13"
       inkscape:label="mask_right_of_torso"
       transform="matrix(0.1,0,0,-0.1,0,1248)" /><path
       d="M 0,6240 V 0 h 4310 4310 v 6240 6240 H 4310 0 Z m 2592,5461 c 65,-13 117,-31 173,-61 104,-56 119,-68 188,-147 112,-130 169,-298 167,-488 -1,-55 2,-124 6,-154 5,-45 2,-65 -22,-125 -44,-114 -66,-150 -101,-166 -18,-8 -33,-18 -33,-22 0,-3 -14,-44 -32,-89 -20,-53 -45,-98 -70,-125 -21,-23 -38,-45 -38,-49 0,-5 12,-38 26,-74 37,-91 64,-204 64,-266 0,-41 5,-56 23,-72 24,-23 158,-92 240,-124 29,-11 66,-27 82,-34 87,-41 243,-90 408,-131 75,-18 102,-33 156,-86 48,-47 80,-112 104,-209 36,-145 45,-266 52,-729 7,-418 25,-630 65,-781 57,-212 71,-338 75,-684 3,-254 -11,-543 -45,-890 -20,-200 -25,-263 -54,-610 l -12,-150 -47,-69 c -26,-37 -47,-72 -47,-77 0,-5 -16,-34 -36,-63 -28,-42 -43,-55 -69,-60 -18,-4 -45,-16 -60,-28 l -27,-21 -21,21 c -19,20 -20,25 -8,57 7,19 10,38 8,42 -3,5 -28,6 -56,5 l -51,-4 v -61 c -1,-120 -62,-659 -101,-892 -27,-164 -76,-427 -94,-500 -40,-170 -65,-287 -74,-352 -14,-92 -13,-293 2,-663 16,-363 6,-527 -57,-992 -30,-214 -48,-393 -52,-498 -1,-41 -5,-139 -9,-218 -5,-128 -4,-147 14,-187 11,-25 32,-57 48,-71 27,-26 139,-103 193,-133 68,-38 176,-91 185,-91 6,0 28,-9 50,-20 100,-48 161,-70 199,-70 23,0 47,-5 54,-12 18,-18 14,-56 -6,-67 -11,-6 -236,-8 -608,-4 -643,6 -621,4 -667,64 -36,49 -33,102 13,238 39,118 41,128 35,205 -5,62 -3,92 9,128 14,41 15,68 6,210 -12,195 -32,322 -91,563 -19,80 -51,253 -70,385 -38,249 -29,623 20,925 6,39 23,140 37,225 55,332 57,227 -21,975 -21,202 -43,394 -60,520 -19,144 -31,251 -51,470 -9,99 -19,193 -23,209 -4,18 -15,-59 -30,-215 -12,-134 -29,-293 -37,-354 -7,-60 -25,-218 -39,-350 -14,-132 -32,-285 -40,-340 -8,-55 -24,-223 -36,-373 -21,-260 -21,-277 -5,-360 40,-216 90,-604 105,-830 12,-188 -7,-511 -38,-632 -5,-19 -17,-73 -26,-120 -9,-47 -27,-132 -40,-190 -82,-360 -105,-594 -70,-727 13,-48 14,-68 4,-120 -12,-60 -11,-64 26,-170 30,-85 39,-123 39,-180 1,-63 -2,-75 -24,-98 -50,-54 -34,-52 -667,-58 -552,-5 -593,-4 -607,12 -21,23 -20,50 2,57 9,3 25,10 35,15 10,6 27,7 37,4 11,-3 40,3 66,14 26,12 51,21 56,21 6,0 72,30 147,67 209,103 340,191 381,258 18,29 20,49 20,187 0,169 -12,345 -35,533 -94,754 -97,796 -75,1389 13,348 7,460 -34,623 -24,93 -70,323 -115,568 -19,101 -57,371 -97,685 -8,69 -18,187 -21,263 l -6,137 h -48 c -26,0 -56,3 -66,7 -17,7 -17,6 0,-20 21,-32 21,-65 2,-91 -14,-18 -16,-18 -33,-3 -9,9 -44,26 -76,38 -45,17 -62,30 -73,53 -27,58 -58,112 -89,157 -34,48 -41,80 -49,234 -5,85 -37,448 -51,580 -50,457 -57,1156 -15,1375 11,58 29,137 41,175 38,131 59,344 70,702 13,447 18,531 40,681 29,195 65,284 147,370 54,55 63,60 123,72 36,6 76,15 90,20 14,4 54,15 90,25 36,9 92,27 125,40 33,13 71,27 85,31 38,10 279,129 332,163 36,23 50,39 59,70 14,48 34,56 24,10 -8,-35 -6,-35 47,1 43,29 48,49 48,192 0,89 -2,99 -25,125 l -24,28 -1,-38 c 0,-21 -9,-75 -21,-120 -11,-44 -18,-90 -15,-101 3,-12 1,-27 -3,-35 -14,-23 -97,74 -111,129 -14,54 -41,414 -40,523 1,68 -1,77 -17,77 -16,0 -18,8 -15,59 3,53 1,60 -22,79 -29,23 -33,32 -11,32 23,0 45,-42 54,-106 l 9,-59 v 50 c 0,75 -10,106 -40,128 -27,20 -28,20 -48,2 -11,-10 -20,-29 -20,-42 0,-32 21,-116 31,-128 5,-5 9,-16 9,-25 0,-9 14,-38 31,-64 29,-46 33,-66 10,-51 -42,26 -108,212 -96,274 7,40 7,55 4,191 -5,187 57,337 196,475 101,100 184,146 315,174 121,25 147,25 262,2 z m 3700,-6 c 173,-36 349,-175 426,-337 64,-134 72,-172 72,-349 0,-160 -4,-183 -45,-243 -10,-16 -20,-36 -20,-45 -1,-9 -2,-33 -3,-53 -2,-35 -16,-58 -48,-76 -11,-6 -19,-43 -29,-132 -7,-69 -11,-129 -8,-134 3,-5 7,-56 9,-114 3,-81 11,-130 35,-211 50,-171 50,-170 -8,-125 -53,41 -67,89 -94,334 -6,52 -12,96 -14,98 -2,2 -16,-7 -31,-21 l -27,-25 21,-49 c 19,-46 52,-190 66,-293 4,-25 10,-50 14,-56 12,-18 325,-167 377,-180 17,-4 35,-10 40,-14 15,-11 128,-46 225,-70 171,-42 191,-50 243,-98 56,-53 91,-122 113,-222 37,-171 44,-265 54,-726 6,-258 15,-505 20,-549 12,-101 44,-271 60,-309 70,-181 79,-840 19,-1410 -11,-105 -22,-225 -24,-266 -2,-41 -9,-118 -14,-170 -6,-52 -16,-167 -22,-254 -11,-158 -16,-179 -55,-226 -11,-14 -42,-61 -68,-106 -45,-77 -51,-82 -113,-109 -58,-25 -66,-26 -80,-13 -13,13 -13,26 -4,79 5,35 13,75 17,88 6,22 5,22 -15,11 -13,-6 -30,-9 -38,-5 -14,5 -15,21 -8,133 4,70 9,192 10,272 4,194 37,324 103,402 22,27 32,88 21,138 -6,25 -28,95 -49,155 -148,420 -211,722 -196,950 4,55 9,138 12,185 4,64 -2,141 -26,315 -17,127 -33,237 -36,246 -7,24 -55,285 -63,344 -9,63 -18,42 -25,-60 -7,-103 -22,-212 -41,-300 -71,-336 -95,-470 -95,-540 0,-49 41,-179 108,-340 27,-66 51,-131 54,-145 3,-14 17,-65 31,-115 39,-137 59,-268 61,-385 1,-64 12,-159 28,-245 15,-77 31,-203 37,-281 16,-201 13,-725 -4,-954 -15,-205 -58,-590 -75,-675 -5,-27 -17,-97 -25,-155 -28,-181 -57,-329 -116,-595 -66,-299 -68,-357 -39,-925 14,-258 3,-454 -47,-830 -48,-372 -64,-541 -70,-760 -6,-223 -5,-238 15,-282 34,-78 218,-201 457,-303 17,-7 56,-25 89,-39 32,-14 72,-26 90,-27 48,-2 94,-18 100,-36 4,-9 0,-26 -9,-39 l -15,-24 -598,6 c -562,6 -599,8 -628,25 -42,25 -63,59 -70,113 -5,36 1,65 35,159 39,108 41,122 40,214 -1,54 4,111 10,126 7,19 9,79 6,180 -6,175 -10,202 -59,432 -92,423 -120,599 -132,805 -11,197 32,632 101,1005 28,157 28,199 -4,545 -18,184 -36,360 -42,390 -8,47 -50,405 -65,565 -5,52 -31,278 -38,330 -3,17 -8,67 -12,113 -4,45 -10,82 -15,82 -9,0 -14,-34 -29,-205 -12,-128 -28,-287 -35,-345 -12,-90 -68,-595 -85,-760 -11,-102 -25,-239 -32,-305 -18,-167 -15,-301 10,-425 11,-58 26,-145 32,-194 6,-50 13,-93 15,-96 2,-4 14,-101 27,-216 42,-387 28,-648 -53,-1034 -22,-107 -49,-238 -59,-290 -10,-52 -21,-102 -24,-110 -9,-25 -36,-298 -36,-366 0,-34 5,-75 11,-91 7,-16 11,-76 11,-138 -1,-103 1,-116 36,-210 55,-153 48,-227 -29,-274 -27,-16 -77,-18 -630,-25 -454,-5 -604,-4 -615,5 -37,30 3,79 65,79 47,0 294,105 430,182 20,12 45,26 56,32 12,6 53,35 92,64 107,79 107,80 99,351 -4,124 -9,244 -11,266 -11,128 -47,452 -50,465 -5,17 -27,223 -46,425 -8,86 -10,209 -5,370 20,726 20,706 1,815 -9,57 -21,114 -26,127 -19,50 -122,572 -144,728 -8,61 -22,155 -30,209 -18,122 -50,412 -66,601 -7,77 -12,291 -12,475 -1,347 15,577 50,735 9,39 19,133 23,210 8,154 49,412 82,515 31,99 48,150 70,205 11,28 33,91 49,140 28,84 30,98 25,200 -2,61 -11,148 -20,195 -9,47 -24,132 -35,190 -11,58 -26,143 -35,190 -9,47 -19,143 -22,214 -4,72 -10,121 -14,110 -9,-24 -61,-338 -97,-584 -24,-168 -27,-214 -28,-510 -1,-289 -3,-337 -23,-435 -29,-150 -60,-259 -133,-465 -33,-96 -66,-193 -71,-215 -17,-65 -13,-129 10,-166 81,-129 99,-216 107,-504 3,-121 8,-233 11,-250 6,-38 -7,-57 -40,-58 -27,-2 -35,-24 -16,-43 11,-11 21,-109 13,-130 -8,-21 -32,-17 -103,19 -59,29 -68,38 -107,107 -23,41 -47,76 -53,78 -5,2 -10,11 -10,19 0,9 -11,30 -23,47 -21,28 -25,45 -30,171 -7,136 -11,192 -42,510 -41,430 -48,559 -49,910 -1,392 8,522 48,675 67,255 79,384 96,975 5,187 14,367 19,400 5,33 15,93 21,133 16,111 68,233 125,298 52,58 77,70 215,102 106,25 225,59 248,71 28,15 105,48 132,56 29,9 168,78 252,124 57,32 57,32 63,89 4,31 18,109 31,172 13,63 24,120 24,127 0,6 -22,37 -49,67 -52,60 -84,134 -99,228 -7,44 -15,63 -35,79 -15,11 -27,30 -27,42 -1,35 -24,107 -54,172 -26,53 -27,63 -16,93 10,28 10,36 0,42 -19,12 -16,159 5,255 31,141 134,298 258,390 65,48 169,92 257,109 93,17 159,15 272,-9 z"
       id="path1"
       style="display:inline"
       inkscape:label="mask_bg"
       transform="matrix(0.1,0,0,-0.1,0,1248)" /><path
       d="m 1510,8482 c 0,-16 -4,-53 -10,-83 -22,-119 -70,-423 -91,-569 -24,-171 -25,-217 -14,-460 6,-132 4,-190 -9,-290 -19,-139 -82,-397 -117,-475 -22,-52 -108,-329 -114,-370 -8,-51 3,-87 48,-153 49,-73 67,-158 72,-332 5,-177 12,-239 28,-259 7,-8 17,-26 24,-40 9,-22 12,-3 12,109 2,312 43,771 80,896 5,18 8,63 7,100 -3,85 24,304 53,419 32,133 60.0343,203.1487 95,306 37.9022,111.489 63.9209,210.7506 65.511,259 0.4941,14.9919 8.489,133 -49.511,445 -48,264 -77,495 -64,516 3,5 0,9 -5,9 -6,0 -11,-13 -11,-28 z"
       id="path14"
       sodipodi:nodetypes="sccccccccccccccssccss"
       inkscape:label="mask_right_of_torso"
       transform="matrix(0.1,0,0,-0.1,0,1248)" /></g><!-- Traced line-art (potrace) --><!-- Colour blobs --></svg>
