<?xml version="1.0" encoding="UTF-8" standalone="no"?>
<svg
   width="862"
   height="1248"
   viewBox="0 0 862 1248"
   version="1.1"
   id="svg24"
   sodipodi:docname="male_composition.svg"
   xmlns:inkscape="http://www.inkscape.org/namespaces/inkscape"
   xmlns:sodipodi="http://sodipodi.sourceforge.net/DTD/sodipodi-0.dtd"
   xmlns="http://www.w3.org/2000/svg"
   xmlns:svg="http://www.w3.org/2000/svg">
  <defs
     id="defs24" />
  <sodipodi:namedview
     id="namedview24"
     pagecolor="#505050"
     bordercolor="#eeeeee"
     borderopacity="1"
     inkscape:showpageshadow="0"
     inkscape:pageopacity="0"
     inkscape:pagecheckerboard="0"
     inkscape:deskcolor="#505050"
     showgrid="false">
    <inkscape:page
       x="0"
       y="0"
       width="862"
       height="1248"
       id="page2"
       margin="0"
       bleed="0" />
  </sodipodi:namedview>
  <rect
     width="862"
     height="1248"
     fill="#ffffff"
     id="rect1"
     inkscape:label="background"
     x="0"
     y="0" />
  <path
     d="m 0,624 v 624 H 431 862 V 624 0 H 431 0 Z M 446.3,75.1 c 3.2,0.5 8.5,2.3 11.8,3.9 5.3,2.5 7.9,4.7 15.3,13 0.8,0.8 2.5,2.4 4,3.5 5.9,4.5 9.6,16.4 9.6,31.5 0,5.2 -0.6,12.1 -1.4,15.2 -1.2,5.4 -1.2,5.9 0.7,7.5 3.4,3.2 3.8,5.9 2.1,15.1 -2.1,11.4 -5,18.9 -8,20.8 -1.7,1.2 -2.4,2.6 -2.4,4.8 0,1.7 -1.2,5.8 -2.5,9.1 -2.3,5.4 -2.5,7.4 -2.5,20.7 0,8.1 0.4,15.8 1,17.2 1,2.8 7.2,7 13.4,9.2 3.8,1.4 27.1,10.9 34.4,14.1 7.1,3.1 20.4,7.3 27.9,8.8 22.6,4.5 28.4,6.8 37.7,15.5 13.2,12.2 20.6,29.7 25.3,59.6 2.7,17.8 2.8,18.2 2.8,68.4 l 0.1,50.5 2.8,10 c 4.4,16.1 4.6,36.5 0.6,60.5 -0.5,3 -1.4,12.5 -2,21 -0.6,8.5 -2,21.6 -3,29 -1.1,7.4 -2.7,19.6 -3.5,27 -0.9,7.4 -2.2,17.3 -3,22 -0.7,4.7 -1.7,11.4 -2,15 -0.4,3.6 -2,12.2 -3.5,19.2 -1.6,6.9 -3.2,15.7 -3.6,19.5 -0.8,8.2 -3.1,13.9 -10.3,25.6 -6.3,10.1 -11.3,15.1 -17,16.8 -5,1.5 -7.1,0.1 -7.1,-4.6 0,-3.3 2.1,-6.1 8.3,-11.2 1.5,-1.3 2.7,-3 2.7,-3.8 0,-0.9 0.8,-3.2 1.9,-5.3 2.3,-4.7 3.4,-9.2 2.2,-9.2 -0.5,0 -3.5,3.6 -6.6,8 -3.1,4.4 -6,8.2 -6.5,8.5 -1.9,1.2 -6,-0.8 -6.6,-3 -0.3,-1.3 0,-6.3 0.6,-11.2 0.7,-4.8 1.6,-17.8 2,-28.8 0.9,-22.6 1.9,-26.7 8.8,-38.2 2.7,-4.4 4.2,-8.1 4.2,-10.2 0,-5.5 -6.2,-27.6 -17.1,-61 -11.3,-34.5 -11.3,-34.6 -11.4,-63.1 -0.1,-19.8 -0.4,-25.8 -1.9,-31.5 -2.4,-9.7 -4.3,-20.2 -5.7,-32 -0.7,-5.5 -1.5,-10.4 -1.9,-10.8 -0.5,-0.5 -1.1,4.4 -1.5,11 -0.4,6.5 -1.8,18.3 -3.2,26.3 -3.5,20.7 -3.3,26.6 1.1,43.3 6.3,23.4 6.7,26.3 7.6,56.7 0.7,23 1.3,31.5 3.4,44 8.2,49.2 11.6,89.4 11.6,136 0,56.5 -5.8,135.4 -14.1,190.1 -2.6,17.7 -3,23.6 -3.9,59 -0.5,21.7 -1.4,43 -2,47.4 -5.5,44.7 -8.7,87.6 -8.6,115 0.1,21.9 0.7,22.7 27.1,36.8 7.1,3.8 16.1,9 20,11.5 5.4,3.5 8.3,4.6 12.9,5.2 6.6,0.8 9.3,2.9 7.5,6.1 -0.5,1 -2,2.1 -3.2,2.4 -1.2,0.3 -27.2,0.4 -57.7,0.3 l -55.5,-0.3 -3.6,-2.3 c -7.8,-4.8 -8.7,-14 -2.9,-28.5 2.8,-7 3,-8.4 3,-20.1 0,-9 0.4,-13.7 1.5,-16.3 3,-7.2 1.9,-14.6 -6,-39.8 -16.7,-53.2 -20.6,-78.3 -17.5,-112 0.6,-6.1 3.3,-24.5 6.1,-41 7.8,-46.7 7.4,-42.9 5.9,-51.9 -0.7,-4.5 -3.3,-14 -5.7,-21.1 -9,-26.8 -17.1,-59.3 -20.8,-83.5 -1.6,-10.8 -2.4,-27.4 -2.8,-63 -0.2,-19.6 -0.3,-20.5 -2.2,-20.5 -1.9,0 -2,1 -2.6,27.3 -0.7,27.3 -1.1,34.6 -3,52.2 -2,17.8 -9.6,51.2 -17.5,76.2 -11.5,36.8 -11.6,37.4 -8,56.4 8.7,47.5 11,65.9 11,89.4 -0.1,17.7 -0.4,22.5 -2.7,35 -2.7,14.8 -8.2,35.4 -16.3,60.5 -5.5,17 -6.8,29.4 -3.9,37.1 1.4,3.7 1.6,6.2 1,14.3 -0.7,9.5 -0.6,10.1 2.9,20.2 4.8,13.9 5,21.3 0.6,26.2 -1.9,2.2 -4.5,3.8 -7.2,4.5 -4,1 -36,1.4 -93.4,1.3 -18.4,-0.1 -20.4,-0.3 -22.5,-2 -3.2,-2.6 -1.6,-5.3 3.7,-6.5 2.1,-0.5 5.5,-1.3 7.5,-1.7 1.9,-0.5 7.3,-3.2 12,-6 4.6,-2.9 12.7,-7.5 17.9,-10.2 15.8,-8.3 20.2,-11.6 23,-17.2 2.5,-4.9 2.5,-5.3 2.4,-28.5 -0.1,-12.9 -0.7,-29.1 -1.3,-36 -2.2,-23.6 -4.2,-43.5 -5.1,-50 -1.3,-9.4 -2.9,-37 -4,-71.5 -1.1,-32.8 -1.6,-39.1 -6,-69.5 -6.1,-42 -9.8,-93.9 -10.8,-149 -1.3,-68.1 1.6,-108.2 12.3,-172.1 2.1,-12.1 2.5,-18.1 2.5,-34.5 0,-21.7 1.3,-33.2 5.5,-47.9 6.6,-23.6 7.1,-30.9 3,-51 -1.6,-7.8 -2.9,-18.7 -3.4,-27.2 -0.4,-7.8 -0.9,-14.5 -1.2,-14.8 -0.3,-0.3 -1.3,5.7 -2.3,13.2 -0.9,7.6 -2.8,19 -4.2,25.3 -2.2,10 -2.7,15.1 -3.4,39.5 -0.9,32.6 -0.9,32.4 -13,68.5 -7.6,22.6 -12.6,39.5 -14.9,50.9 -1.3,6.4 -0.2,11.6 3.4,16 6.6,7.8 9.2,20.8 9.6,47.1 0.1,11.3 0.2,23.4 0.3,27 0.1,6 -0.1,6.5 -2.1,6.8 -2.4,0.4 -5.1,-2 -9.3,-8.3 -1.4,-2 -3.8,-5.1 -5.3,-6.8 l -2.9,-3.2 0.6,3.4 c 1.3,7.3 5.7,15 10.7,18.6 5.2,3.7 7.1,8.4 5,12.4 -1.6,2.9 -4.6,2.6 -10.7,-0.9 -5.4,-3 -8.6,-6.6 -15,-16.5 -5.9,-9.2 -7.3,-13 -8.4,-22.8 -0.6,-5 -1.9,-12.5 -3,-16.7 -1,-4.1 -2.6,-13.1 -3.5,-20 -0.9,-6.8 -1.8,-12.7 -2,-13 -0.2,-0.3 -0.8,-5 -1.4,-10.5 -0.7,-5.5 -2,-15.9 -3.1,-23 -1,-7.2 -2.4,-18.6 -3,-25.5 -0.6,-6.9 -2.3,-23.1 -3.7,-36 -1.9,-16.7 -2.7,-28.7 -2.7,-41.5 0.1,-16.7 0.3,-18.7 2.9,-28 l 2.8,-10 0.2,-52 c 0.3,-56 0.8,-63.8 6,-84.8 3.8,-15.5 10.2,-29.5 17.3,-37.7 4.3,-5.1 12.8,-11.5 17.9,-13.5 4.6,-1.8 24,-6.5 26.9,-6.5 2.1,0 21.4,-6.1 27.4,-8.7 19,-8.1 28.3,-12 34.1,-14.3 3.1,-1.1 7.1,-3.4 9,-4.9 l 3.4,-2.9 v -16.8 c 0,-13.3 -0.3,-17.7 -1.6,-20.9 -0.9,-2.2 -2,-6 -2.4,-8.5 -0.5,-3.2 -1.8,-5.7 -4.4,-8.5 -2.9,-3.2 -4,-5.5 -5,-10.5 -0.7,-3.6 -1.7,-7.8 -2.2,-9.4 -1.5,-4.7 -1.1,-10.7 0.9,-12.9 1.5,-1.7 1.7,-3.8 1.3,-17.7 -0.3,-15.4 -0.2,-16 2.3,-21.4 1.4,-3 2.6,-6.3 2.6,-7.3 0.1,-9.6 17,-24.5 32.7,-28.8 5.9,-1.6 21,-1.9 28.6,-0.4 z"
     id="path1"
     inkscape:label="mask"
     style="display:inline;stroke-width:0.1" />
  <!-- Traced line-art (potrace) -->
  <g
     transform="matrix(0.1,0,0,-0.1,0,1248)"
     fill="#000000"
     stroke="none"
     id="g24"
     inkscape:label="body"
     style="display:inline">
    <g
       id="g28"
       inkscape:label="head"
       style="display:inline">
      <path
         d="m 4175,11696 c -93,-32 -143,-60 -198,-114 -62,-60 -90,-104 -102,-162 -4,-19 -16,-50 -26,-70 -10,-19 -21,-55 -24,-80 l -7,-45 21,25 c 11,14 21,28 21,33 0,11 20,9 20,-3 0,-5 -11,-26 -25,-46 -22,-33 -25,-47 -25,-128 1,-70 5,-99 20,-126 l 19,-35 1,38 c 0,46 32,111 64,132 17,11 25,29 30,62 14,102 41,137 119,152 24,4 68,4 98,0 155,-22 363,0 481,52 66,29 98,36 98,21 0,-8 -31,-22 -112,-51 l -46,-17 34,-28 c 31,-25 38,-26 67,-17 17,7 44,23 59,38 21,20 28,23 28,11 0,-18 -40,-54 -71,-63 -11,-4 -17,-11 -14,-16 11,-17 52,-9 67,13 9,13 17,18 21,11 10,-15 -33,-65 -49,-59 -8,3 -21,9 -29,12 -30,12 -14,-12 19,-30 40,-21 82,-63 73,-72 -3,-3 -26,10 -50,30 -24,20 -47,36 -50,36 -12,0 13,-64 32,-82 23,-20 51,-106 51,-152 0,-56 21,-12 37,75 34,195 7,385 -65,462 -14,15 -31,27 -37,27 -6,0 -26,20 -44,45 -38,53 -67,74 -146,105 -49,19 -83,24 -190,26 -91,3 -142,0 -170,-10 z m -40,-130 c -11,-7 -31,-16 -45,-19 -54,-13 -160,-128 -176,-190 -9,-37 -24,-34 -24,6 0,45 11,82 20,67 5,-8 15,1 29,24 39,62 134,125 191,126 24,0 24,0 5,-14 z m 365,-160 c -25,-32 -82,-41 -220,-38 -74,2 -163,5 -197,5 -56,2 -65,-1 -92,-27 -35,-34 -52,-29 -28,8 27,40 76,50 201,40 140,-10 237,-7 284,10 53,19 68,20 52,2 z m -600,-255 c -11,-23 -25,-41 -31,-41 -12,0 -6,23 24,88 20,43 22,45 25,20 2,-14 -6,-45 -18,-67 z"
         id="path2"
         inkscape:label="hair" />
      <path
         d="m 4475,11305 c -72,-17 -212,-19 -286,-5 -70,14 -116,5 -158,-29 -30,-25 -35,-35 -39,-86 -4,-49 -9,-63 -34,-83 -44,-37 -56,-71 -64,-168 -10,-138 29,-409 72,-494 32,-64 83,-120 183,-200 l 86,-70 h 95 96 l 67,50 c 80,61 195,189 225,250 31,64 43,167 45,363 2,184 -9,242 -53,282 -11,10 -20,31 -20,47 0,38 -20,75 -62,114 -41,40 -76,46 -153,29 z"
         id="path3"
         inkscape:label="face" />
      <path
         d="m 3803,10943 c -8,-36 21,-203 44,-250 26,-54 43,-54 31,-1 -14,69 -21,121 -19,157 1,19 -6,45 -15,59 -12,19 -13,26 -4,32 15,9 4,30 -15,30 -8,0 -18,-12 -22,-27 z"
         id="path4"
         inkscape:label="right_ear" />
      <path
         d="m 4815,10938 c -8,-33 -8,-64 0,-128 2,-19 2,-29 -1,-22 -12,26 -24,10 -23,-30 1,-24 -2,-60 -6,-80 -5,-24 -4,-38 2,-38 32,0 95,261 74,307 -15,33 -37,29 -46,-9 z"
         id="path5"
         inkscape:label="left_ear" />
    </g>
    <g
       id="g26"
       inkscape:label="top_half"
       style="display:inline">
      <path
         d="m 5791,5780 c -1,-3 -12,-36 -25,-75 -14,-38 -23,-71 -22,-72 1,-2 17,12 35,31 31,32 32,36 23,77 -5,24 -10,42 -11,39 z"
         id="path11"
         inkscape:label="left_finger_2" />
      <path
         d="m 2857,5718 c -5,-38 -3,-46 23,-72 16,-17 32,-27 35,-24 6,5 -33,116 -45,131 -4,5 -10,-11 -13,-35 z"
         id="path12"
         inkscape:label="right_finger_2" />
      <path
         d="m 5773,5628 c -21,-22 -37,-54 -47,-92 l -15,-59 50,52 c 42,44 49,57 49,91 0,22 -1,40 -3,40 -2,0 -17,-15 -34,-32 z"
         id="path13"
         inkscape:label="left_finger_1" />
      <path
         d="m 2850,5632 c 0,-41 13,-82 26,-82 8,0 27,-19 44,-42 35,-49 36,-48 10,26 -21,62 -80,134 -80,98 z"
         id="path14"
         inkscape:label="right_finger_1" />
      <path
         d="m 3965,10246 c 0,-104 -4,-150 -14,-169 -16,-30 -72,-65 -153,-95 -29,-11 -132,-54 -228,-95 -186,-80 -275,-110 -380,-127 -121,-21 -255,-61 -302,-91 -137,-88 -238,-262 -292,-504 -46,-207 -50,-270 -51,-810 -1,-494 -2,-513 -23,-590 -49,-177 -51,-387 -6,-727 7,-58 21,-187 29,-285 8,-98 24,-236 35,-308 10,-71 26,-182 35,-245 46,-328 56,-389 70,-440 8,-30 20,-97 25,-148 11,-102 16,-114 101,-247 60,-93 107,-137 162,-150 22,-6 27,-4 27,13 0,25 -35,69 -70,87 -62,32 -124,275 -102,398 7,36 12,87 12,116 0,28 4,51 8,51 5,0 16,-24 24,-52 9,-29 28,-81 42,-114 14,-34 30,-92 36,-130 12,-90 41,-174 62,-188 9,-6 19,-8 22,-5 3,2 0,38 -5,79 -5,41 -11,165 -14,275 -5,245 -12,277 -105,444 -18,32 -30,68 -30,90 0,54 70,303 161,576 121,363 120,354 129,680 6,196 13,298 24,340 24,93 76,418 86,534 l 8,104 -33,63 c -19,36 -42,104 -55,161 -12,54 -30,125 -41,157 -22,68 -23,80 -9,71 21,-13 42,-70 66,-182 15,-64 34,-135 44,-159 43,-98 138,-165 278,-194 77,-16 134,-18 227,-7 67,8 69,7 52,-10 -14,-15 -38,-19 -130,-21 -158,-5 -253,20 -356,95 l -24,17 6,-44 c 4,-25 11,-121 17,-213 6,-93 22,-230 36,-305 47,-249 47,-251 25,-370 -12,-59 -34,-157 -50,-217 -42,-157 -51,-241 -51,-455 v -188 l 65,-21 c 554,-179 1401,-181 1948,-5 l 77,25 v 185 c 0,217 -13,317 -71,539 -49,190 -53,273 -20,435 32,158 75,630 56,630 -3,0 -18,-9 -34,-21 -51,-37 -162,-59 -302,-59 -75,0 -130,4 -134,10 -4,6 27,10 87,10 236,1 374,53 427,163 24,50 54,247 45,299 -3,21 -2,43 3,50 5,9 10,-1 13,-27 l 5,-40 37,58 c 21,31 42,57 48,57 12,0 13,-27 1,-34 -5,-3 -24,-32 -41,-63 -25,-44 -36,-80 -47,-158 -9,-67 -23,-121 -43,-164 -33,-70 -38,-130 -20,-251 35,-242 53,-343 77,-442 25,-106 27,-129 28,-363 2,-292 -3,-269 120,-645 48,-146 98,-308 112,-360 14,-52 32,-117 39,-145 26,-94 19,-130 -51,-253 -44,-77 -57,-138 -60,-282 -3,-150 -10,-236 -30,-355 -14,-83 -13,-95 10,-95 24,0 44,43 61,131 18,98 54,229 67,246 5,6 17,33 27,60 10,26 21,48 25,48 9,0 17,-126 17,-253 0,-79 -5,-107 -32,-185 -28,-79 -39,-98 -81,-135 -51,-46 -67,-92 -31,-92 29,1 110,68 131,108 11,21 38,67 61,101 49,73 57,97 71,206 6,44 21,125 34,180 14,55 29,136 35,180 6,44 17,125 25,180 29,189 76,580 90,740 8,88 24,241 36,340 26,225 22,347 -17,490 l -28,100 -1,510 c -1,501 -2,513 -28,675 -33,208 -56,291 -115,409 -53,105 -134,198 -215,245 -43,25 -210,72 -324,91 -84,13 -627,230 -681,272 -52,40 -62,74 -62,225 l -1,133 -21,-30 c -29,-41 -144,-151 -193,-185 -50,-34 -104,-44 -200,-35 l -76,7 -89,74 c -49,40 -101,90 -116,111 -15,21 -30,41 -33,45 -4,4 -6,-57 -6,-136 z m 95,-477 c 92,-11 154,-34 184,-68 20,-22 14,-42 -8,-26 -51,38 -70,48 -103,56 -69,15 -326,31 -463,27 -83,-2 -137,1 -140,7 -12,24 341,27 530,4 z m 802,-21 c -9,-9 -74,-14 -223,-18 l -211,-5 -23,-29 c -12,-16 -28,-27 -34,-25 -16,6 14,47 53,70 28,17 52,19 240,19 168,0 208,-3 198,-12 z m -543,-493 c 14,-99 15,-401 1,-410 -5,-3 -10,-5 -11,-3 -1,2 -5,102 -10,223 -5,121 -11,238 -15,260 -5,35 -4,38 8,25 8,-8 20,-51 27,-95 z M 4110,8161 c 0,-4 -40,-25 -90,-46 -135,-57 -259,-142 -382,-263 -60,-59 -113,-108 -118,-110 -32,-11 4,35 113,142 133,132 221,192 369,252 86,35 108,40 108,25 z m 714,-62 c 149,-75 270,-174 362,-294 51,-68 13,-49 -57,28 -39,42 -96,97 -127,120 -60,46 -240,157 -254,157 -4,0 -8,5 -8,10 0,16 19,12 84,-21 z m 1079,-309 c -89,-149 -97,-165 -129,-250 -32,-85 -63,-123 -49,-62 10,50 60,173 91,227 43,75 128,188 132,176 2,-6 -18,-47 -45,-91 z m -3137,-21 c 61,-101 103,-205 111,-272 7,-57 -11,-60 -22,-4 -11,52 -65,176 -117,268 -51,92 -55,103 -35,97 6,-2 35,-42 63,-89 z m 268,-43 c -3,-7 -34,-39 -70,-70 -83,-74 -89,-46 -6,30 55,52 87,69 76,40 z m 2658,-93 c 34,-33 52,-70 30,-61 -11,4 -82,84 -82,92 0,14 16,4 52,-31 z"
         id="path6"
         style="display:inline"
         inkscape:label="upperbody_core" />
    </g>
    <g
       id="g27"
       inkscape:label="bottom_half"
       style="display:inline">
      <g
         id="g30"
         inkscape:label="right"
         style="display:inline">
        <path
           d="m 3143,4729 c 11,-462 58,-1067 107,-1379 37,-232 50,-393 65,-805 15,-409 20,-475 49,-740 9,-77 20,-180 26,-230 21,-193 32,-417 28,-580 -3,-158 -5,-174 -28,-220 -30,-60 -88,-106 -220,-174 -52,-27 -126,-68 -165,-91 -64,-38 -67,-41 -33,-36 21,4 39,2 43,-4 3,-6 -4,-10 -17,-10 -37,0 -68,-11 -68,-24 0,-25 27,-47 69,-57 43,-10 76,0 52,15 -6,4 -11,20 -11,36 0,22 7,33 28,43 36,19 154,29 149,14 -2,-7 -31,-15 -65,-18 -62,-6 -92,-21 -92,-45 0,-44 129,-61 185,-24 39,26 53,26 30,0 -10,-11 -16,-21 -14,-23 2,-1 141,0 309,3 219,4 311,9 327,18 64,36 69,107 17,249 -35,97 -36,99 -30,211 5,93 3,118 -10,144 -13,25 -15,53 -12,142 4,101 9,126 60,286 120,372 152,506 179,755 22,208 -13,532 -116,1075 -28,147 -17,219 76,510 99,310 179,674 198,905 22,276 22,268 4,261 -9,-4 -62,-18 -117,-31 -194,-46 -475,-48 -689,-6 -106,21 -238,61 -291,88 l -29,15 z m 537,-1389 c -27,-52 -76,-107 -144,-159 -50,-39 -77,-50 -76,-33 1,4 23,24 51,46 46,35 112,109 163,182 27,39 31,14 6,-36 z m -78,-180 c -32,-30 -62,-39 -62,-20 0,6 6,10 13,10 8,0 22,9 32,20 10,11 25,20 34,20 11,0 6,-10 -17,-30 z M 3830,747 c -20,-53 -40,-75 -40,-43 0,20 21,78 39,105 25,39 25,3 1,-62 z"
           id="path17"
           inkscape:label="right_leg" />
        <path
           d="m 2861,429 c -24,-10 -25,-10 -5,-29 10,-11 34,-22 52,-26 l 33,-7 -17,37 c -19,38 -25,40 -63,25 z"
           id="path19"
           inkscape:label="right_toe_3" />
        <path
           d="m 2787,414 c -13,-13 14,-44 40,-44 24,0 25,1 11,23 -16,23 -39,33 -51,21 z"
           id="path21"
           inkscape:label="right_toe_2" />
        <path
           d="m 2737,403 c -13,-12 -7,-23 13,-23 13,0 18,5 14,15 -7,16 -17,19 -27,8 z"
           id="path23"
           inkscape:label="right_toe_1" />
      </g>
      <g
         id="g29"
         inkscape:label="left"
         style="display:inline">
        <path
           d="m 5893,395 c -3,-9 -3,-19 1,-22 8,-9 37,18 30,28 -8,14 -24,11 -31,-6 z"
           id="path24"
           inkscape:label="left_toe_1" />
        <path
           d="m 5826,405 c -16,-12 -17,-18 -8,-27 15,-15 45,0 50,26 4,20 -16,20 -42,1 z"
           id="path22"
           inkscape:label="left_toe_2" />
        <path
           d="m 5736,409 c -10,-17 -16,-33 -13,-35 9,-9 56,8 73,27 16,18 15,19 -10,29 -15,5 -28,10 -29,10 -2,0 -11,-14 -21,-31 z"
           id="path20"
           inkscape:label="left_toe_3" />
        <path
           d="m 5467,4974 c -26,-14 -92,-37 -145,-50 -281,-72 -611,-74 -861,-4 -40,12 -75,19 -76,18 -6,-8 17,-306 30,-403 32,-222 136,-639 211,-845 36,-101 63,-223 64,-290 0,-30 -14,-133 -31,-230 -100,-566 -120,-759 -101,-967 17,-186 61,-385 147,-663 42,-135 83,-272 90,-305 18,-74 19,-179 3,-208 -8,-13 -15,-83 -18,-177 -5,-135 -9,-161 -29,-199 -33,-63 -45,-152 -27,-195 29,-69 35,-70 376,-76 168,-3 307,-4 309,-3 2,1 -7,11 -20,22 -13,11 -21,22 -18,25 3,4 18,-4 34,-16 18,-14 46,-23 81,-26 75,-6 104,3 104,33 0,31 -12,38 -85,50 -68,11 -73,32 -7,27 69,-6 96,-17 112,-45 12,-22 13,-30 2,-47 -11,-19 -10,-20 27,-20 43,0 100,38 88,57 -4,6 -26,14 -49,18 -33,6 -38,9 -24,17 9,5 31,6 49,3 18,-4 30,-5 27,-2 -8,8 -136,76 -223,119 -103,50 -190,110 -220,151 -36,48 -47,110 -47,264 0,210 17,441 60,848 33,312 41,429 50,740 11,383 15,436 49,670 35,246 60,473 80,745 38,490 60,991 45,989 -5,0 -31,-12 -57,-25 z M 5068,3367 c 50,-49 103,-90 125,-97 36,-14 50,-30 25,-30 -37,1 -112,49 -180,118 -43,42 -78,80 -78,84 0,21 29,1 108,-75 z m 85,-156 c 26,-7 47,-18 47,-23 0,-18 -83,1 -105,23 -22,22 -24,22 58,0 z M 4873,760 c 20,-28 22,-53 5,-48 -18,6 -78,120 -78,148 0,21 5,16 28,-26 16,-27 36,-61 45,-74 z"
           id="path18"
           inkscape:label="left_leg" />
      </g>
      <g
         id="g25"
         style="display:inline"
         inkscape:label="underware">
        <path
           d="m 3276,6613 c -4,-38 -8,-77 -9,-88 -2,-17 13,-24 108,-51 546,-159 1155,-177 1725,-50 148,33 288,71 297,80 2,2 -1,43 -8,90 -10,73 -15,86 -28,80 -150,-67 -484,-127 -813,-146 -355,-20 -737,13 -1055,91 -68,17 -139,37 -159,46 -20,8 -40,15 -44,15 -4,0 -10,-30 -14,-67 z"
           id="path7"
           inkscape:label="top_band" />
        <path
           d="m 3256,6472 c -3,-5 -18,-102 -35,-218 -47,-331 -81,-734 -81,-980 0,-126 2,-143 18,-149 206,-84 421,-125 649,-125 164,1 439,35 465,59 4,3 8,71 9,151 l 2,145 -35,10 c -113,33 -231,211 -276,420 -17,79 -24,384 -12,495 l 5,45 -60,8 c -225,30 -524,94 -607,131 -20,9 -39,12 -42,8 z"
           id="path8"
           inkscape:label="right_section" />
        <path
           d="m 5345,6454 c -82,-31 -334,-85 -507,-110 l -127,-18 5,-151 c 16,-391 -67,-653 -250,-787 -21,-15 -50,-28 -63,-28 h -24 l 3,-147 3,-148 40,-13 c 78,-26 298,-52 441,-53 193,-1 365,30 587,106 l 77,27 v 102 c 0,214 -41,710 -81,981 -12,77 -24,165 -28,195 -7,62 -15,67 -76,44 z"
           id="path9"
           inkscape:label="left_section" />
        <path
           d="m 3985,6163 c -13,-274 17,-442 110,-609 33,-59 99,-130 145,-154 13,-7 53,-13 89,-14 55,-1 74,3 114,27 53,31 115,105 154,181 61,121 99,381 87,598 l -7,123 h -342 -343 z"
           id="path10"
           inkscape:label="crotch" />
        <path
           d="m 3142,5063 c 3,-35 6,-38 53,-56 312,-115 664,-139 973,-66 112,27 112,27 112,60 0,34 0,34 -65,13 -129,-40 -459,-57 -632,-33 -123,17 -292,59 -362,90 -35,16 -68,29 -73,29 -5,0 -8,-17 -6,-37 z"
           id="path15"
           inkscape:label="bottom_right_band" />
        <path
           d="m 5435,5069 c -93,-38 -246,-75 -375,-90 -147,-17 -428,-6 -540,21 -156,37 -142,37 -138,4 3,-25 10,-31 54,-46 116,-39 233,-53 434,-52 107,0 231,6 275,13 93,14 280,65 342,93 39,17 43,22 43,53 0,42 -4,42 -95,4 z"
           id="path16"
           inkscape:label="bottom_left_band" />
      </g>
    </g>
  </g>
  <!-- Colour blobs -->
</svg>
