<?xml version="1.0" encoding="UTF-8" standalone="no"?>
<svg
   width="862"
   height="1248"
   viewBox="0 0 862 1248"
   version="1.1"
   id="svg56"
   sodipodi:docname="male.svg"
   inkscape:export-filename="male.svg"
   inkscape:export-xdpi="96"
   inkscape:export-ydpi="96"
   xmlns:inkscape="http://www.inkscape.org/namespaces/inkscape"
   xmlns:sodipodi="http://sodipodi.sourceforge.net/DTD/sodipodi-0.dtd"
   xmlns="http://www.w3.org/2000/svg"
   xmlns:svg="http://www.w3.org/2000/svg">
  <defs
     id="defs56" />
  <sodipodi:namedview
     id="namedview56"
     pagecolor="#505050"
     bordercolor="#eeeeee"
     borderopacity="1"
     inkscape:showpageshadow="0"
     inkscape:pageopacity="0"
     inkscape:pagecheckerboard="0"
     inkscape:deskcolor="#505050">
    <inkscape:page
       x="0"
       y="0"
       width="862"
       height="1248"
       id="page2"
       margin="0"
       bleed="0" />
  </sodipodi:namedview>
  <path
     d="m 0,624 v 624 H 431 862 V 624 0 H 431 0 Z M 244.3,74.1 c 9,1.6 17.7,6 21.9,11 4.8,5.6 5.5,6.3 10,10 2.9,2.4 4.2,4.7 6.4,11.2 2.4,7.1 2.8,9.7 2.7,19.7 0,7.4 -0.6,13.2 -1.6,16.3 -1.4,4.5 -1.4,4.8 0.4,6.1 3.6,2.4 4.2,6.6 2.4,16.2 -1.9,10.1 -5.4,18.7 -8.4,20.6 -1.3,0.8 -2.1,2.3 -2.1,4 0,1.5 -1.1,6.2 -2.5,10.5 -2.4,7.1 -2.6,9 -2.3,21.9 0.4,16.4 0.9,17.7 9,21.7 13.1,6.4 56.3,23.2 62.6,24.3 2,0.3 9.3,1.9 16.2,3.6 15,3.5 20.7,6.6 29.5,16.1 11.6,12.4 18.3,29.4 22.7,57.7 2.2,13.6 2.3,17.5 2.4,65.5 l 0.1,51 2.7,10 c 4.3,15.8 4.6,42.9 0.6,64.6 -0.5,2.5 -1.4,11.2 -2,19.5 -0.6,8.2 -2,21.2 -3,28.9 -1.1,7.7 -2.9,21.2 -4,30 -4.6,36.3 -6,45.7 -8.4,55.1 -1.3,5.4 -2.7,13 -3.1,16.8 -0.9,9.1 -2.3,12.7 -8.8,23.3 -7.7,12.2 -9.2,14 -15.1,17.3 -6.2,3.6 -7.1,3.7 -9.1,0.7 -2.3,-3.5 -0.4,-9 4.4,-12.4 3,-2.2 4.6,-4.5 7,-10.4 3.1,-7.6 3.9,-11.5 2.1,-10.4 -0.5,0.3 -3.4,4.1 -6.5,8.5 -4.8,6.9 -6.1,8 -8.5,8 -3.6,0 -5.1,-2.4 -4.5,-7.1 2.6,-19.8 3.6,-32.1 3.2,-36 -0.8,-6.8 0.8,-20.5 3.2,-27.4 1.2,-3.3 3.6,-8.2 5.5,-11 1.8,-2.8 3.6,-6.4 4,-8.1 0.8,-3.7 -7.3,-33.4 -17.9,-65.4 -10.3,-31.2 -10.7,-33.6 -10.9,-63 -0.1,-22.8 -0.3,-25.3 -2.8,-35.5 -1.5,-6.1 -3.5,-17.2 -4.4,-24.8 -1,-7.6 -2.1,-13.2 -2.5,-12.5 -0.3,0.7 -0.9,7.1 -1.3,14.3 -0.3,7.4 -1.7,18.2 -3.1,25 -1.3,6.6 -2.5,13.3 -2.5,14.9 0,1.6 1.8,8.2 3.9,14.5 7.3,21.4 7.6,23.6 7.7,61.6 0.1,32 0.2,35 2.8,50 4.4,26.8 8.4,59.8 10.1,84.5 4.4,63 -1.1,171.2 -12.5,246 -2.4,15.8 -2.9,23.8 -4,64.5 -0.9,32 -1.3,37 -7.5,94 -2.1,19.2 -3.7,63.9 -2.6,72 1.6,11.4 4.2,13.9 28.3,26.6 7.2,3.8 15.9,8.8 19.2,11 4.6,3.1 7.5,4.3 11.8,4.8 3.1,0.4 6.3,1.3 7.2,2 2.2,1.8 2,4.8 -0.4,6.1 -2.2,1.2 -103.8,1.5 -111.3,0.4 -5.4,-0.9 -9,-2.7 -11.6,-6 -3.4,-4.3 -2.9,-14.2 1.1,-24.1 3.1,-7.5 3.3,-8.3 3.1,-20.1 -0.2,-9.1 0.1,-13.3 1.2,-15.9 0.8,-2 1.5,-6.6 1.5,-10.3 0,-7.1 -1.1,-11.4 -12,-47 -10,-32.9 -13.2,-50.6 -13.3,-74.5 -0.1,-9.4 0.4,-21.3 1.1,-26.5 1.6,-11.9 7.6,-49.2 10.2,-62.8 1.1,-5.7 2,-13.1 2,-16.5 0,-7.3 -2.9,-20.6 -6.3,-29.7 -4,-10.5 -11.4,-37.5 -15.7,-56.7 -6.2,-28.4 -7.2,-38.5 -7.7,-76.5 -0.5,-32.3 -0.6,-33.8 -2.4,-33.8 -1,0 -1.9,0.1 -1.9,0.2 0,0.2 -0.5,14.3 -1,31.5 -0.5,17.1 -1.7,37.1 -2.5,44.5 -2.7,23 -9.3,52.5 -18.1,80.3 -11.1,35.1 -11.4,37.5 -8,55 1.4,7.1 3.6,20 5,28.5 5.5,34.4 6.1,39.8 6,62 0,30.1 -2.3,42.4 -16.5,87.9 -5.9,18.7 -7.2,24.2 -7.6,31.7 -0.4,7.1 -0.2,9.7 1.1,12.1 1.2,2.5 1.6,5.9 1.4,16 -0.1,12.3 0,13.1 3.2,21.1 6.6,16.9 3.4,27.4 -9,29.6 -6.8,1.2 -110.6,0.9 -112.9,-0.3 -1.2,-0.7 -2.1,-2.1 -2.1,-3.6 0,-2.5 2.4,-3.6 10.5,-5 2.2,-0.4 9.2,-3.7 15.5,-7.4 6.3,-3.8 15.8,-9.2 21.1,-12.1 16.1,-8.7 19,-12 20.9,-23.6 1.8,-10.7 -2.4,-76.2 -6.9,-107.9 -1.2,-8.6 -2.8,-39.6 -3.6,-69.5 -0.7,-25.4 -2.2,-42.3 -6.5,-72 -6.9,-48.5 -10.5,-105 -10.5,-168.5 0,-60.3 2.1,-88 10.7,-138.5 3.4,-19.6 3.6,-25.8 2.9,-65 -0.4,-20.3 1.2,-30.3 8,-50 2.1,-6.2 3.9,-12.8 3.9,-14.5 0,-1.6 -1.3,-10.3 -2.8,-19.2 -3.3542,-13.9506 -2.347,-38.0358 -4.147,-39.3358 -2.1,-1.5 -5.053,34.5358 -7.653,46.0358 -1.3,5.9 -1.8,12.8 -1.9,31.5 -0.1,22.4 -0.3,24.8 -2.9,36 -1.6,6.6 -5.7,20.3 -9.2,30.5 -10.3,29.6 -16.4,51.9 -16.4,59.8 0,4.1 0.7,5.9 3.7,10.3 2,3 4.8,8.8 6.1,12.9 2.3,6.9 2.6,9.6 3.2,34.7 0.4,14.9 1.1,27.6 1.4,28.2 0.4,0.6 0.4,2 0.1,3.2 -0.5,1.6 -1.4,1.9 -3.8,1.7 -2.7,-0.3 -4.1,-1.5 -8.9,-8.3 -6.2,-8.7 -8.5,-10.6 -7.4,-5.9 1.7,7 6.4,15.1 10.4,18 6,4.3 8.1,10.4 4.6,13.8 -2,2 -1.4,2.1 -8.3,-1.4 -6.3,-3.1 -10.2,-7.3 -16.9,-18.1 -5.9,-9.3 -6.9,-12.2 -8.1,-22.9 -0.6,-5.2 -1.8,-12 -2.6,-15 -1.6,-5.8 -5.5,-31.3 -8,-51.5 -0.8,-6.6 -2.1,-16.5 -2.9,-22 -0.8,-5.5 -2.2,-17.9 -3.1,-27.5 -0.8,-9.6 -2.2,-22.9 -3,-29.5 -3.9,-32.4 -3.7,-53.2 0.9,-70.1 2.5,-9.1 2.5,-9.1 2.4,-57 -0.1,-50.8 0.5,-60.9 4.7,-81.6 4.3,-21 12.6,-38 23.4,-48 9,-8.4 15.3,-10.9 40.1,-15.8 10.7,-2.2 19.7,-5.3 39.2,-13.6 7.3,-3.1 16,-6.7 19.4,-7.9 8.2,-3.1 14.2,-7 14.9,-9.8 0.3,-1.2 0.4,-9.4 0.2,-18.2 -0.5,-19.2 -3.2,-31.4 -7.8,-35.3 -2.9,-2.4 -4.5,-6.7 -7.4,-19.1 -1.9,-8.1 -1.4,-13.3 1.4,-15.3 1.5,-1.1 1.6,-2.3 1,-9.3 -1.5,-15.7 -1.1,-22.3 1.6,-28.4 1.3,-3.1 2.9,-7.4 3.4,-9.6 1.6,-5.9 4.1,-9.4 11.2,-15.7 6.7,-5.9 10.6,-7.9 20.4,-10.9 6.9,-2 20.2,-2.4 28.8,-0.8 z M 634,74.4 c 7.3,0.5 20.7,5.8 26.9,10.4 12,9.1 17.1,19.8 19.1,39.9 1.1,11.5 0.9,13.2 -1.7,21.6 -1.5,4.7 -1.4,4.9 0.6,6.3 2.8,2 2.7,7.2 -0.3,13.2 -1.3,2.6 -2.6,6.6 -2.9,9 -0.3,2.4 -1.2,5.1 -2,6 -2.9,3.2 -4.9,20.2 -4.6,37.3 0.5,21.7 -0.1,20.9 27.4,32.5 22.6,9.5 40.1,16 45.1,16.9 10.2,1.8 28.4,6.4 32,8.1 2.1,1 7.5,5.4 12,9.8 6.3,6.3 9,10 12.3,16.5 12.2,24.6 17.5,64.4 15.2,114.2 -1.7,37.4 -1.6,40.2 1.9,53.8 4.8,19 5.5,28.2 3.6,44.1 -0.9,7.4 -2.3,21.6 -3.1,31.5 -0.9,9.9 -2.4,24.7 -3.5,33 -1.1,8.2 -2.7,20.8 -3.5,28 -3.3,29.1 -4.8,39.8 -8,56.5 -1.8,9.6 -3.6,21.3 -4,26 -0.6,7.1 -1.4,10.2 -5.2,18.5 -4.9,10.8 -6.3,12.8 -13.6,18.6 -4,3.2 -5.7,3.9 -9.3,3.9 -4.9,0 -6.5,-1.8 -5.7,-6.3 0.3,-1.5 0.1,-2.7 -0.5,-2.7 -1.9,0 -2.3,-3.9 -0.7,-7 1.5,-2.9 1.5,-3 -0.5,-3 -3.2,0 -3.7,-3.4 -2.8,-18 0.5,-7.4 1.1,-19.1 1.3,-26 0.3,-15.4 2.6,-24.8 9.2,-37.8 l 4.7,-9.3 -1.7,-6.7 c -5.6,-21.7 -11.6,-42 -17.2,-58.8 -9.5,-28.2 -9.8,-30.1 -10.1,-56.9 -0.2,-21.3 -0.4,-24.1 -3.3,-38 -1.7,-8.3 -3.8,-21.4 -4.8,-29.2 -1.8,-14.8 -3.3,-16.9 -3.3,-4.7 0,10.7 -1.9,27.9 -4.1,37 -2.6,11.1 -2.4,13.7 1.6,24.9 1.9,5.3 4.7,15.4 6.2,22.3 2.5,11.6 2.7,14.3 2.4,31.2 -0.6,40.2 -0.7,38.1 3.7,65 9.6,59.5 13.1,119.9 10.2,176.5 -1.8,34.8 -5,80.8 -6.6,94 -3.5,30.5 -4.6,38.6 -6.5,50 -1.2,7.6 -2.3,21.1 -2.9,37 -2.3,58.7 -4.3,86.5 -8.5,121.5 -2.4,20 -4.1,72.8 -2.6,79.6 1.8,7.7 6.7,12.3 21.2,19.9 6.3,3.2 15.5,8.7 20.6,12.1 8.3,5.6 9.8,6.2 16,6.8 7.7,0.8 8.8,1.2 9.7,4.2 0.5,1.7 0,2.7 -2.1,4.4 l -2.8,2.2 -53,-0.6 c -30.5,-0.4 -55,-1.1 -57.7,-1.7 -3.4,-0.8 -5.6,-2.1 -7.9,-4.7 -3.1,-3.5 -3.1,-3.7 -2.7,-12.1 0.4,-7.1 1,-9.6 3.4,-14.1 2.8,-5.3 2.9,-6 2.9,-19 0.1,-7.4 0.5,-16.9 0.9,-21.1 1.2,-10.4 -0.5,-21.2 -6.1,-38.4 -13.5,-42.3 -17.3,-61.5 -17.3,-88.1 0,-21.5 0.8,-29.1 7,-66.4 2.7,-16.2 5.2,-32 5.5,-35.1 0.9,-7.5 -1.4,-19.6 -7.5,-38.9 -18,-57.6 -22.1,-83.3 -23.9,-151 l -0.6,-23.5 -2.4,-0.3 c -1.3,-0.2 -2.8,0.1 -3.5,0.8 -0.7,0.7 -1.3,9.1 -1.7,24.3 -0.9,31 -4.3,72.1 -7.5,87.7 -2.9,14.3 -8.1,35.1 -12.3,49 -13.3,44.2 -13.7,46.3 -10.2,62.6 1.1,5.4 3.7,19.7 5.6,31.7 8.9,55.4 7.5,85.1 -6.1,129.5 -11.9,38.7 -11.7,37.8 -11.6,49.7 0.1,29.1 0.8,38.9 2.9,43.5 1.2,2.5 2.9,7.9 3.8,12.1 2.6,12.2 -0.5,19.5 -9.1,21.7 -2.2,0.6 -27.8,1.3 -56.9,1.7 -46.7,0.6 -53.5,0.5 -56.8,-0.9 -2.9,-1.2 -3.7,-2.1 -3.7,-4 0,-3.3 2.7,-4.7 10.4,-5.3 5.3,-0.5 7.3,-1.4 15.1,-6.3 11.1,-7.1 21.5,-13.1 27.8,-16 2.6,-1.3 6.7,-4.2 9.1,-6.5 6.2,-6 6.9,-10.3 6.1,-35.8 -0.8,-27.2 -2.3,-50.9 -4.1,-64.2 -2.6,-20.1 -5.4,-57.6 -6.4,-87 -1.2,-32.9 -2.4,-49.8 -4.5,-63.5 -3.9,-24.9 -7.6,-61.1 -10.2,-98 -3.5,-51.1 -3.9,-114.8 -1,-149 2.7,-31.1 5.7,-55 9.3,-73 4,-20 4.7,-29.5 3.4,-49.7 -1.9,-28.9 -0.5,-41 7.5,-64.2 2.5,-7.1 4.5,-14.5 4.5,-16.3 0,-1.9 -0.9,-6.8 -1.9,-10.9 -2.6,-9.9 -3.9,-19.7 -4.7,-35.7 -0.3,-7.3 -0.8,-13.1 -1,-12.9 -0.2,0.2 -1.1,6.7 -1.9,14.5 -0.8,7.7 -2.9,21.2 -4.7,29.9 -3.1,15.1 -3.3,16.7 -3,35 0.4,25.3 -0.9,33.1 -9.8,59.3 -8.2,24.4 -11.9,36.4 -15.8,52.3 -3.4,13.3 -3.2,16.2 1.8,25 4.4,8 8.1,21.8 8.1,30.7 0,4.1 0.5,16.5 1.1,27.4 1.1,19.8 1.1,19.9 -1,21.6 -1.8,1.5 -2,2.3 -1.3,4.8 0.7,2.2 0.5,3.6 -0.5,4.9 -0.7,1 -1.4,3.2 -1.4,4.9 0,3.9 -1.4,5.1 -6.1,5.2 -5.1,0.2 -15.5,-7.7 -18.5,-13.9 -7,-14.2 -7.7,-16.4 -9,-27.3 -0.8,-6.1 -2.5,-16.5 -3.8,-23.1 -2.6,-12.8 -4.1,-22.8 -5.1,-34 -0.4,-3.9 -1.7,-14.4 -3,-23.5 -3.1,-21.5 -5.2,-40.3 -6.5,-57 -0.5,-7.5 -1.7,-19.2 -2.5,-26 -2.8,-23.5 -1.8,-40.7 3.2,-58.5 l 2.6,-9 -1.3,-31.2 c -2.8,-67.8 3.5,-109.6 20.1,-133.4 4.7,-6.6 13.1,-13.9 20.1,-17.5 2.6,-1.3 11.3,-3.7 19.5,-5.4 17.4,-3.5 22.8,-5.2 46.8,-15.2 9.9,-4.2 19.1,-7.9 20.5,-8.3 1.4,-0.4 4.7,-1.9 7.3,-3.2 3.9,-1.9 5.3,-3.4 6.9,-6.9 1.8,-4.2 1.9,-6.1 1.5,-22.2 -0.6,-18.8 -2.1,-30.1 -4.8,-34.2 -0.9,-1.4 -2,-4.3 -2.4,-6.5 -0.3,-2.2 -1.8,-6.6 -3.3,-9.9 -2.2,-5 -2.4,-6.2 -1.4,-8.8 0.9,-2.3 0.8,-4.3 -0.4,-8.8 -0.8,-3.1 -1.5,-10.8 -1.6,-17.1 -0.2,-10 0,-12 2,-16 1.2,-2.5 2.2,-5.2 2.2,-5.9 0,-2.5 3.2,-10.3 6,-14.5 6.7,-10.3 29.6,-20.2 43.5,-18.9 1.7,0.2 5.5,0.5 8.5,0.8 z"
     id="path1"
     sodipodi:nodetypes="ccccccccccccccccccscccccccccccccccccccccccsccccccccccccsccccccccccccccccccsccccscccsscccccccccccccscccccccscccsccccccscccccccccccccccscccccccccscccccccccccccccsscccccccccccccccccscscscccccccccscccccccccscccccccccccccccsccccccsccccccccccccsccccccccccsccsccsccccccsccccscccccccccccccccsccccccccccsccc"
     style="display:inline;stroke-width:0.1"
     inkscape:label="mask" />
  <!-- Traced line-art (potrace) -->
  <!-- Skinfold Sites -->
  <!-- skinfold_thigh -->
  <!-- skinfold_suprailiac -->
  <!-- skinfold_abdomen -->
  <!-- skinfold_midaxillary -->
  <!-- skinfold_bicep -->
  <!-- skinfold_tricep -->
  <!-- skinfold_subscapular -->
  <!-- skinfold_chest -->
</svg>
